<?xml version="1.0" encoding="UTF-8"?>
<svg width="18px" height="36px" viewBox="0 0 18 36" version="1.1" xmlns="http://www.w3.org/2000/svg" xmlns:xlink="http://www.w3.org/1999/xlink">
    <title>Account Settings</title>
    <g id="Account-Settings" stroke="none" stroke-width="1" fill="none" fill-rule="evenodd">
        <path d="M15,0 C16.6568542,-3.04359188e-16 18,1.34314575 18,3 L18,33 C18,34.6568542 16.6568542,36 15,36 L3,36 C1.34314575,36 -6.85272294e-16,34.6568542 0,33 L0,3 C-2.02906125e-16,1.34314575 1.34314575,3.04359188e-16 3,0 L15,0 Z M14.2,16.1 C13.7029437,15.4372583 12.7627417,15.3029437 12.1,15.8 L12.1,15.8 L9,18.125 L5.9,15.8 L5.78031204,15.7188173 C5.12817967,15.3205739 4.26781767,15.4762431 3.8,16.1 C3.30294373,16.7627417 3.4372583,17.7029437 4.1,18.2 L4.1,18.2 L9,21.875 L13.9,18.2 L14.0114481,18.1078307 C14.5763587,17.5932918 14.6678177,16.7237569 14.2,16.1 Z" fill="#F6C94A"></path>
    </g>
</svg>