<?xml version="1.0" encoding="UTF-8"?>
<svg width="16px" height="16px" viewBox="0 0 16 16" version="1.1" xmlns="http://www.w3.org/2000/svg" xmlns:xlink="http://www.w3.org/1999/xlink">
    <title>Mask</title>
    <defs>
        <path d="M8,0 C12.418278,-8.11624501e-16 16,3.581722 16,8 C16,12.418278 12.418278,16 8,16 C3.581722,16 5.41083001e-16,12.418278 0,8 C-5.41083001e-16,3.581722 3.581722,8.11624501e-16 8,0 Z M12.8994949,4.82842712 C12.5089706,4.43790283 11.8758057,4.43790283 11.4852814,4.82842712 L11.4852814,4.82842712 L6.53553391,9.77817459 L5.12132034,8.36396103 C4.73079605,7.97343674 4.09763107,7.97343674 3.70710678,8.36396103 C3.31658249,8.75448532 3.31658249,9.3876503 3.70710678,9.77817459 L3.70710678,9.77817459 L5.82842712,11.8994949 C6.21895142,12.2900192 6.8521164,12.2900192 7.24264069,11.8994949 L7.24264069,11.8994949 L12.8994949,6.24264069 C13.2900192,5.8521164 13.2900192,5.21895142 12.8994949,4.82842712 Z" id="path-1"></path>
    </defs>
    <g id="æ§ä»¶" stroke="none" stroke-width="1" fill="none" fill-rule="evenodd">
        <g id="ç»¿è‰²">
            <mask id="mask-2" fill="white">
                <use xlink:href="#path-1"></use>
            </mask>
            <use id="Mask" fill="#34C69A" xlink:href="#path-1"></use>
        </g>
    </g>
</svg>