<?xml version="1.0" encoding="UTF-8"?>
<svg width="12px" height="12px" viewBox="0 0 12 12" version="1.1" xmlns="http://www.w3.org/2000/svg" xmlns:xlink="http://www.w3.org/1999/xlink">
    <title>关闭</title>
    <g id="页面-1" stroke="none" stroke-width="1" fill="none" fill-rule="evenodd" opacity="0.300000012">
        <g id="012" transform="translate(-1222.000000, -97.000000)">
            <g id="分组-copy-9" transform="translate(866.000000, 76.000000)">
                <g id="分组-2-copy" transform="translate(354.000000, 19.000000)">
                    <rect id="矩形" x="0" y="0" width="16" height="16"></rect>
                    <path d="M3.70710678,2.29289322 L8,6.585 L12.2928932,2.29289322 C12.6834175,1.90236893 13.3165825,1.90236893 13.7071068,2.29289322 C14.0976311,2.68341751 14.0976311,3.31658249 13.7071068,3.70710678 L9.415,8 L13.7071068,12.2928932 C14.0976311,12.6834175 14.0976311,13.3165825 13.7071068,13.7071068 C13.3165825,14.0976311 12.6834175,14.0976311 12.2928932,13.7071068 L8,9.415 L3.70710678,13.7071068 C3.31658249,14.0976311 2.68341751,14.0976311 2.29289322,13.7071068 C1.90236893,13.3165825 1.90236893,12.6834175 2.29289322,12.2928932 L6.585,8 L2.29289322,3.70710678 C1.90236893,3.31658249 1.90236893,2.68341751 2.29289322,2.29289322 C2.68341751,1.90236893 3.31658249,1.90236893 3.70710678,2.29289322 Z" id="合并形状" fill="#000000" fill-rule="nonzero"></path>
                </g>
            </g>
        </g>
    </g>
</svg>