<?xml version="1.0" encoding="UTF-8"?>
<svg width="17px" height="16px" viewBox="0 0 17 16" version="1.1" xmlns="http://www.w3.org/2000/svg" xmlns:xlink="http://www.w3.org/1999/xlink">
    <title>7.Icon/suggested/7.check-circle/outline 2</title>
    <g id="3.0" stroke="none" stroke-width="1" fill="none" fill-rule="evenodd">
        <g id="006资产保险库——备注" transform="translate(-1113.000000, -700.000000)">
            <g id="编组-6" transform="translate(110.000000, 513.000000)">
                <g id="编组-10" transform="translate(975.000000, 187.000000)">
                    <g id="7.Icon/suggested/7.check-circle/outline-2" transform="translate(28.500000, 0.000000)">
                        <rect id="矩形" fill="#D8D8D8" opacity="0" x="0" y="0" width="16" height="16"></rect>
                        <g id="7.Icon/suggested/7.check-circle/outline" transform="translate(1.000000, 1.000000)" fill="#000000" fill-rule="nonzero">
                            <path d="M7,0 C10.865625,0 14,3.134375 14,7 C14,10.865625 10.865625,14 7,14 C3.134375,14 0,10.865625 0,7 C0,3.134375 3.134375,0 7,0 Z M7,1.1875 C3.790625,1.1875 1.1875,3.790625 1.1875,7 C1.1875,10.209375 3.790625,12.8125 7,12.8125 C10.209375,12.8125 12.8125,10.209375 12.8125,7 C12.8125,3.790625 10.209375,1.1875 7,1.1875 Z M9.921875,4.515625 C10.0234375,4.515625 10.0828125,4.63125 10.021875,4.7140625 L10.021875,4.7140625 L6.73125,9.2765625 C6.5328125,9.553125 6.121875,9.553125 5.9234375,9.2765625 L5.9234375,9.2765625 L3.9765625,6.5765625 C3.9171875,6.49375 3.9765625,6.378125 4.078125,6.378125 L4.078125,6.378125 L4.8109375,6.378125 C4.971875,6.378125 5.121875,6.45625 5.215625,6.5859375 L5.215625,6.5859375 L6.328125,8.1296875 L8.784375,4.7234375 C8.878125,4.5921875 9.0296875,4.515625 9.1890625,4.515625 L9.1890625,4.515625 Z" id="fill"></path>
                        </g>
                    </g>
                </g>
            </g>
        </g>
    </g>
</svg>