<?xml version="1.0" encoding="UTF-8"?>
<svg width="16px" height="17px" viewBox="0 0 16 17" version="1.1" xmlns="http://www.w3.org/2000/svg" xmlns:xlink="http://www.w3.org/1999/xlink">
    <title>7.Icon/suggested/8.close-circle/outline 2</title>
    <g id="3.0" stroke="none" stroke-width="1" fill="none" fill-rule="evenodd">
        <g id="005资产保险库" transform="translate(-1114.000000, -894.000000)">
            <g id="编组-11" transform="translate(1086.000000, 894.500000)">
                <g id="7.Icon/suggested/8.close-circle/outline-2" transform="translate(28.000000, 0.000000)">
                    <rect id="矩形" stroke="#979797" fill="#D8D8D8" opacity="0" x="0.5" y="0.5" width="15" height="15"></rect>
                    <g id="close-circle">
                        <rect id="Rectangle" fill="#000000" opacity="0" x="0" y="0" width="16" height="16"></rect>
                        <path d="M8,1.015625 C11.865625,1.015625 15,4.15 15,8.015625 C15,11.88125 11.865625,15.015625 8,15.015625 C4.134375,15.015625 1,11.88125 1,8.015625 C1,4.15 4.134375,1.015625 8,1.015625 Z M8,2.203125 C4.790625,2.203125 2.1875,4.80625 2.1875,8.015625 C2.1875,11.225 4.790625,13.828125 8,13.828125 C11.209375,13.828125 13.8125,11.225 13.8125,8.015625 C13.8125,4.80625 11.209375,2.203125 8,2.203125 Z M10.584375,5.41875 C10.653125,5.41875 10.709375,5.475 10.709375,5.54375 C10.709375,5.5734375 10.7,5.603125 10.68125,5.625 L10.68125,5.625 L8.6484375,8.046875 L10.678125,10.4671875 C10.696875,10.490625 10.7078125,10.51875 10.7078125,10.5484375 C10.7078125,10.61875 10.6515625,10.6734375 10.5828125,10.6734375 L10.5828125,10.6734375 L9.5515625,10.66875 L8,8.81875 L6.4484375,10.6703125 L5.415625,10.675 C5.346875,10.675 5.290625,10.61875 5.290625,10.55 C5.290625,10.5203125 5.3015625,10.4921875 5.3203125,10.46875 L5.3203125,10.46875 L7.353125,8.0484375 L5.3203125,5.6265625 C5.3015625,5.603125 5.290625,5.575 5.290625,5.5453125 C5.290625,5.475 5.346875,5.4203125 5.415625,5.4203125 L5.415625,5.4203125 L6.4484375,5.425 L8,7.275 L9.553125,5.4234375 Z" id="Combined-Shape" fill="#282828" fill-rule="nonzero"></path>
                    </g>
                </g>
            </g>
        </g>
    </g>
</svg>