<?xml version="1.0" encoding="UTF-8"?>
<svg width="1384px" height="857px" viewBox="0 0 1384 857" version="1.1" xmlns="http://www.w3.org/2000/svg" xmlns:xlink="http://www.w3.org/1999/xlink">
    <title>background</title>
    <defs>
        <path d="M451.891432,5.68434189e-14 C515.676102,5.68434189e-14 563.393516,56.2927083 563.393516,115.447222 C563.393516,173.289763 515.861633,225.387862 454.11913,227.67035 C454.126351,227.69397 454.135202,227.721115 454.144054,227.748264 C420.088892,231.120139 398.041866,235.831134 388.002977,241.88125 C374.650645,249.928272 361.463343,268.11491 356.408394,294.910956 L356.332405,295.659722 C348.712039,363.568712 331.643689,419.229688 275.382578,451.770313 C252.347907,465.093238 213.462934,472.981076 181.583059,462.696181 C138.319296,448.738683 115.33362,439.413542 80.9445573,413.332292 C43.1801527,384.691125 9.94785593,352.579861 1.39629343,295.659722 C-7.15526907,238.739583 25.0604719,201.844677 57.4587934,167.966319 C85.82597,138.30326 125.992625,105.393229 175.187786,110.278819 C197.861801,112.530584 219.678312,117.81814 239.846124,125.715742 L239.815582,125.632812 C263.727028,134.029398 284.693979,132.534549 302.716432,121.148264 C317.31462,111.925373 328.745471,95.6276389 339.238006,78.846255 L340.400095,76.9800014 C343.345558,72.2315436 346.222722,67.4639686 349.081845,62.8258906 C368.226591,25.5229594 407.078408,5.68434189e-14 451.891432,5.68434189e-14 Z" id="path-1"></path>
        <filter x="-1.5%" y="-1.8%" width="103.0%" height="103.6%" filterUnits="objectBoundingBox" id="filter-3">
            <feMorphology radius="4" operator="erode" in="SourceAlpha" result="shadowSpreadInner1"></feMorphology>
            <feGaussianBlur stdDeviation="6.5" in="shadowSpreadInner1" result="shadowBlurInner1"></feGaussianBlur>
            <feOffset dx="0" dy="0" in="shadowBlurInner1" result="shadowOffsetInner1"></feOffset>
            <feComposite in="shadowOffsetInner1" in2="SourceAlpha" operator="arithmetic" k2="-1" k3="1" result="shadowInnerInner1"></feComposite>
            <feColorMatrix values="0 0 0 0 1   0 0 0 0 1   0 0 0 0 1  0 0 0 1 0" type="matrix" in="shadowInnerInner1"></feColorMatrix>
        </filter>
        <linearGradient x1="80.950888%" y1="21.8879997%" x2="26.9811456%" y2="54.0364875%" id="linearGradient-4">
            <stop stop-color="#FCFCFE" offset="0%"></stop>
            <stop stop-color="#E7E6ED" offset="87.0848027%"></stop>
            <stop stop-color="#DBDAE2" offset="100%"></stop>
        </linearGradient>
        <filter x="-7.5%" y="-7.5%" width="115.0%" height="115.0%" filterUnits="objectBoundingBox" id="filter-5">
            <feGaussianBlur stdDeviation="17" in="SourceGraphic"></feGaussianBlur>
        </filter>
        <path d="M451.891432,1.70530257e-13 C515.676102,1.70530257e-13 563.393516,56.2927083 563.393516,115.447222 C563.393516,173.289763 515.861633,225.387862 454.11913,227.67035 C454.126351,227.69397 454.135202,227.721115 454.144054,227.748264 C420.088892,231.120139 398.041866,235.831134 388.002977,241.88125 C374.650645,249.928272 361.463343,268.11491 356.408394,294.910956 L356.332405,295.659722 C348.712039,363.568712 331.643689,419.229688 275.382578,451.770313 C252.347907,465.093238 213.462934,472.981076 181.583059,462.696181 C138.319296,448.738683 115.33362,439.413542 80.9445573,413.332292 C43.1801527,384.691125 9.94785593,352.579861 1.39629343,295.659722 C-7.15526907,238.739583 25.0604719,201.844677 57.4587934,167.966319 C85.82597,138.30326 125.992625,105.393229 175.187786,110.278819 C197.861801,112.530584 219.678312,117.81814 239.846124,125.715742 L239.815582,125.632813 C263.727028,134.029398 284.693979,132.534549 302.716432,121.148264 C317.31462,111.925373 328.745471,95.6276389 339.238006,78.846255 L340.400095,76.9800014 C343.345558,72.2315436 346.222722,67.4639686 349.081845,62.8258906 C368.226591,25.5229594 407.078408,1.70530257e-13 451.891432,1.70530257e-13 Z" id="path-6"></path>
        <filter x="-1.5%" y="-1.8%" width="103.0%" height="103.6%" filterUnits="objectBoundingBox" id="filter-7">
            <feMorphology radius="4" operator="erode" in="SourceAlpha" result="shadowSpreadInner1"></feMorphology>
            <feGaussianBlur stdDeviation="6.5" in="shadowSpreadInner1" result="shadowBlurInner1"></feGaussianBlur>
            <feOffset dx="0" dy="0" in="shadowBlurInner1" result="shadowOffsetInner1"></feOffset>
            <feComposite in="shadowOffsetInner1" in2="SourceAlpha" operator="arithmetic" k2="-1" k3="1" result="shadowInnerInner1"></feComposite>
            <feColorMatrix values="0 0 0 0 1   0 0 0 0 1   0 0 0 0 1  0 0 0 1 0" type="matrix" in="shadowInnerInner1"></feColorMatrix>
        </filter>
        <circle id="path-8" cx="52.9488857" cy="52.9488857" r="52.9488857"></circle>
        <filter x="-3.8%" y="-3.8%" width="107.6%" height="107.6%" filterUnits="objectBoundingBox" id="filter-10">
            <feGaussianBlur stdDeviation="4" in="SourceAlpha" result="shadowBlurInner1"></feGaussianBlur>
            <feOffset dx="0" dy="0" in="shadowBlurInner1" result="shadowOffsetInner1"></feOffset>
            <feComposite in="shadowOffsetInner1" in2="SourceAlpha" operator="arithmetic" k2="-1" k3="1" result="shadowInnerInner1"></feComposite>
            <feColorMatrix values="0 0 0 0 1   0 0 0 0 1   0 0 0 0 1  0 0 0 1 0" type="matrix" in="shadowInnerInner1"></feColorMatrix>
        </filter>
        <linearGradient x1="50%" y1="0%" x2="100%" y2="69.2490294%" id="linearGradient-11">
            <stop stop-color="#FFFFFF" offset="0%"></stop>
            <stop stop-color="#D8D7DB" offset="100%"></stop>
        </linearGradient>
        <filter x="-53.2%" y="-53.2%" width="206.5%" height="206.5%" filterUnits="objectBoundingBox" id="filter-12">
            <feGaussianBlur stdDeviation="17" in="SourceGraphic"></feGaussianBlur>
        </filter>
        <circle id="path-13" cx="140.811026" cy="140.811026" r="140.811026"></circle>
        <filter x="-3.0%" y="-3.0%" width="106.0%" height="106.0%" filterUnits="objectBoundingBox" id="filter-15">
            <feMorphology radius="4" operator="erode" in="SourceAlpha" result="shadowSpreadInner1"></feMorphology>
            <feGaussianBlur stdDeviation="6.5" in="shadowSpreadInner1" result="shadowBlurInner1"></feGaussianBlur>
            <feOffset dx="0" dy="0" in="shadowBlurInner1" result="shadowOffsetInner1"></feOffset>
            <feComposite in="shadowOffsetInner1" in2="SourceAlpha" operator="arithmetic" k2="-1" k3="1" result="shadowInnerInner1"></feComposite>
            <feColorMatrix values="0 0 0 0 1   0 0 0 0 1   0 0 0 0 1  0 0 0 1 0" type="matrix" in="shadowInnerInner1"></feColorMatrix>
        </filter>
        <linearGradient x1="40.1124929%" y1="0%" x2="69.7480617%" y2="66.7462464%" id="linearGradient-16">
            <stop stop-color="#FCFCFE" offset="0%"></stop>
            <stop stop-color="#E4E3EA" offset="100%"></stop>
        </linearGradient>
        <filter x="-20.0%" y="-20.0%" width="140.0%" height="140.0%" filterUnits="objectBoundingBox" id="filter-17">
            <feGaussianBlur stdDeviation="17" in="SourceGraphic"></feGaussianBlur>
        </filter>
    </defs>
    <g id="3.0" stroke="none" stroke-width="1" fill="none" fill-rule="evenodd">
        <g id="000_loading" transform="translate(103.000000, 8.000000)">
            <g id="background" transform="translate(-102.040541, -7.500000)">
                <rect id="-" fill="#EBEAEF" x="102.040541" y="0" width="1280" height="848"></rect>
                <g id="shape1" transform="translate(0.000000, 165.000000)">
                    <g id="形状1">
                        <mask id="mask-2" fill="white">
                            <use xlink:href="#path-1"></use>
                        </mask>
                        <g id="形状结合" fill="black" fill-opacity="1">
                            <use filter="url(#filter-3)" xlink:href="#path-1"></use>
                        </g>
                        <circle id="椭圆形" fill="url(#linearGradient-4)" filter="url(#filter-5)" mask="url(#mask-2)" cx="256.311784" cy="251.532625" r="339.221477"></circle>
                        <g id="形状结合" mask="url(#mask-2)" fill="black" fill-opacity="1">
                            <use filter="url(#filter-7)" xlink:href="#path-6"></use>
                        </g>
                    </g>
                    <g id="编组-6" transform="translate(746.369128, 53.500000) scale(-1, 1) translate(-746.369128, -53.500000) translate(693.369128, 0.000000)">
                        <g id="椭圆形-2" transform="translate(0.000000, 0.295005)">
                            <mask id="mask-9" fill="white">
                                <use xlink:href="#path-8"></use>
                            </mask>
                            <g id="椭圆形" fill="black" fill-opacity="1">
                                <use filter="url(#filter-10)" xlink:href="#path-8"></use>
                            </g>
                            <circle id="椭圆形" fill="url(#linearGradient-11)" filter="url(#filter-12)" mask="url(#mask-9)" cx="58.0101763" cy="58.0101763" r="47.8875952"></circle>
                        </g>
                    </g>
                </g>
                <g id="shape2" transform="translate(1104.081081, 476.000000) scale(-1, 1) translate(-1104.081081, -476.000000) translate(963.081081, 334.500000)">
                    <g id="椭圆形-2" transform="translate(0.000000, 0.784530)">
                        <mask id="mask-14" fill="white">
                            <use xlink:href="#path-13"></use>
                        </mask>
                        <g id="椭圆形" fill="black" fill-opacity="1">
                            <use filter="url(#filter-15)" xlink:href="#path-13"></use>
                        </g>
                        <circle id="椭圆形" fill="url(#linearGradient-16)" filter="url(#filter-17)" mask="url(#mask-14)" cx="140.811026" cy="154.270904" r="127.351149"></circle>
                    </g>
                </g>
                <rect id="-" fill-opacity="0" fill="#EBEAEF" x="102.040541" y="7.5" width="1280" height="848"></rect>
            </g>
        </g>
    </g>
</svg>