<?xml version="1.0" encoding="UTF-8"?>
<svg width="32px" height="33px" viewBox="0 0 32 33" version="1.1" xmlns="http://www.w3.org/2000/svg" xmlns:xlink="http://www.w3.org/1999/xlink">
    <title>BCH</title>
    <g id="3.0" stroke="none" stroke-width="1" fill="none" fill-rule="evenodd">
        <g id="002赎回BTC请求成功" transform="translate(-951.000000, -261.000000)" fill-rule="nonzero">
            <g id="BCH" transform="translate(951.000000, 261.200000)">
                <path d="M0,16.0000186 L0,16.000021 C0,24.8365938 7.16344584,32.0000397 16.0000186,32.0000397 C24.8365914,32.0000397 32.0000372,24.8365938 32.0000372,16.000021 L32.0000372,16.000021 C32.0000372,7.16344825 24.8365914,2.41593406e-06 16.0000186,2.41593406e-06 C7.16344584,2.41593406e-06 0,7.16344825 0,16.000021 L0,16.0000186 Z" id="路径" fill="#1DC7C2"></path>
                <path d="M21.1555871,10.1333555 C21.5111438,11.5555791 21.3333651,12.6222459 20.2666986,13.5111407 C21.1555871,13.5111407 22.0444788,13.8666974 22.5778138,14.222254 C23.1111488,14.755589 23.4667023,15.4666992 23.6444806,16.5333692 L23.6444806,18.1333711 C23.4667026,18.6667061 23.288924,19.0222596 23.1111456,19.3778163 C22.9333676,19.733373 22.5778106,20.0889296 22.0444788,20.2667048 C21.6889221,20.6222615 21.1555902,20.8000398 20.8000336,20.9778182 L19.2000317,21.5111532 L19.911145,24.5333785 L18.1333649,24.8889352 L17.6000299,22.0444882 C17.0666949,22.2222662 16.533363,22.2222662 16.1778063,22.4000448 L16.7111413,25.2444919 L14.9333611,25.6000485 L14.2222478,22.5778231 C14.0444698,22.5778231 13.8666911,22.7556012 13.6889128,22.7556012 C13.3333561,22.9333792 13.1555778,22.9333792 12.9777995,22.9333792 L10.6666843,23.4667142 L10.4889063,21.3333773 L11.7333515,20.9778207 C12.0889081,20.9778207 12.2666865,20.622264 12.2666865,20.2667073 L11.2000196,15.4667017 L11.2000196,15.4667017 L10.4889063,12.0889166 C10.3111282,11.5555816 9.95557127,11.3778032 9.24446107,11.5555816 L8.00001587,11.9111382 L7.64445921,9.95557971 L10.1333496,9.42224471 C10.6666846,9.24446669 11.0222381,9.24446669 11.2000165,9.24446669 L10.6666815,6.2222413 L12.4444617,5.86668464 L12.9777967,8.7111317 C13.68891,8.53335368 14.0444635,8.53335368 14.4000202,8.35557504 L13.8666852,5.51112798 L15.6444592,5.15557131 L16.1778004,8.00001837 C16.7111354,8.00001837 17.4222456,7.82224035 17.7778022,8.00001837 C18.3111372,8.00001837 18.6666908,8.17779639 19.2000258,8.17779639 C19.7333608,8.35557441 20.0889143,8.53335305 20.2666926,8.88890972 C20.8000276,9.24446638 20.977806,9.77779825 21.1555812,10.1333549 L21.1555871,10.1333555 Z M19.9111419,16.8889259 C19.9111419,16.5333692 19.7333639,16.3555909 19.5555853,16.1778126 C19.3778072,16.0000346 19.2000286,15.8222559 19.0222503,15.8222559 C18.8444722,15.6444779 18.4889153,15.6444779 18.3111369,15.6444779 L15.8222465,15.6444779 C15.6444685,15.6444779 15.4666899,15.8222559 15.1111332,15.8222559 C14.7555765,16.0000339 14.5777982,16.0000339 14.5777982,16.0000339 L15.4666867,19.9111635 L16.3555753,19.9111635 C16.5333533,19.9111635 16.7111319,19.9111635 16.8889103,19.7333855 C17.2444669,19.5556074 17.4222453,19.5556074 17.6000236,19.5556074 C17.7778016,19.5556074 17.9555803,19.3778294 18.3111369,19.3778294 C18.488915,19.2000514 18.6666936,19.2000514 18.8444719,19.0222728 C19.0222499,18.8444947 19.2000286,18.8444947 19.3778069,18.6667161 L19.7333636,18.3111594 C19.7333636,18.1333814 19.9111416,17.9556028 19.9111416,17.7778244 C20.0889196,17.4222678 20.0889196,17.2444894 19.9111416,16.8889359 L19.9111419,16.8889259 Z M17.9555834,11.5555759 C17.9555834,11.3777979 17.7778054,11.022241 17.6000267,10.8444626 L17.2444701,10.488906 C17.066692,10.488906 16.8889134,10.3111279 16.5333567,10.3111279 L15.1111332,10.3111279 C14.7555765,10.3111279 14.5777982,10.3111279 14.4000199,10.488906 C14.2222419,10.488906 14.0444632,10.488906 13.6889066,10.666684 L13.5111285,10.666684 L14.2222419,14.2222506 L15.1111304,14.2222506 C15.2889084,14.2222506 15.4666871,14.0444726 15.6444654,14.0444726 C15.8222434,14.0444726 16.1778004,13.8666946 16.3555787,13.8666946 C16.5333567,13.6889166 16.7111354,13.6889166 16.8889137,13.6889166 C17.0666917,13.6889166 17.2444704,13.5111385 17.4222487,13.3333599 C17.6000267,13.1555819 17.6000267,12.9778032 17.7778054,12.8000249 C17.9555834,12.6222469 17.9555834,12.4444682 17.9555834,12.2666899 L17.9555834,11.5555766 L17.9555834,11.5555759 Z" id="形状" fill="#FFFFFF"></path>
            </g>
        </g>
    </g>
</svg>