<?xml version="1.0" encoding="UTF-8"?>
<svg width="20px" height="21px" viewBox="0 0 20 21" version="1.1" xmlns="http://www.w3.org/2000/svg" xmlns:xlink="http://www.w3.org/1999/xlink">
    <title>BCH_s</title>
    <g id="3.0" stroke="none" stroke-width="1" fill="none" fill-rule="evenodd">
        <g id="002赎回BTC请求成功" transform="translate(-957.000000, -423.000000)" fill-rule="nonzero">
            <g id="BCH_s" transform="translate(957.000000, 423.700000)">
                <path d="M0,10.0000116 L0,10.0000131 C0,15.5228711 4.47715365,20.0000248 10.0000116,20.0000248 C15.5228696,20.0000248 20.0000233,15.5228711 20.0000233,10.0000131 L20.0000233,10.0000131 C20.0000233,4.47715516 15.5228696,1.50995879e-06 10.0000116,1.50995879e-06 C4.47715365,1.50995879e-06 0,4.47715516 0,10.0000131 L0,10.0000116 Z" id="路径" fill="#1DC7C2"></path>
                <path d="M13.2222419,6.33334721 C13.4444649,7.22223207 13.3333532,7.88890371 12.6666866,8.44446295 C13.2222419,8.44446295 13.7777992,8.66668587 14.1111336,8.88890878 C14.444468,9.22224315 14.6666889,9.66668703 14.7778004,10.3333558 L14.7778004,11.3333569 C14.6666891,11.6666913 14.5555775,11.8889123 14.444466,12.1111352 C14.3333548,12.3333581 14.1111317,12.555581 13.7777992,12.6666905 C13.5555763,12.8889134 13.2222439,13.0000249 13.000021,13.1111364 L12.0000198,13.4444707 L12.4444657,15.3333616 L11.333353,15.5555845 L11.0000187,13.7778051 C10.6666843,13.8889164 10.3333519,13.8889164 10.111129,14.000028 L10.4444633,15.7778074 L9.3333507,16.0000303 L8.88890487,14.1111395 C8.777787,14.1111395 8.66668196,14.2222507 8.5555705,14.2222507 C8.33334759,14.333362 8.22223613,14.333362 8.11112467,14.333362 L6.66667768,14.6666964 L6.55556642,13.3333608 L7.33334467,13.1111379 C7.55556758,13.1111379 7.66667904,12.888915 7.66667904,12.6666921 L7.00001225,9.66668859 L7.00001225,9.66668859 L6.55556642,7.55557285 C6.44445516,7.22223207 6.22223205,7.11112702 5.777787,7.22223207 L5.00000992,7.4444614 L4.777787,6.22223207 L6.3333435,5.88890295 C6.66667787,5.77779168 6.88889884,5.77779168 7.00001029,5.77779168 L6.66667592,3.88890081 L7.777787,3.6666779 L8.11112291,5.44445731 C8.55556874,5.33334605 8.777787,5.33334605 9.00001262,5.22223207 L8.66667825,3.44445498 L9.777787,3.22223207 L10.1111252,5.00001148 C10.4444596,5.00001148 10.8889035,4.88890022 11.1111264,5.00001148 C11.4444608,5.00001148 11.6666817,5.11112274 12.0000161,5.11112274 C12.3333505,5.22223207 12.5555714,5.33334566 12.6666829,5.55556857 C13.0000173,5.77779149 13.1111287,6.11112391 13.2222382,6.33334682 L13.2222419,6.33334721 Z M12.4444637,10.5555787 C12.4444637,10.3333558 12.3333524,10.2222443 12.2222408,10.1111329 C12.1111239,10.0000216 12.0000179,9.88890994 11.8889064,9.88890994 C11.7777952,9.77779868 11.555572,9.77779868 11.4444606,9.77779868 L9.88890409,9.77779868 C9.77779282,9.77779868 9.66668117,9.88890994 9.44445826,9.88890994 C9.22223534,10.0000212 9.11112388,10.0000212 9.11112388,10.0000212 L9.66667922,12.4444772 L10.2222346,12.4444772 C10.3333458,12.4444772 10.4444575,12.4444772 10.5555689,12.3333659 C10.7777918,12.2222547 10.8889033,12.2222547 11.0000148,12.2222547 C11.1111239,12.2222547 11.2222377,12.1111434 11.4444606,12.1111434 C11.5555718,12.0000321 11.6666835,12.0000321 11.777795,11.8889205 C11.8889062,11.7778092 12.0000179,11.7778092 12.1111239,11.6666976 L12.3333522,11.4444746 C12.3333522,11.3333634 12.4444635,11.2222517 12.4444635,11.1111403 C12.5555748,10.8889174 12.5555748,10.7777987 12.4444635,10.5555849 L12.4444637,10.5555787 Z M11.2222396,7.22223497 C11.2222396,7.1111237 11.1111284,6.88890059 11.0000167,6.77778914 L10.7777938,6.55556622 C10.6666825,6.55556622 10.5555709,6.44445496 10.333348,6.44445496 L9.44445533,6.44445496 C9.22223534,6.44445496 9.11112388,6.44445496 9.00001243,6.55556622 C8.88890116,6.55556622 8.77778951,6.55556622 8.5555666,6.66667748 L8.44445533,6.66667748 L8.88890116,8.88890663 L9.44445533,8.88890663 C9.55556776,8.88890663 9.66667941,8.77779537 9.77779087,8.77779537 C9.88890213,8.77779537 10.1111252,8.66668411 10.2222367,8.66668411 C10.333348,8.55557285 10.4444553,8.55557285 10.5555711,8.55557285 C10.6666823,8.55557285 10.777794,8.44445496 10.8889054,8.33334993 C11.0000167,8.22223867 11.0000167,8.11112702 11.1111284,8.00001556 C11.2222396,7.8889043 11.2222396,7.77779264 11.2222396,7.66668119 L11.2222396,7.22223536 L11.2222396,7.22223497 Z" id="形状" fill="#FFFFFF"></path>
            </g>
        </g>
    </g>
</svg>