<?xml version="1.0" encoding="UTF-8"?>
<svg width="32px" height="32px" viewBox="0 0 32 32" version="1.1" xmlns="http://www.w3.org/2000/svg" xmlns:xlink="http://www.w3.org/1999/xlink">
    <title>BTC</title>
    <g id="3.0" stroke="none" stroke-width="1" fill="none" fill-rule="evenodd">
        <g id="002赎回BTC请求成功" transform="translate(-941.000000, -208.000000)" fill-rule="nonzero">
            <g id="BTC" transform="translate(941.000000, 208.000000)">
                <path d="M2.07575151e-14,16.0000228 C2.07575151e-14,24.746683 7.22375705,32.0000456 15.9347166,32.0000456 C24.6456761,32.0000456 31.8694331,24.746683 31.8694331,16.0000228 C31.8694331,7.25336261 24.6456761,2.08425869e-14 15.9347166,2.08425869e-14 C7.22375705,2.08425869e-14 2.07575151e-14,7.25336261 2.07575151e-14,16.0000228 Z" id="路径" fill="#F7931A"></path>
                <path d="M23.1584736,14.0800164 C23.3709362,11.9466785 21.8836954,10.8800118 19.7590695,10.0266767 L20.3964564,7.25333969 L18.6967521,6.82667257 L17.8468999,9.60000955 C17.4219743,9.38667621 16.9970477,9.38667621 16.5721217,9.17334242 L17.2095085,6.40000545 L15.5098042,5.97333833 L14.8724173,8.7466753 C14.4474917,8.7466753 14.0225652,8.7466753 13.8101044,8.53334197 L11.2605525,7.89334289 L10.8356269,9.81334471 L12.1104051,10.026678 C12.747792,10.2400114 12.9602573,10.6666771 12.9602573,11.0933447 L12.1104051,14.2933493 L12.3228677,14.2933493 L12.1104051,14.2933493 L11.0480922,18.9866881 C10.8356296,19.2000214 10.6231666,19.4133552 10.1982401,19.4133552 L8.92346182,19.2000218 L8.07360966,20.9066922 L10.4107008,21.5466912 C10.8356264,21.5466912 11.260553,21.7600246 11.6854791,21.7600246 L11.0480922,24.5333615 L12.7477965,24.9600287 L13.3851834,22.1866917 C13.810109,22.400025 14.2350355,22.400025 14.6599616,22.6133588 L14.0225748,25.6000273 L15.7222791,26.0266944 L16.3596659,23.2533574 C19.3341439,23.8933565 21.4587698,23.6800246 22.5210964,20.906688 C23.3709485,18.7733501 22.5210964,17.493352 21.0338574,16.6400168 C22.0961703,16.2133497 22.9460224,15.5733502 23.1584878,14.0800159 L23.1584736,14.0800164 Z M19.1216781,19.6266812 C18.6967525,21.7600191 15.0848827,20.6933478 13.8100907,20.2666802 L14.8724037,16.4266766 C15.9347166,16.6400099 19.7590695,17.2800118 19.1216599,19.6266812 L19.1216781,19.6266812 Z M19.759065,14.0800164 C19.1216781,16.0000182 16.1471956,14.9333515 15.2973434,14.7200155 L16.1471956,11.3066794 C16.9970477,11.5200127 20.1839911,11.9466785 19.759065,14.0800164 Z" id="形状" fill="#FFFFFF"></path>
            </g>
        </g>
    </g>
</svg>