<?xml version="1.0" encoding="UTF-8"?>
<svg width="20px" height="21px" viewBox="0 0 20 21" version="1.1" xmlns="http://www.w3.org/2000/svg" xmlns:xlink="http://www.w3.org/1999/xlink">
    <title>BTC_S</title>
    <g id="3.0" stroke="none" stroke-width="1" fill="none" fill-rule="evenodd">
        <g id="002赎回BTC请求成功" transform="translate(-947.000000, -370.000000)" fill-rule="nonzero">
            <g id="BTC_S" transform="translate(947.000000, 370.500000)">
                <path d="M1.2973447e-14,10.0000142 C1.2973447e-14,15.4666769 4.51484815,20.0000285 9.95919786,20.0000285 C15.4035476,20.0000285 19.9183957,15.4666769 19.9183957,10.0000142 C19.9183957,4.53335163 15.4035476,1.30266168e-14 9.95919786,1.30266168e-14 C4.51484815,1.30266168e-14 1.2973447e-14,4.53335163 1.2973447e-14,10.0000142 Z" id="路径" fill="#F7931A"></path>
                <path d="M14.474046,8.80001024 C14.6068351,7.46667405 13.6773096,6.80000739 12.3494185,6.26667292 L12.7477852,4.53333731 L11.68547,4.26667036 L11.1543124,6.00000597 C10.8887339,5.86667263 10.6231548,5.86667263 10.357576,5.73333645 L10.7559428,4.0000034 L9.69362761,3.73333645 L9.29526084,5.46667206 C9.02968233,5.46667206 8.76410324,5.46667206 8.63131527,5.33333873 L7.03784532,4.93333931 L6.77226681,6.13334044 L7.56900321,6.26667378 C7.96736998,6.40000711 8.10016081,6.6666732 8.10016081,6.93334044 L7.56900321,8.93334329 L7.70179232,8.93334329 L7.56900321,8.93334329 L6.90505764,11.86668 C6.77226852,12.0000134 6.63947912,12.133347 6.37390004,12.133347 L5.57716364,12.0000137 L5.04600604,13.0666826 L6.50668801,13.466682 C6.77226652,13.466682 7.03784561,13.6000154 7.30342441,13.6000154 L6.90505764,15.333351 L7.96737283,15.6000179 L8.36573961,13.8666823 C8.63131812,14.0000156 8.89689721,14.0000156 9.16247601,14.1333493 L8.76410923,16.0000171 L9.82642443,16.266684 L10.2247912,14.5333484 C12.08384,14.9333478 13.4117311,14.8000153 14.0756852,13.06668 C14.6068428,11.7333365 14.0756852,10.933345 13.1461609,10.4000105 C13.8101064,10.1333436 14.341264,9.73333645 14.4740549,8.80000995 L14.474046,8.80001024 Z M11.9510488,12.2666729 C11.6854703,13.6000119 9.42805167,12.9333424 8.63130671,12.6666752 L9.29525228,10.2666729 C9.95919786,10.4000062 12.3494185,10.8000074 11.9510374,12.2666729 L11.9510488,12.2666729 Z M12.3494156,8.80001024 C11.9510488,10.0000114 10.0919972,9.33334471 9.56083964,9.20000966 L10.0919972,7.06667463 C10.6231548,7.20000796 12.6149944,7.46667405 12.3494156,8.80001024 Z" id="形状" fill="#FFFFFF"></path>
            </g>
        </g>
    </g>
</svg>