<?xml version="1.0" encoding="UTF-8"?>
<svg width="17px" height="16px" viewBox="0 0 17 16" version="1.1" xmlns="http://www.w3.org/2000/svg" xmlns:xlink="http://www.w3.org/1999/xlink">
    <title>cancel</title>
    <g id="3.0" stroke="none" stroke-width="1" fill="none" fill-rule="evenodd">
        <g id="005资产保险库" transform="translate(-1234.000000, -765.000000)">
            <g id="编组-6" transform="translate(110.000000, 513.000000)">
                <g id="编组-10" transform="translate(1084.000000, 252.000000)">
                    <g id="cancel" transform="translate(40.500000, 0.000000)">
                        <rect id="矩形" fill="#D8D8D8" opacity="0" x="0" y="0" width="16" height="16"></rect>
                        <g id="7.Icon/suggested/7.check-circle/outline" transform="translate(2.000000, 1.000000)" fill="#000000" fill-rule="nonzero">
                            <g id="取消" transform="translate(0.000000, 0.500000)">
                                <path d="M8.90672918,2.2515424 C8.90672918,2.83564861 8.44519455,3.30853335 7.87546284,3.30853335 L3.74888661,3.30853335 C3.17915623,3.30853335 2.71686484,2.83564861 2.71686484,2.2515424 L1.16958495,2.2515424 L1.16958495,11.7652163 L10.4547539,11.7652163 L10.4547539,2.2515424 L8.90747398,2.2515424 L8.90672918,2.2515424 Z M8.90672918,1.19455146 L10.4547672,1.19455146 C10.728662,1.19455146 10.9912066,1.30577386 11.1849006,1.50476287 C11.3778378,1.70223929 11.4867903,1.97159351 11.4867903,2.25154107 L11.4867903,11.765215 C11.4867903,12.3485644 11.0252556,12.8222059 10.4547685,12.8222059 L1.16959958,12.8222059 C0.599112439,12.8222059 0.137577806,12.3485658 0.137577806,11.765215 L0.137577806,2.25154107 C0.137577806,1.97159351 0.246530313,1.70223929 0.440224252,1.50400611 C0.633161427,1.30577292 0.895706115,1.19455013 1.16960091,1.19455013 L2.7168808,1.19455013 C2.71763741,0.610443925 3.17917219,0.137559186 3.74890257,0.137559186 L7.8754788,0.137559186 C8.1493736,0.137559186 8.41191828,0.248781582 8.60561222,0.447770596 C8.7985494,0.645247016 8.90750191,0.914601236 8.90750191,1.1945488 L8.90672918,1.19455146 Z M3.74888129,1.19455146 L3.74888129,2.2515424 L7.87545752,2.2515424 L7.87545752,1.19455146 L3.74888129,1.19455146 Z M5.882539,6.81695039 L7.10522766,5.56399655 L7.10522768,5.56399654 C7.26826143,5.39496986 7.53745074,5.39011142 7.70647741,5.55314568 C7.71015935,5.55669708 7.7137769,5.56031463 7.71732829,5.56399657 C7.88605306,5.73650515 7.88605306,6.0179649 7.71732829,6.19047349 L6.49388287,7.44342732 L7.71732829,8.69638116 C7.88605306,8.87040194 7.88605306,9.1503495 7.71732829,9.32361485 L7.71732831,9.32361483 C7.55429455,9.49264151 7.28510525,9.49749995 7.11607857,9.33446574 C7.11239664,9.33091434 7.10877909,9.32729679 7.10522769,9.32361486 L5.88253903,8.06990426 L4.6590936,9.32361486 L4.6590936,9.32361486 C4.55121625,9.43516125 4.39121433,9.47921931 4.24144188,9.43862027 L4.24144185,9.43862027 C4.0908448,9.39595829 3.97437122,9.27631402 3.93576969,9.12462505 L3.93576965,9.12462492 C3.89564861,8.97211668 3.93811035,8.80972929 4.04774868,8.69638118 L5.27119411,7.44342734 L4.04774868,6.1904735 L4.04774866,6.19047348 C3.87901591,6.01573185 3.87901591,5.73873819 4.0477487,5.56399656 L4.04774867,5.56399659 C4.21099922,5.39517872 4.48019384,5.39066475 4.64901304,5.55391568 C4.65242943,5.55721939 4.65579018,5.56058016 4.65909391,5.56399654 L5.88253933,6.81695038 L5.882539,6.81695039 Z" id="形状"></path>
                            </g>
                        </g>
                    </g>
                </g>
            </g>
        </g>
    </g>
</svg>