<?xml version="1.0" encoding="UTF-8"?>
<svg width="72px" height="72px" viewBox="0 0 72 72" version="1.1" xmlns="http://www.w3.org/2000/svg" xmlns:xlink="http://www.w3.org/1999/xlink">
    <title>complete</title>
    <g id="3.0" stroke="none" stroke-width="1" fill="none" fill-rule="evenodd">
        <g id="002赎回——成功/进行中" transform="translate(-343.000000, -187.000000)" fill="#73D13D">
            <g id="编组-6" transform="translate(129.000000, 129.000000)">
                <g id="complete" transform="translate(214.000000, 58.000000)">
                    <path d="M36,0 C16.1196429,0 0,16.1196429 0,36 C0,55.8803571 16.1196429,72 36,72 C55.8803571,72 72,55.8803571 72,36 C72,16.1196429 55.8803571,0 36,0 Z M51.5491071,24.24375 L34.6258929,47.7080357 C34.146012,48.3778214 33.3726137,48.7751198 32.5486607,48.7751198 C31.7247077,48.7751198 30.9513095,48.3778214 30.4714286,47.7080357 L20.4508929,33.8223214 C20.1455357,33.3964286 20.4508929,32.8017857 20.9732143,32.8017857 L24.7419643,32.8017857 C25.5616071,32.8017857 26.3410714,33.1955357 26.8232143,33.8705357 L32.5446429,41.8098214 L45.1767857,24.2919643 C45.6589286,23.625 46.4303571,23.2232143 47.2580357,23.2232143 L51.0267857,23.2232143 C51.5491071,23.2232143 51.8544643,23.8178571 51.5491071,24.24375 Z" id="形状"></path>
                </g>
            </g>
        </g>
    </g>
</svg>