<?xml version="1.0" encoding="UTF-8"?>
<svg width="16px" height="16px" viewBox="0 0 16 16" version="1.1" xmlns="http://www.w3.org/2000/svg" xmlns:xlink="http://www.w3.org/1999/xlink">
    <title>COPY</title>
    <g id="3.0" stroke="none" stroke-width="1" fill="none" fill-rule="evenodd">
        <g id="001发行请求成功" transform="translate(-814.000000, -363.000000)">
            <g id="编组-15" transform="translate(430.000000, 307.000000)">
                <g id="COPY" transform="translate(384.000000, 56.000000)">
                    <rect id="矩形" stroke="#979797" fill="#D8D8D8" opacity="0" x="0.5" y="0.5" width="15" height="15"></rect>
                    <g id="7.Icon/interface/9.file-copy/outline" transform="translate(2.000000, 1.000000)" fill="#EFB40D">
                        <path d="M11,0 L2.625,0 C2.55625,0 2.5,0.05625 2.5,0.125 L2.5,1 C2.5,1.06875 2.55625,1.125 2.625,1.125 L10.375,1.125 L10.375,11.875 C10.375,11.94375 10.43125,12 10.5,12 L11.375,12 C11.44375,12 11.5,11.94375 11.5,11.875 L11.5,0.5 C11.5,0.2234375 11.2765625,0 11,0 Z M9,2 L1,2 C0.7234375,2 0.5,2.2234375 0.5,2.5 L0.5,10.7921875 C0.5,10.925 0.553125,11.0515625 0.646875,11.1453125 L3.3546875,13.853125 C3.3890625,13.8875 3.428125,13.915625 3.4703125,13.9390625 L3.4703125,13.96875 L3.5359375,13.96875 C3.590625,13.9890625 3.6484375,14 3.7078125,14 L9,14 C9.2765625,14 9.5,13.7765625 9.5,13.5 L9.5,2.5 C9.5,2.2234375 9.2765625,2 9,2 Z M3.46875,12.378125 L2.1234375,11.03125 L3.46875,11.03125 L3.46875,12.378125 Z M8.375,12.875 L4.46875,12.875 L4.46875,10.65625 C4.46875,10.3109375 4.1890625,10.03125 3.84375,10.03125 L1.625,10.03125 L1.625,3.125 L8.375,3.125 L8.375,12.875 Z" id="fill"></path>
                    </g>
                </g>
            </g>
        </g>
    </g>
</svg>