<?xml version="1.0" encoding="UTF-8"?>
<svg width="72px" height="72px" viewBox="0 0 72 72" version="1.1" xmlns="http://www.w3.org/2000/svg" xmlns:xlink="http://www.w3.org/1999/xlink">
    <title>failure</title>
    <g id="3.0" stroke="none" stroke-width="1" fill="none" fill-rule="evenodd">
        <g id="001发行——成功/失败" transform="translate(-840.000000, -112.000000)" fill="#F5222D">
            <g id="编组-11" transform="translate(666.000000, 64.000000)">
                <g id="编组-6" transform="translate(68.000000, 48.000000)">
                    <g id="failure" transform="translate(106.000000, 0.000000)">
                        <path d="M36,0 C16.1196429,0 0,16.1196429 0,36 C0,55.8803571 16.1196429,72 36,72 C55.8803571,72 72,55.8803571 72,36 C72,16.1196429 55.8803571,0 36,0 Z M32,18.6428571 C32,18.2892857 32.405,18 32.9,18 L38.3,18 C38.795,18 39.2,18.2892857 39.2,18.6428571 L39.2,40.5 C39.2,40.8535714 38.795,41.1428571 38.3,41.1428571 L32.9,41.1428571 C32.405,41.1428571 32,40.8535714 32,40.5 L32,18.6428571 Z M36,54 C33.7777771,53.9555533 32,52.1777762 32,50 C32,47.8222238 33.7777771,46.0444467 36,46 C38.2222229,46.0444467 40,47.8222238 40,50 C40,52.1777762 38.2222229,53.9555533 36,54 L36,54 Z" id="形状"></path>
                    </g>
                </g>
            </g>
        </g>
    </g>
</svg>