<?xml version="1.0" encoding="UTF-8"?>
<svg width="20px" height="20px" viewBox="0 0 20 20" version="1.1" xmlns="http://www.w3.org/2000/svg" xmlns:xlink="http://www.w3.org/1999/xlink">
    <title>history</title>
    <g id="3.0" stroke="none" stroke-width="1" fill="none" fill-rule="evenodd">
        <g id="005资产保险库" transform="translate(-50.000000, -193.000000)">
            <g id="编组-9" transform="translate(40.000000, 143.000000)">
                <g id="编组-4" transform="translate(0.000000, 40.000000)">
                    <g id="history" transform="translate(10.000000, 10.000000)">
                        <rect id="矩形" stroke="#979797" fill="#D8D8D8" opacity="0" x="0.5" y="0.5" width="19" height="19"></rect>
                        <g id="7.Icon/interface/8.file-text/fill" transform="translate(4.000000, 3.000000)" fill="#000000" fill-rule="nonzero" opacity="0.65">
                            <path d="M11.353125,3.5109375 C11.446875,3.6046875 11.5,3.73125 11.5,3.8640625 L11.5,13.5 C11.5,13.7765625 11.2765625,14 11,14 L1,14 C0.7234375,14 0.5,13.7765625 0.5,13.5 L0.5,0.5 C0.5,0.2234375 0.7234375,0 1,0 L7.6359375,0 C7.76875,0 7.896875,0.053125 7.990625,0.146875 L11.353125,3.5109375 Z M10.346875,4.09375 L7.40625,1.153125 L7.40625,4.09375 L10.346875,4.09375 Z M3,6.53125 C2.93096441,6.53125 2.875,6.58721441 2.875,6.65625 L2.875,7.40625 C2.875,7.47528559 2.93096441,7.53125 3,7.53125 L9,7.53125 C9.06903559,7.53125 9.125,7.47528559 9.125,7.40625 L9.125,6.65625 C9.125,6.58721441 9.06903559,6.53125 9,6.53125 L3,6.53125 Z M3,8.65625 C2.93096441,8.65625 2.875,8.71221441 2.875,8.78125 L2.875,9.53125 C2.875,9.60028559 2.93096441,9.65625 3,9.65625 L5.875,9.65625 C5.94403559,9.65625 6,9.60028559 6,9.53125 L6,8.78125 C6,8.71221441 5.94403559,8.65625 5.875,8.65625 L3,8.65625 Z" id="fill"></path>
                        </g>
                    </g>
                </g>
            </g>
        </g>
    </g>
</svg>