<?xml version="1.0" encoding="UTF-8"?>
<svg width="81px" height="77px" viewBox="0 0 81 77" version="1.1" xmlns="http://www.w3.org/2000/svg" xmlns:xlink="http://www.w3.org/1999/xlink">
    <title>history_NONE</title>
    <g id="3.0" stroke="none" stroke-width="1" fill="none" fill-rule="evenodd">
        <g id="002-赎回_标注2" transform="translate(-205.000000, -381.000000)">
            <g id="编组-5" transform="translate(205.000000, 381.000000)">
                <g id="history_NONE" transform="translate(0.000000, 0.600000)">
                    <g id="编组-23">
                        <rect id="矩形" fill="#F9E3BD" transform="translate(30.800000, 36.817952) rotate(-8.000000) translate(-30.800000, -36.817952) " x="4.9" y="4.6179515" width="51.8" height="64.4" rx="4.2"></rect>
                        <rect id="矩形" stroke-opacity="0.221454327" stroke="#F6C94A" stroke-width="0.7" fill="#FEFEFE" x="9.98343087" y="0.35" width="51.1" height="63.7" rx="4.2"></rect>
                        <g id="放大镜" transform="translate(57.747336, 52.400000) rotate(-45.000000) translate(-57.747336, -52.400000) translate(43.747336, 33.900000)" fill="#F6C94A" fill-rule="nonzero">
                            <path d="M10.4469063,35.1217729 L12.407232,27.8057376 C20.1387983,28.7372252 27.0033803,22.9754947 27.8398905,15.5985717 C28.711177,8.8010322 24.3678003,2.31644801 17.6304786,0.511163633 C10.1840028,-1.48411354 2.5406059,2.9288037 0.545328722,10.3752795 C-1.25993895,17.1126302 2.05442455,23.8915074 8.50670143,26.7605936 L6.54637567,34.0766289 C6.26134307,35.1403851 6.91031279,36.2644336 7.97406896,36.5494662 C8.813027,36.9642861 9.93707553,36.3153164 10.4469063,35.1217729 Z M11.1139698,24.1167925 C8.44174724,23.4007726 6.03803499,21.6826585 4.57089871,19.1415039 C3.10376242,16.6003493 2.81768809,13.6596164 3.53370797,10.9873938 C5.05524734,5.30893161 10.9846444,1.88559262 16.6631066,3.40713199 C22.3415689,4.92867136 25.7649079,10.8580684 24.2433685,16.5365307 C22.7218291,22.2149929 16.7924321,25.6383319 11.1139698,24.1167925 Z" id="形状"></path>
                        </g>
                    </g>
                    <rect id="矩形" fill="#F9EACF" x="18.0334309" y="9.8" width="35" height="2.8"></rect>
                    <rect id="矩形" fill="#F9EACF" x="18.0334309" y="19.6" width="35" height="2.8"></rect>
                    <polygon id="矩形" fill="#F9EACF" points="18.0334309 29.4 29.2334309 29.4 29.2334309 32.2 18.0334309 32.2"></polygon>
                </g>
            </g>
        </g>
    </g>
</svg>