<?xml version="1.0" encoding="UTF-8"?>
<svg width="16px" height="18px" viewBox="0 0 16 18" version="1.1" xmlns="http://www.w3.org/2000/svg" xmlns:xlink="http://www.w3.org/1999/xlink">
    <title>Language</title>
    <g id="3.0" stroke="none" stroke-width="1" fill="none" fill-rule="evenodd">
        <g id="001发行" transform="translate(-1176.000000, -30.000000)" fill="#555555" fill-rule="nonzero">
            <g id="编组-7" transform="translate(0.000000, -1.000000)">
                <g id="编组-8" transform="translate(1156.000000, 24.000000)">
                    <g id="编组" transform="translate(20.000000, 4.500000)">
                        <g id="Language" transform="translate(0.000000, 3.500000)">
                            <path d="M7.80726571,9.98681218e-06 L7.80726585,9.98681218e-06 C3.49921792,-0.00310208351 0.00423908653,3.48664868 0.00101954586,7.79471187 C-0.00192112072,11.7328433 2.93101645,15.0555045 6.8390636,15.5413668 L6.83906332,15.5413667 C7.10130452,15.5926935 7.36812775,15.6169204 7.63532303,15.6136653 L7.63532304,15.6136653 C7.72080974,15.6139545 7.80624855,15.6095885 7.89129884,15.6009642 L7.89129894,15.6009642 C12.1993469,15.577761 15.6729023,12.0665845 15.6498255,7.75853657 C15.6265069,3.45048863 12.1153304,-0.023066757 7.80728246,9.98681218e-06 L7.80726571,9.98681218e-06 Z M6.64365119,14.3865442 L6.64365047,14.3865442 C3.00387663,13.7433332 0.574702499,10.2712919 1.21790888,6.63153331 C1.23028937,6.56147515 1.24378626,6.49161888 1.25839415,6.42199072 L1.2583942,6.42199077 C1.52980098,6.70372654 1.97821264,6.71209921 2.25994841,6.44069229 C2.31405456,6.38856974 2.35952395,6.32817135 2.39465198,6.26176158 C2.68775361,6.43860026 3.09125839,6.47084063 3.09125839,6.82549386 C3.09125839,7.99790191 3.13326968,9.24651031 4.19527611,9.26800999 L4.19527602,9.26800996 C4.5990888,9.43175518 4.91250992,9.76191707 5.05504212,10.1736954 C5.14785776,10.414039 5.51325824,10.1736954 5.91480822,10.1736954 C6.11020982,10.1736954 5.91480822,10.511739 5.91480822,11.2405873 C5.91480822,11.9694341 7.47801794,13.0871353 7.47801794,13.0871353 L7.47801757,13.0871514 C7.46899469,13.4803729 7.48727649,13.8737469 7.5327312,14.2644372 L7.5327312,14.2644372 C7.23266265,14.2537704 6.93297541,14.2944116 6.64658595,14.384609 L6.64365119,14.3865442 Z M9.45059452,14.2820046 C9.41542226,14.1120061 9.26398644,14.01919 8.98651706,14.0914884 C9.2082977,13.1506304 9.31479125,12.6259788 9.77593804,12.2244318 L9.77593808,12.2244318 C10.0693325,12.0443453 10.161188,11.660512 9.98109992,11.3671161 C9.84827398,11.150718 9.59746329,11.036515 9.34703166,11.0784028 C8.94645908,11.1389772 9.2004807,10.5830608 8.84191879,10.5527737 C8.4833575,10.5224865 8.01928004,9.81220278 7.50439625,9.56795116 C7.23181081,9.43800923 6.96508822,9.09117213 6.54399945,9.07944794 C6.1717607,9.06479284 5.6265898,9.39404468 5.6265898,9.1400223 L5.62658981,9.1400227 C5.62217937,8.59386069 5.58956904,8.0482903 5.52888916,7.5054981 C5.51423407,7.31889002 5.40578626,7.44296971 5.90992143,7.45469374 C6.18348275,7.46250979 6.04963337,6.90366152 6.32124081,6.88314533 C6.59284886,6.86262824 7.22204081,7.13228241 7.38422463,7.0248113 C7.54640846,6.91734065 8.48921975,9.5288836 8.48921975,7.45469359 C8.48921975,7.20848871 8.36220894,6.78055969 8.48921975,6.54803226 L8.48921955,6.54803257 C8.85444879,5.98385352 9.16710141,5.38732889 9.42323731,4.76596831 L9.4232372,4.76596827 C9.12658278,4.66966358 8.80612167,4.6762036 8.51364368,4.78453149 C8.38077078,4.82947375 8.55565497,5.03757663 8.36513868,5.07763312 C7.65094676,5.24274762 7.01980002,4.88223153 7.24060478,4.54907188 C7.46140802,4.21591223 8.29088702,4.39665882 8.36220801,3.70786869 C8.4042193,3.3170655 8.43841447,2.85396544 8.45990866,2.51298966 C9.42128286,2.6634487 9.3157667,1.26535256 7.88542806,1.11489292 L7.88542821,1.11489292 C10.7054391,1.1481572 13.2020704,2.94541532 14.1284931,5.60911894 L14.1284931,5.60911893 C14.0850515,5.56763904 14.0290045,5.54185055 13.9692414,5.53584345 C13.5374044,4.4562515 12.4880995,5.23687896 12.8437301,6.19043856 C10.936617,7.65594824 11.4251172,8.67888167 12.0513785,9.26507578 L12.0513784,9.26507568 C12.3789039,9.59623785 12.6640873,9.96674595 12.9003977,10.368116 C12.6776397,11.0178257 13.7210832,10.7589192 14.2359656,9.65587887 L14.2359656,9.6558785 C13.5745607,11.9366438 11.754994,13.6967357 9.45352186,14.2820046 L9.45059452,14.2820046 Z M14.3444249,6.77077878 C14.3512639,6.63888297 14.3541949,6.51382558 14.3493099,6.39658495 L14.3493098,6.39658495 C14.4479493,6.85806262 14.4977253,7.32864182 14.497815,7.80054303 L14.497815,7.91094675 L14.497815,7.91094675 C14.4754417,7.5276288 14.424496,7.14651571 14.3454022,6.7707806 L14.3444249,6.77077878 Z" id="形状"></path>
                        </g>
                    </g>
                </g>
            </g>
        </g>
    </g>
</svg>