<?xml version="1.0" encoding="UTF-8"?>
<svg width="16px" height="16px" viewBox="0 0 16 16" version="1.1" xmlns="http://www.w3.org/2000/svg" xmlns:xlink="http://www.w3.org/1999/xlink">
    <title>offline_pin-24px</title>
    <g id="3.0" stroke="none" stroke-width="1" fill="none" fill-rule="evenodd">
        <g id="004注册成为资产保险库1" transform="translate(-806.000000, -433.000000)">
            <g id="offline_pin-24px" transform="translate(806.000000, 433.000000)">
                <polygon id="路径" points="0 0 16 0 16 16 0 16"></polygon>
                <path d="M8,1.33333333 C4.33333333,1.33333333 1.33333333,4.33333333 1.33333333,8 C1.33333333,11.6666667 4.33333333,14.6666667 8,14.6666667 C11.6666667,14.6666667 14.6666667,11.6666667 14.6666667,8 C14.6666667,4.33333333 11.6666667,1.33333333 8,1.33333333 Z M10.6666667,12 L5.33333333,12 C4.96666667,12 4.66666667,11.7 4.66666667,11.3333333 C4.66666667,10.9666667 4.96666667,10.6666667 5.33333333,10.6666667 L10.6666667,10.6666667 C11.0333333,10.6666667 11.3333333,10.9666667 11.3333333,11.3333333 C11.3333333,11.7 11.0333333,12 10.6666667,12 Z M6.39333333,8.86 L5.13333333,7.6 C4.87333333,7.34 4.87333333,6.92666667 5.13333333,6.66666667 C5.39333333,6.40666667 5.80666667,6.40666667 6.06666667,6.66666667 L6.86666667,7.46666667 L9.93333333,4.4 C10.1933333,4.14 10.6066667,4.14 10.8666667,4.4 C11.1266667,4.66 11.1266667,5.07333333 10.8666667,5.33333333 L7.34,8.86 C7.08,9.12 6.65333333,9.12 6.39333333,8.86 Z" id="形状" fill="#F4BC1D" fill-rule="nonzero"></path>
            </g>
        </g>
    </g>
</svg>