<?xml version="1.0" encoding="UTF-8"?>
<svg width="20px" height="21px" viewBox="0 0 20 21" version="1.1" xmlns="http://www.w3.org/2000/svg" xmlns:xlink="http://www.w3.org/1999/xlink">
    <title>PCX_W</title>
    <g id="3.0" stroke="none" stroke-width="1" fill="none" fill-rule="evenodd">
        <g id="001发行_标注" transform="translate(-859.000000, -89.000000)" fill-rule="nonzero">
            <g id="编组-13" transform="translate(837.000000, 65.500000)">
                <g id="编组-22" transform="translate(0.000000, 12.000000)">
                    <g id="PCX_W" transform="translate(22.000000, 12.000000)">
                        <circle id="椭圆形" stroke="#EAEAEA" stroke-width="0.666666667" fill="#FFFFFF" cx="10" cy="10" r="9.66666667"></circle>
                        <g id="图层_1-2-2" transform="translate(4.275510, 4.377551)">
                            <path d="M6.55061029,3.24062103 L4.76953423,1.45954497 C4.73344869,1.42561616 4.67719481,1.42561616 4.64110927,1.45954497 L3.93711552,2.16728835 C3.90259506,2.20350028 3.90259506,2.26043879 3.93711552,2.29665072 L5.69663119,4.05991602 C6.13148159,4.49481079 6.13148159,5.19986746 5.69663119,5.63476223 L5.69663119,5.63476223 C5.2690173,6.04592833 4.59161507,6.0413541 4.16959281,5.62445074 L1.59359438,3.04751489 C1.17396044,2.62560063 1.16813217,1.94577379 1.58047066,1.51672688 C2.01461485,1.08271585 2.71836044,1.08271585 3.15250464,1.51672688 L3.15250464,1.51672688 L3.41497901,1.78107607 C3.45106455,1.81500487 3.50731843,1.81500487 3.54340396,1.78107607 L4.25114735,1.07239527 C4.28507615,1.03630973 4.28507615,0.980055855 4.25114735,0.943970315 L3.97648667,0.669309638 C3.08879099,-0.218143876 1.64980876,-0.218143876 0.762113075,0.669309638 L0.762113075,0.669309638 L0.762113075,0.669309638 C-0.126179799,1.55775589 -0.126179799,2.9980492 0.762113075,3.88649546 L0.762113075,3.88649546 L3.33342447,6.45874426 C3.75991536,6.88526447 4.33837874,7.12488349 4.94154868,7.12488349 C5.54471861,7.12488349 6.12318199,6.88526447 6.54967288,6.45874426 L6.54967288,6.45874426 C7.43781507,5.57002102 7.43823458,4.12986154 6.55061029,3.24062103 Z" id="路径" fill="#EA754B"></path>
                            <path d="M10.6761449,0.666497412 C9.78844922,-0.220956101 8.349467,-0.220956101 7.46177131,0.666497412 L7.46177131,0.666497412 L5.71819158,2.40913973 L6.55061029,3.24155844 L6.55061029,3.24155844 L8.29606484,1.49985353 C8.72369858,1.0727375 9.41661017,1.0731572 9.8437262,1.50079094 C10.2708422,1.92842468 10.2704225,2.62133627 9.84278879,3.0484523 L9.56906552,3.32217557 C9.53513672,3.35826111 9.53513672,3.41451499 9.56906552,3.45060053 L10.2768089,4.15928132 C10.3128944,4.19321012 10.3691483,4.19321012 10.4052339,4.15928132 L10.6789571,3.88462064 C11.56725,2.99617439 11.56725,1.55588108 10.6789571,0.667434821 L10.6761449,0.666497412 Z" id="路径" fill="#34C69A"></path>
                            <path d="M9.18004101,3.83681281 C9.14382908,3.80229235 9.08689057,3.80229235 9.05067864,3.83681281 L7.26960258,5.61788888 C7.19121495,5.69554152 7.10182893,5.76123866 7.00431598,5.81286984 C6.58067046,6.03886777 6.05920738,5.96247266 5.71819158,5.62445074 L5.71819158,5.62445074 C5.29804288,5.19848393 5.29804288,4.51400509 5.71819158,4.08803828 L4.88202324,3.25186993 C3.9938808,4.14130671 3.99493005,5.58231937 4.8843668,6.47046183 C5.77380355,7.35860429 7.21481621,7.35755507 8.1029587,6.46811835 L9.88403476,4.68704228 C9.91796357,4.65095674 9.91796357,4.59470286 9.88403476,4.55861732 L9.18004101,3.83681281 Z" id="路径" fill="#34C69A"></path>
                            <path d="M10.6761449,7.36896787 L8.9353774,5.62445074 L8.09920906,6.46811835 L9.84278879,8.20513622 C10.2635309,8.62695424 10.2693652,9.30789629 9.85591251,9.73686163 C9.64722755,9.94562829 9.36414098,10.062919 9.06895811,10.062919 C8.77377524,10.062919 8.49068866,9.94562829 8.28200371,9.73686163 L8.28200371,9.73686163 L8.02515379,9.48001172 C7.98906825,9.44608291 7.93281437,9.44608291 7.89672884,9.48001172 L7.18898545,10.1877551 C7.15446499,10.223967 7.15446499,10.2809055 7.18898545,10.3171175 L7.43458647,10.5627185 C8.32606191,11.4541939 9.80716727,11.4776291 10.6920809,10.5795918 C11.5690268,9.68889517 11.5635864,8.2576591 10.6798945,7.37365492 L10.6761449,7.36896787 Z" id="路径" fill="#F6C94A"></path>
                            <path d="M7.50676692,9.09286203 C7.54069572,9.05677649 7.54069572,9.00052261 7.50676692,8.96443707 L5.72569085,7.183361 C5.30562623,6.75116347 5.30562623,6.06321012 5.72569085,5.6310126 L5.72569085,5.6310126 C6.151338,5.21097455 6.83551876,5.21097455 7.2611659,5.6310126 L8.09827165,4.79484425 C7.20857603,3.90747835 5.76798303,3.90936697 4.88061713,4.79906259 C3.99325123,5.68875822 3.99513984,7.12935122 4.88483547,8.01671712 L6.66591153,9.79779318 C6.70199707,9.83172199 6.75825095,9.83172199 6.79433649,9.79779318 L7.50676692,9.09286203 Z" id="路径" fill="#F6C94A"></path>
                            <path d="M7.0830583,5.6310126 C7.05959984,5.56299472 7.03237287,5.49633558 7.00150376,5.4313446 C6.88979968,5.19292626 6.73719573,4.97591774 6.55061029,4.79015721 C6.36516459,4.60471099 6.14923075,4.45251093 5.91223513,4.34020115 C5.84849136,4.31020408 5.78474758,4.28395664 5.71912899,4.25958402 C4.89044851,3.95860549 3.9624683,4.16393024 3.33811151,4.78640758 L4.17427986,5.62445074 C4.25139282,5.54899103 4.33959109,5.48576646 4.43581681,5.43696905 C4.85822168,5.2119716 5.37787786,5.28794473 5.71819158,5.62445074 L5.71819158,5.62445074 C6.13884671,6.05020969 6.13884671,6.73510424 5.71819158,7.1608632 L6.55529733,7.99703154 C7.17214678,7.37578495 7.37742138,6.45551302 7.0830583,5.6310126 L7.0830583,5.6310126 Z" id="路径" fill="#46AEE2"></path>
                            <path d="M2.3838297,7.41396348 L3.33811151,6.45874426 L2.50194317,5.62445074 L1.54766136,6.57685773 C1.5131409,6.61306966 1.5131409,6.67000817 1.54766136,6.7062201 L2.25446734,7.41396348 C2.29067927,7.44848394 2.34761778,7.44848394 2.3838297,7.41396348 Z" id="路径" fill="#46AEE2"></path>
                            <path d="M3.14031833,9.74904794 C2.86385525,10.0253436 2.46099088,10.13316 2.08348031,10.0318837 C1.70596975,9.93060749 1.41116583,9.6356249 1.31011834,9.25805304 C1.20907085,8.88048118 1.3171313,8.47768221 1.59359438,8.20138658 L1.86638024,7.92860072 C1.90030904,7.89251518 1.90030904,7.8362613 1.86638024,7.80017576 L1.15863685,7.09243238 C1.12255131,7.05850358 1.06629743,7.05850358 1.03021189,7.09243238 L0.757426033,7.36428083 C-0.131234136,8.25268217 -0.131443972,9.69327515 0.756957352,10.5819353 C1.64535868,11.4705955 3.08595166,11.4708054 3.97461185,10.5824041 L5.71819158,8.84069915 L4.88202324,8.0035934 L3.14031833,9.74904794 Z" id="路径" fill="#46AEE2"></path>
                        </g>
                    </g>
                </g>
            </g>
        </g>
    </g>
</svg>