<?xml version="1.0" encoding="UTF-8"?>
<svg width="14px" height="14px" viewBox="0 0 14 14" version="1.1" xmlns="http://www.w3.org/2000/svg" xmlns:xlink="http://www.w3.org/1999/xlink">
    <title>question</title>
    <g id="3.0" stroke="none" stroke-width="1" fill="none" fill-rule="evenodd">
        <g id="001发行请求成功" transform="translate(-587.000000, -316.000000)">
            <g id="编组-15" transform="translate(430.000000, 307.000000)">
                <g id="question" transform="translate(157.000000, 9.000000)">
                    <rect id="矩形" fill="#D8D8D8" opacity="0" x="0" y="0" width="14" height="14"></rect>
                    <path d="M7,1 C10.3133929,1 13,3.68660714 13,7 C13,10.3133929 10.3133929,13 7,13 C3.68660714,13 1,10.3133929 1,7 C1,3.68660714 3.68660714,1 7,1 Z M7,2.01785714 C4.24910714,2.01785714 2.01785714,4.24910714 2.01785714,7 C2.01785714,9.75089286 4.24910714,11.9821429 7,11.9821429 C9.75089286,11.9821429 11.9821429,9.75089286 11.9821429,7 C11.9821429,4.24910714 9.75089286,2.01785714 7,2.01785714 Z M7,8.71428571 C7.3550402,8.71428571 7.64285714,9.00210266 7.64285714,9.35714286 C7.64285714,9.71218305 7.3550402,10 7,10 C6.6449598,10 6.35714286,9.71218305 6.35714286,9.35714286 C6.35714286,9.00210266 6.6449598,8.71428571 7,8.71428571 Z M7.32142857,4 C7.38035714,4 7.42857143,4.04821429 7.42857143,4.10714286 L7.42857143,4.10714286 L7.42857143,7.75 C7.42857143,7.80892857 7.38035714,7.85714286 7.32142857,7.85714286 L7.32142857,7.85714286 L6.67857143,7.85714286 C6.61964286,7.85714286 6.57142857,7.80892857 6.57142857,7.75 L6.57142857,7.75 L6.57142857,4.10714286 C6.57142857,4.04821429 6.61964286,4 6.67857143,4 L6.67857143,4 Z" id="fill" fill="#D0D0D0" fill-rule="nonzero"></path>
                </g>
            </g>
        </g>
    </g>
</svg>