<?xml version="1.0" encoding="UTF-8"?>
<svg width="35px" height="21px" viewBox="0 0 35 21" version="1.1" xmlns="http://www.w3.org/2000/svg" xmlns:xlink="http://www.w3.org/1999/xlink">
    <title>SBCH</title>
    <defs>
        <linearGradient x1="4.80696801%" y1="64.3849621%" x2="129.243207%" y2="38.0232439%" id="linearGradient-1">
            <stop stop-color="#FFC859" offset="0%"></stop>
            <stop stop-color="#F02222" offset="100%"></stop>
        </linearGradient>
        <linearGradient x1="24.1200931%" y1="25.7884176%" x2="74.9944768%" y2="89.8619218%" id="linearGradient-2">
            <stop stop-color="#0097FF" offset="5%"></stop>
            <stop stop-color="#B930C0" offset="99%"></stop>
        </linearGradient>
        <linearGradient x1="53.6271297%" y1="112.324035%" x2="41.5208287%" y2="0.15557626%" id="linearGradient-3">
            <stop stop-color="#367DFF" offset="0%"></stop>
            <stop stop-color="#31FFA1" offset="100%"></stop>
        </linearGradient>
    </defs>
    <g id="3.0" stroke="none" stroke-width="1" fill="none" fill-rule="evenodd">
        <g id="001发行_标注" transform="translate(-852.000000, -177.000000)" fill-rule="nonzero">
            <g id="编组-13" transform="translate(837.000000, 65.500000)">
                <g id="编组-24" transform="translate(0.000000, 100.000000)">
                    <g id="SBCH" transform="translate(15.680664, 12.000000)">
                        <g id="BCH" transform="translate(13.333333, 0.000000)">
                            <path d="M0,10.0000116 L0,10.0000131 C0,15.5228711 4.47715365,20.0000248 10.0000116,20.0000248 C15.5228696,20.0000248 20.0000233,15.5228711 20.0000233,10.0000131 L20.0000233,10.0000131 C20.0000233,4.47715516 15.5228696,1.50995879e-06 10.0000116,1.50995879e-06 C4.47715365,1.50995879e-06 0,4.47715516 0,10.0000131 L0,10.0000116 Z" id="路径" fill="#1DC7C2"></path>
                            <path d="M13.2222419,6.33334721 C13.4444649,7.22223207 13.3333532,7.88890371 12.6666866,8.44446295 C13.2222419,8.44446295 13.7777992,8.66668587 14.1111336,8.88890878 C14.444468,9.22224315 14.6666889,9.66668703 14.7778004,10.3333558 L14.7778004,11.3333569 C14.6666891,11.6666913 14.5555775,11.8889123 14.444466,12.1111352 C14.3333548,12.3333581 14.1111317,12.555581 13.7777992,12.6666905 C13.5555763,12.8889134 13.2222439,13.0000249 13.000021,13.1111364 L12.0000198,13.4444707 L12.4444657,15.3333616 L11.333353,15.5555845 L11.0000187,13.7778051 C10.6666843,13.8889164 10.3333519,13.8889164 10.111129,14.000028 L10.4444633,15.7778074 L9.3333507,16.0000303 L8.88890487,14.1111395 C8.777787,14.1111395 8.66668196,14.2222507 8.5555705,14.2222507 C8.33334759,14.333362 8.22223613,14.333362 8.11112467,14.333362 L6.66667768,14.6666964 L6.55556642,13.3333608 L7.33334467,13.1111379 C7.55556758,13.1111379 7.66667904,12.888915 7.66667904,12.6666921 L7.00001225,9.66668859 L7.00001225,9.66668859 L6.55556642,7.55557285 C6.44445516,7.22223207 6.22223205,7.11112702 5.777787,7.22223207 L5.00000992,7.4444614 L4.777787,6.22223207 L6.3333435,5.88890295 C6.66667787,5.77779168 6.88889884,5.77779168 7.00001029,5.77779168 L6.66667592,3.88890081 L7.777787,3.6666779 L8.11112291,5.44445731 C8.55556874,5.33334605 8.777787,5.33334605 9.00001262,5.22223207 L8.66667825,3.44445498 L9.777787,3.22223207 L10.1111252,5.00001148 C10.4444596,5.00001148 10.8889035,4.88890022 11.1111264,5.00001148 C11.4444608,5.00001148 11.6666817,5.11112274 12.0000161,5.11112274 C12.3333505,5.22223207 12.5555714,5.33334566 12.6666829,5.55556857 C13.0000173,5.77779149 13.1111287,6.11112391 13.2222382,6.33334682 L13.2222419,6.33334721 Z M12.4444637,10.5555787 C12.4444637,10.3333558 12.3333524,10.2222443 12.2222408,10.1111329 C12.1111239,10.0000216 12.0000179,9.88890994 11.8889064,9.88890994 C11.7777952,9.77779868 11.555572,9.77779868 11.4444606,9.77779868 L9.88890409,9.77779868 C9.77779282,9.77779868 9.66668117,9.88890994 9.44445826,9.88890994 C9.22223534,10.0000212 9.11112388,10.0000212 9.11112388,10.0000212 L9.66667922,12.4444772 L10.2222346,12.4444772 C10.3333458,12.4444772 10.4444575,12.4444772 10.5555689,12.3333659 C10.7777918,12.2222547 10.8889033,12.2222547 11.0000148,12.2222547 C11.1111239,12.2222547 11.2222377,12.1111434 11.4444606,12.1111434 C11.5555718,12.0000321 11.6666835,12.0000321 11.777795,11.8889205 C11.8889062,11.7778092 12.0000179,11.7778092 12.1111239,11.6666976 L12.3333522,11.4444746 C12.3333522,11.3333634 12.4444635,11.2222517 12.4444635,11.1111403 C12.5555748,10.8889174 12.5555748,10.7777987 12.4444635,10.5555849 L12.4444637,10.5555787 Z M11.2222396,7.22223497 C11.2222396,7.1111237 11.1111284,6.88890059 11.0000167,6.77778914 L10.7777938,6.55556622 C10.6666825,6.55556622 10.5555709,6.44445496 10.333348,6.44445496 L9.44445533,6.44445496 C9.22223534,6.44445496 9.11112388,6.44445496 9.00001243,6.55556622 C8.88890116,6.55556622 8.77778951,6.55556622 8.5555666,6.66667748 L8.44445533,6.66667748 L8.88890116,8.88890663 L9.44445533,8.88890663 C9.55556776,8.88890663 9.66667941,8.77779537 9.77779087,8.77779537 C9.88890213,8.77779537 10.1111252,8.66668411 10.2222367,8.66668411 C10.333348,8.55557285 10.4444553,8.55557285 10.5555711,8.55557285 C10.6666823,8.55557285 10.777794,8.44445496 10.8889054,8.33334993 C11.0000167,8.22223867 11.0000167,8.11112702 11.1111284,8.00001556 C11.2222396,7.8889043 11.2222396,7.77779264 11.2222396,7.66668119 L11.2222396,7.22223536 L11.2222396,7.22223497 Z" id="形状" fill="#FFFFFF"></path>
                        </g>
                        <g id="PCX_W">
                            <circle id="椭圆形" stroke="#EAEAEA" stroke-width="0.666666667" fill="#FFFFFF" cx="10" cy="10" r="9.66666667"></circle>
                            <g id="图层_1-2-2" transform="translate(4.775510, 4.877551)">
                                <path d="M6.0047261,2.97056928 L4.37207304,1.33791622 C4.33899463,1.30681482 4.28742857,1.30681482 4.25435016,1.33791622 L3.60902256,1.98668099 C3.5773788,2.01987526 3.5773788,2.07206889 3.60902256,2.10526316 L5.22191192,3.72158969 C5.62052479,4.12024322 5.62052479,4.76654517 5.22191192,5.16519871 L5.22191192,5.16519871 C4.82993253,5.54210097 4.20898048,5.53790793 3.82212675,5.15574651 L1.46079484,2.79355532 C1.07613041,2.40680058 1.07078782,1.78362598 1.44876477,1.39033298 C1.84673028,0.992489527 2.49183041,0.992489527 2.88979592,1.39033298 L2.88979592,1.39033298 L3.13039742,1.63265306 C3.16347583,1.66375446 3.21504189,1.66375446 3.2481203,1.63265306 L3.89688507,0.983029001 C3.92798647,0.94995059 3.92798647,0.898384533 3.89688507,0.865306122 L3.64511278,0.613533835 C2.83139174,-0.19996522 1.5123247,-0.19996522 0.698603652,0.613533835 L0.698603652,0.613533835 L0.698603652,0.613533835 C-0.115664816,1.4279429 -0.115664816,2.74821177 0.698603652,3.56262084 L0.698603652,3.56262084 L3.0556391,5.92051557 C3.44658908,6.31149243 3.97684718,6.5311432 4.52975295,6.5311432 C5.08265873,6.5311432 5.61291682,6.31149243 6.00386681,5.92051557 L6.00386681,5.92051557 C6.81799715,5.1058526 6.8183817,3.78570641 6.0047261,2.97056928 Z" id="路径" fill="#EA754B"></path>
                                <path d="M9.78646617,0.610955961 C8.97274512,-0.202543093 7.65367808,-0.202543093 6.83995704,0.610955961 L6.83995704,0.610955961 L5.24167562,2.20837809 L6.0047261,2.97142857 L6.0047261,2.97142857 L7.6047261,1.37486574 C7.9967237,0.983342712 8.63189266,0.98372743 9.02341568,1.37572503 C9.41493871,1.76772262 9.41455399,2.40289158 9.02255639,2.79441461 L8.77164339,3.0453276 C8.74054199,3.07840602 8.74054199,3.12997207 8.77164339,3.16305048 L9.42040816,3.81267454 C9.45348657,3.84377595 9.50505263,3.84377595 9.53813104,3.81267454 L9.78904404,3.56090226 C10.6033125,2.74649319 10.6033125,1.42622432 9.78904404,0.611815252 L9.78646617,0.610955961 Z" id="路径" fill="#34C69A"></path>
                                <path d="M8.41503759,3.51707841 C8.38184333,3.48543466 8.32964969,3.48543466 8.29645542,3.51707841 L6.66380236,5.14973147 C6.59194703,5.22091306 6.51000985,5.28113544 6.42062299,5.32846402 C6.03228125,5.53562879 5.55427343,5.46559994 5.24167562,5.15574651 L5.24167562,5.15574651 C4.8565393,4.76527693 4.8565393,4.137838 5.24167562,3.74736842 L4.47518797,2.98088077 C3.6610574,3.79619782 3.66201921,5.11712609 4.47733624,5.93125668 C5.29265326,6.74538726 6.61358153,6.74442549 7.42771214,5.92910849 L9.0603652,4.29645542 C9.0914666,4.26337701 9.0914666,4.21181096 9.0603652,4.17873255 L8.41503759,3.51707841 Z" id="路径" fill="#34C69A"></path>
                                <path d="M9.78646617,6.75488722 L8.19076262,5.15574651 L7.42427497,5.92910849 L9.02255639,7.52137487 C9.40823665,7.90804138 9.41358473,8.53223827 9.03458647,8.9254565 C8.84329193,9.11682593 8.5837959,9.22434246 8.3132116,9.22434246 C8.0426273,9.22434246 7.78313128,9.11682593 7.59183673,8.9254565 L7.59183673,8.9254565 L7.35639098,8.69001074 C7.32331257,8.65890934 7.27174651,8.65890934 7.2386681,8.69001074 L6.58990333,9.33877551 C6.55825958,9.37196978 6.55825958,9.42416341 6.58990333,9.45735768 L6.81503759,9.68249194 C7.63222342,10.4996778 8.98990333,10.52116 9.80107411,9.69795918 C10.6049412,8.88148724 10.5999542,7.56952084 9.78990333,6.75918367 L9.78646617,6.75488722 Z" id="路径" fill="#F6C94A"></path>
                                <path d="M6.88120301,8.33512352 C6.91230441,8.30204511 6.91230441,8.25047906 6.88120301,8.21740064 L5.24854995,6.58474758 C4.86349071,6.18856652 4.86349071,5.55794261 5.24854995,5.16176155 L5.24854995,5.16176155 C5.6387265,4.77672667 6.26589219,4.77672667 6.65606874,5.16176155 L7.42341568,4.3952739 C6.60786136,3.58185516 5.28731778,3.58358639 4.47389903,4.39914071 C3.66048029,5.21469503 3.66221152,6.53523862 4.47776584,7.34865736 L6.1104189,8.98131042 C6.14349732,9.01241182 6.19506337,9.01241182 6.22814178,8.98131042 L6.88120301,8.33512352 Z" id="路径" fill="#F6C94A"></path>
                                <path d="M6.49280344,5.16176155 C6.47129986,5.09941183 6.4463418,5.03830762 6.41804511,4.97873255 C6.31564971,4.76018241 6.17576276,4.56125793 6.0047261,4.39097744 C5.83473421,4.22098508 5.63679485,4.08146835 5.41954887,3.97851772 C5.36111708,3.95102041 5.30268528,3.92696026 5.24253491,3.90461869 C4.48291113,3.6287217 3.6322626,3.81693606 3.05993555,4.38754028 L3.8264232,5.15574651 C3.89711009,5.08657511 3.9779585,5.02861926 4.06616541,4.98388829 C4.45336987,4.77764064 4.92972138,4.84728267 5.24167562,5.15574651 L5.24167562,5.15574651 C5.62727615,5.54602555 5.62727615,6.17384555 5.24167562,6.5641246 L6.00902256,7.33061224 C6.57446788,6.7611362 6.76263627,5.9175536 6.49280344,5.16176155 L6.49280344,5.16176155 Z" id="路径" fill="#46AEE2"></path>
                                <path d="M2.18517723,6.79613319 L3.05993555,5.92051557 L2.29344791,5.15574651 L1.41868958,6.02878625 C1.38704583,6.06198052 1.38704583,6.11417415 1.41868958,6.14736842 L2.06659506,6.79613319 C2.09978933,6.82777694 2.15198296,6.82777694 2.18517723,6.79613319 Z" id="路径" fill="#46AEE2"></path>
                                <path d="M2.87862513,8.93662728 C2.62520065,9.18989827 2.2559083,9.28872996 1.90985695,9.19589341 C1.5638056,9.10305686 1.29356867,8.83265616 1.20094181,8.48654862 C1.10831494,8.14044109 1.20737036,7.77120869 1.46079484,7.5179377 L1.71084855,7.267884 C1.74194995,7.23480558 1.74194995,7.18323953 1.71084855,7.15016112 L1.06208378,6.50139635 C1.02900537,6.47029494 0.977439313,6.47029494 0.944360902,6.50139635 L0.694307197,6.75059076 C-0.120297958,7.56495866 -0.120490307,8.88550222 0.693877573,9.70010739 C1.50824545,10.5147126 2.82878902,10.5149049 3.6433942,9.70053706 L5.24167562,8.10397422 L4.47518797,7.33662728 L2.87862513,8.93662728 Z" id="路径" fill="#46AEE2"></path>
                            </g>
                        </g>
                        <g id="编组-10">
                            <path d="M5.02392517,1.71556182 C7.1434406,0.441949611 9.74852188,-0.0229860626 12.3373457,0.623132569 C14.92694,1.26944348 17.0100339,2.90386492 18.2840007,5.02428543 C19.5575802,7.14406123 20.0225108,9.74954149 19.3764206,12.3391218 C18.731267,14.9281459 17.0971325,17.0105187 14.97685,18.2840877 C12.8566247,19.5576223 10.2502749,20.0224015 7.66055208,19.3762999 C5.07076763,18.730183 2.98834357,17.0962734 1.71492501,14.9765562 C0.441531948,12.8568815 -0.0228754596,10.251434 0.623277644,7.66223005 C1.26952962,5.07262987 2.90380873,2.98953517 5.02392517,1.71556182 Z" id="路径" stroke="#EAEAEA" stroke-width="0.666666667" fill="#FFFFFF"></path>
                            <g id="编组-16" transform="translate(3.624772, 4.333062)">
                                <path d="M0.190724181,10.7908667 L3.95566448,10.7908667 C4.02383861,10.7907968 4.08680238,10.7543801 4.12085918,10.695322 C4.15491598,10.636264 4.15489731,10.5635274 4.12081019,10.5044868 L2.23881734,7.24405236 C2.20472402,7.18493967 2.14167274,7.14851811 2.07343298,7.14851811 C2.00519322,7.14851811 1.94214194,7.18493967 1.90804862,7.24405236 L0.0255784735,10.5044868 C-0.00850864708,10.5635274 -0.00852732076,10.636264 0.0255294804,10.695322 C0.0595862815,10.7543801 0.122550047,10.7907968 0.190724181,10.7908667 Z" id="路径" fill="url(#linearGradient-1)"></path>
                                <path d="M8.65515765,4.40125515 L3.07075077,6.73572815 C3.02005983,6.75681003 2.98089746,6.79869314 2.96326266,6.85068383 C2.94562786,6.90267451 2.95122752,6.95974053 2.97863192,7.00731169 L5.10691143,10.6954067 C5.140981,10.754417 5.20391799,10.7907968 5.27205714,10.7908669 L12.2057904,10.7908669 C12.2740498,10.7909674 12.3371698,10.754618 12.3713431,10.6955288 C12.4055164,10.6364395 12.4055432,10.5636012 12.3714134,10.5044868 L8.89428482,4.4819188 C8.84624317,4.39867249 8.74380757,4.36411837 8.65515765,4.40125515 Z" id="路径" fill="url(#linearGradient-2)"></path>
                                <path d="M6.03525942,0.0955342554 L2.86360269,5.59068609 C2.82280775,5.66155441 2.83167357,5.75053358 2.88565016,5.81195894 C2.93962675,5.87338429 3.02672781,5.89361544 3.10225255,5.86226963 L8.2131781,3.72587603 C8.26378563,3.7046991 8.30283808,3.66277581 8.32037796,3.61079565 C8.33791784,3.55881549 8.33225001,3.50180205 8.30481965,3.45429248 L6.36602813,0.0955342554 C6.33193481,0.0364215631 6.26888353,6.78283717e-16 6.20064377,6.78283717e-16 C6.13240401,6.78283717e-16 6.06935274,0.0364215631 6.03525942,0.0955342554 Z" id="路径" fill="url(#linearGradient-3)"></path>
                            </g>
                        </g>
                    </g>
                </g>
            </g>
        </g>
    </g>
</svg>