<?xml version="1.0" encoding="UTF-8"?>
<svg width="14px" height="14px" viewBox="0 0 14 14" version="1.1" xmlns="http://www.w3.org/2000/svg" xmlns:xlink="http://www.w3.org/1999/xlink">
    <title>selected</title>
    <g id="3.0" stroke="none" stroke-width="1" fill="none" fill-rule="evenodd">
        <g id="004注册成为资产保险库2" transform="translate(-549.000000, -538.000000)" fill-rule="nonzero">
            <g id="编组-14" transform="translate(549.000000, 537.000000)">
                <g id="selected" transform="translate(0.000000, 1.000000)">
                    <rect id="矩形" fill="#FFFFFF" x="0" y="0" width="14" height="14" rx="2"></rect>
                    <g id="勾" transform="translate(2.452683, 3.019533)" fill="#000000">
                        <path d="M3.57857582,7.43292369 C3.44052495,7.43292369 3.30730834,7.37972299 3.2070108,7.28366389 L0.346445419,4.54408532 C0.132172254,4.33887316 0.124822765,3.99879393 0.330046942,3.78455679 C0.535259108,3.57028363 0.875338339,3.56293414 1.08962452,3.76814621 L3.53184056,6.10708107 L7.9617614,0.723878653 C8.15027082,0.494785404 8.4888207,0.461903375 8.71794998,0.650401286 C8.94705524,0.838910706 8.97993727,1.17746059 8.79141514,1.40656585 L3.99343937,7.23705314 C3.8984375,7.35249806 3.75963396,7.42313342 3.61039521,7.43197622 C3.59977874,7.43260787 3.58916227,7.43292369 3.57855791,7.43292369 L3.57857582,7.43292369 Z" id="路径"></path>
                    </g>
                </g>
            </g>
        </g>
    </g>
</svg>