<?xml version="1.0" encoding="UTF-8"?>
<svg width="32px" height="32px" viewBox="0 0 32 32" version="1.1" xmlns="http://www.w3.org/2000/svg" xmlns:xlink="http://www.w3.org/1999/xlink">
    <title>sherpax</title>
    <defs>
        <linearGradient x1="4.80696801%" y1="64.3849621%" x2="129.243207%" y2="38.0232439%" id="linearGradient-1">
            <stop stop-color="#FFC859" offset="0%"></stop>
            <stop stop-color="#F02222" offset="100%"></stop>
        </linearGradient>
        <linearGradient x1="24.1200931%" y1="25.7884176%" x2="74.9944768%" y2="89.8619218%" id="linearGradient-2">
            <stop stop-color="#0097FF" offset="5%"></stop>
            <stop stop-color="#B930C0" offset="99%"></stop>
        </linearGradient>
        <linearGradient x1="53.6271297%" y1="112.324035%" x2="41.5208287%" y2="0.15557626%" id="linearGradient-3">
            <stop stop-color="#367DFF" offset="0%"></stop>
            <stop stop-color="#31FFA1" offset="100%"></stop>
        </linearGradient>
    </defs>
    <g id="3.0" stroke="none" stroke-width="1" fill="none" fill-rule="evenodd">
        <g id="002赎回BTC请求成功" transform="translate(-995.000000, -209.000000)" fill-rule="nonzero">
            <g id="sherpax" transform="translate(995.000000, 209.000000)">
                <path d="M31.519781,19.8715517 C29.384101,28.4421117 20.700901,33.6584317 12.127781,31.5195517 C3.55466096,29.3806717 -1.65925904,20.7017917 0.479780963,12.1304317 C2.61882096,3.55907168 11.297701,-1.65964832 19.868901,0.479551679 C28.440101,2.61875168 33.658821,11.2981117 31.519781,19.8715517 L31.519781,19.8715517 Z" id="路径" fill="#FFFFFF"></path>
                <g id="编组-16" transform="translate(4.857143, 4.000000)">
                    <path d="M0.352061639,19.9190799 L7.30184137,19.9190799 C7.42768539,19.9189509 7.54391149,19.8517285 7.60677763,19.7427121 C7.66964377,19.6336957 7.6696093,19.4994297 7.60668719,19.3904455 L4.13267838,13.3719433 C4.06974483,13.262826 3.95335719,13.1955947 3.82739204,13.1955947 C3.70142688,13.1955947 3.58503924,13.262826 3.52210569,13.3719433 L0.0472158236,19.3904455 C-0.0157062844,19.4994297 -0.0157407545,19.6336957 0.0471253862,19.7427121 C0.109991527,19.8517285 0.226217621,19.9189509 0.352061639,19.9190799 Z" id="路径" fill="url(#linearGradient-1)"></path>
                    <path d="M15.9767312,8.12436624 L5.6683612,12.4336173 C5.57478976,12.4725328 5.50249915,12.5498457 5.46994671,12.6458164 C5.43739428,12.741787 5.4477308,12.8471263 5.49831715,12.9349389 L9.42695151,19.7428684 C9.4898412,19.8517967 9.60601787,19.9189509 9.73179732,19.9190803 L22.5309163,19.9190803 C22.6569177,19.9192658 22.7734322,19.8521678 22.8365134,19.7430937 C22.8995946,19.6340196 22.899644,19.499566 22.8366431,19.3904455 L16.4181409,8.27326492 C16.3294599,8.11959886 16.1403719,8.0558147 15.9767312,8.12436624 Z" id="路径" fill="url(#linearGradient-2)"></path>
                    <path d="M11.1406079,0.176348622 L5.28598234,10.319961 C5.21067813,10.4507782 5.22704373,10.6150267 5.32668021,10.728413 C5.42631669,10.8417993 5.58709832,10.8791444 5.72651098,10.8212825 L15.1608722,6.87767021 C15.2542897,6.83857929 15.3263774,6.76119223 15.3587546,6.665241 C15.3911318,6.56928978 15.3806695,6.4640475 15.3300352,6.37634862 L11.7511806,0.176348622 C11.688247,0.0672313028 11.5718594,1.25205768e-15 11.4458942,1.25205768e-15 C11.3199291,1.25205768e-15 11.2035414,0.0672313028 11.1406079,0.176348622 Z" id="路径" fill="url(#linearGradient-3)"></path>
                </g>
            </g>
        </g>
    </g>
</svg>