<?xml version="1.0" encoding="UTF-8"?>
<svg width="20px" height="21px" viewBox="0 0 20 21" version="1.1" xmlns="http://www.w3.org/2000/svg" xmlns:xlink="http://www.w3.org/1999/xlink">
    <title>sherpax_s</title>
    <defs>
        <linearGradient x1="4.80696801%" y1="64.3849621%" x2="129.243207%" y2="38.0232439%" id="linearGradient-1">
            <stop stop-color="#FFC859" offset="0%"></stop>
            <stop stop-color="#F02222" offset="100%"></stop>
        </linearGradient>
        <linearGradient x1="24.1200931%" y1="25.7884176%" x2="74.9944768%" y2="89.8619218%" id="linearGradient-2">
            <stop stop-color="#0097FF" offset="5%"></stop>
            <stop stop-color="#B930C0" offset="99%"></stop>
        </linearGradient>
        <linearGradient x1="53.6271297%" y1="112.324035%" x2="41.5208287%" y2="0.15557626%" id="linearGradient-3">
            <stop stop-color="#367DFF" offset="0%"></stop>
            <stop stop-color="#31FFA1" offset="100%"></stop>
        </linearGradient>
    </defs>
    <g id="3.0" stroke="none" stroke-width="1" fill="none" fill-rule="evenodd">
        <g id="002赎回BTC请求成功" transform="translate(-1001.000000, -371.000000)" fill-rule="nonzero">
            <g id="sherpax_s" transform="translate(1001.000000, 371.500000)">
                <path d="M19.6998631,12.4197198 C18.3650631,17.7763198 12.9380631,21.0365198 7.5798631,19.6997198 C2.2216631,18.3629198 -1.0370369,12.9386198 0.299863102,7.5815198 C1.6367631,2.2244198 7.0610631,-1.0372802 12.4180631,0.2997198 C17.7750631,1.6367198 21.0367631,7.0613198 19.6998631,12.4197198 L19.6998631,12.4197198 Z" id="路径" fill="#FFFFFF"></path>
                <g id="编组-16" transform="translate(3.035714, 2.500000)">
                    <path d="M0.220038524,12.4494249 L4.56365086,12.4494249 C4.64230337,12.4493443 4.71494468,12.4073303 4.75423602,12.3391951 C4.79352735,12.2710598 4.79350581,12.1871435 4.75417949,12.1190285 L2.58292399,8.35746458 C2.54359052,8.28926626 2.47084825,8.2472467 2.39212002,8.2472467 C2.3133918,8.2472467 2.24064953,8.28926626 2.20131606,8.35746458 L0.0295098898,12.1190285 C-0.00981642775,12.1871435 -0.00983797158,12.2710598 0.0294533664,12.3391951 C0.0687447043,12.4073303 0.141386013,12.4493443 0.220038524,12.4494249 Z" id="路径" fill="url(#linearGradient-1)"></path>
                    <path d="M9.98545703,5.0777289 L3.54272575,7.77101084 C3.4842436,7.79533301 3.43906197,7.84365357 3.4187167,7.90363523 C3.39837142,7.96361689 3.40483175,8.02945397 3.43644822,8.08433683 L5.89184469,12.3392928 C5.93115075,12.407373 6.00376117,12.4493443 6.08237333,12.4494252 L14.0818227,12.4494252 C14.1605735,12.4495411 14.2333952,12.4076049 14.2728209,12.3394336 C14.3122466,12.2712623 14.3122775,12.1872287 14.272902,12.1190285 L10.2613381,5.17079058 C10.2059124,5.07474929 10.0877325,5.03488419 9.98545703,5.0777289 Z" id="路径" fill="url(#linearGradient-2)"></path>
                    <path d="M6.96287993,0.110217889 L3.30373896,6.4499756 C3.25667383,6.5317364 3.26690233,6.63439168 3.32917513,6.70525813 C3.39144793,6.77612457 3.49193645,6.79946525 3.57906936,6.76330159 L9.47554513,4.29854388 C9.53393104,4.27411206 9.57898587,4.22574514 9.59922163,4.16577563 C9.61945739,4.10580611 9.61291842,4.04002969 9.581272,3.98521789 L7.34448786,0.110217889 C7.30515439,0.0420195643 7.23241212,7.82536053e-16 7.1536839,7.82536053e-16 C7.07495567,7.82536053e-16 7.0022134,0.0420195643 6.96287993,0.110217889 Z" id="路径" fill="url(#linearGradient-3)"></path>
                </g>
            </g>
        </g>
    </g>
</svg>