<?xml version="1.0" encoding="UTF-8"?>
<svg width="16px" height="16px" viewBox="0 0 16 16" version="1.1" xmlns="http://www.w3.org/2000/svg" xmlns:xlink="http://www.w3.org/1999/xlink">
    <title>successed</title>
    <g id="3.0" stroke="none" stroke-width="1" fill="none" fill-rule="evenodd">
        <g id="004注册成为资产保险库3——反馈" transform="translate(-593.000000, -78.000000)" fill="#52C41A" fill-rule="nonzero">
            <g id="5.Feedback/Alert/Small/Icon.Success" transform="translate(480.000000, 66.000000)">
                <g id="编组-6" transform="translate(113.000000, 9.000000)">
                    <g id="successed" transform="translate(0.000000, 3.000000)">
                        <path d="M8,0 C3.58214286,0 0,3.58214286 0,8 C0,12.4178571 3.58214286,16 8,16 C12.4178571,16 16,12.4178571 16,8 C16,3.58214286 12.4178571,0 8,0 Z M11.4553571,5.3875 L7.69464286,10.6017857 C7.46785714,10.9178571 6.99821429,10.9178571 6.77142857,10.6017857 L4.54464286,7.51607143 C4.47678571,7.42142857 4.54464286,7.28928571 4.66071429,7.28928571 L5.49821429,7.28928571 C5.68035714,7.28928571 5.85357143,7.37678571 5.96071429,7.52678571 L7.23214286,9.29107143 L10.0392857,5.39821429 C10.1464286,5.25 10.3178571,5.16071429 10.5017857,5.16071429 L11.3392857,5.16071429 C11.4553571,5.16071429 11.5232143,5.29285714 11.4553571,5.3875 Z" id="fill"></path>
                    </g>
                </g>
            </g>
        </g>
    </g>
</svg>