<?xml version="1.0" encoding="UTF-8"?>
<svg width="18px" height="18px" viewBox="0 0 18 18" version="1.1" xmlns="http://www.w3.org/2000/svg" xmlns:xlink="http://www.w3.org/1999/xlink">
    <title>Vault</title>
    <g id="3.0" stroke="none" stroke-width="1" fill="none" fill-rule="evenodd">
        <g id="005资产保险库" transform="translate(-51.000000, -246.000000)">
            <g id="编组-4" transform="translate(40.000000, 235.000000)">
                <g id="Vault" transform="translate(11.000000, 11.000000)">
                    <rect id="矩形" x="0" y="0" width="18" height="18"></rect>
                    <g id="编组-4" transform="translate(1.125000, 2.859724)" fill="#555555">
                        <path d="M12.480492,0.140276025 C13.23328,0.140276025 13.8694689,0.698239392 13.9676735,1.44459426 L15.151884,10.4445943 C15.259956,11.2659419 14.6817319,12.0193854 13.8603843,12.1274575 C13.7955065,12.135994 13.7301396,12.140276 13.6647025,12.140276 L2.08529747,12.140276 C1.25687034,12.140276 0.585297466,11.4687032 0.585297466,10.640276 C0.585297466,10.574839 0.589579466,10.5094721 0.598116022,10.4445943 L1.78232655,1.44459426 C1.88053114,0.698239392 2.51672002,0.140276025 3.26950799,0.140276025 L12.480492,0.140276025 Z M7.875,3.28055205 C7.04657288,3.28055205 6.375,3.95212493 6.375,4.78055205 C6.375,5.39534244 6.74486111,5.92374714 7.27421121,6.15539404 L7.275,8.53055205 L8.475,8.53055205 L8.47578879,6.15539404 C9.00513889,5.92374714 9.375,5.39534244 9.375,4.78055205 C9.375,3.95212493 8.70342712,3.28055205 7.875,3.28055205 Z" id="形状结合"></path>
                    </g>
                </g>
            </g>
        </g>
    </g>
</svg>