<?xml version="1.0" encoding="UTF-8"?>
<svg width="16px" height="16px" viewBox="0 0 16 16" version="1.1" xmlns="http://www.w3.org/2000/svg" xmlns:xlink="http://www.w3.org/1999/xlink">
    <title>wallet</title>
    <g id="3.0" stroke="none" stroke-width="1" fill="none" fill-rule="evenodd">
        <g id="001发行" transform="translate(-856.000000, -31.000000)" fill="#555555" fill-rule="nonzero">
            <g id="编组-7" transform="translate(0.000000, -1.000000)">
                <g id="编组-8" transform="translate(836.000000, 24.000000)">
                    <g id="编组" transform="translate(20.000000, 4.500000)">
                        <g id="wallet" transform="translate(0.000000, 4.500000)">
                            <path d="M14.7805201,3.92210084 L2.07110913,3.90820809 C2.04429422,3.90727556 2.01846893,3.90611466 1.98611595,3.9054676 C1.68435781,3.89951085 1.43961704,3.66078392 1.43961704,3.35896869 C1.43961704,3.05715346 1.68437684,2.81935907 1.98611595,2.81246979 C2.01569038,2.8118037 2.04844301,2.81056667 2.07386865,2.81016702 L2.29744676,2.79859607 L2.3062011,2.79859607 L13.4849736,2.39888453 L13.4849736,1.45314987 C13.4849736,1.09123422 13.3756396,0.525951557 12.6940004,0.525951557 L1.0978554,2.27164217 C0.702692312,2.34643464 0.470588235,2.56449372 0.470588235,2.9264284 L0.470588235,12.6931076 C0.470588235,12.7436353 0.487849501,12.7883776 0.498050205,12.8357081 L0.498050205,12.9252307 C0.498050205,13.2871463 0.790939819,13.5800169 1.1528174,13.5800169 L14.780463,13.5800169 C15.1423406,13.5800169 15.4352302,13.2871273 15.4352302,12.9252307 L15.4352302,4.57679191 C15.4352302,4.21487626 15.1423596,3.92200568 14.780482,3.92200568 L14.7805201,3.92210084 Z M13.0194713,10.1905666 C12.3214653,10.1905666 11.7556117,9.62473204 11.7556117,8.92670701 C11.7556117,8.22868197 12.3214463,7.66284741 13.0194713,7.66284741 C13.7174964,7.66284741 14.283331,8.22868197 14.283331,8.92670701 C14.283331,9.62473204 13.7174964,10.1905666 13.0194713,10.1905666 Z" id="形状"></path>
                        </g>
                    </g>
                </g>
            </g>
        </g>
    </g>
</svg>