<?xml version="1.0" encoding="UTF-8"?>
<svg width="16px" height="17px" viewBox="0 0 16 17" version="1.1" xmlns="http://www.w3.org/2000/svg" xmlns:xlink="http://www.w3.org/1999/xlink">
    <title>二维码</title>
    <g id="3.0" stroke="none" stroke-width="1" fill="none" fill-rule="evenodd">
        <g id="001发行进行中" transform="translate(-470.000000, -438.000000)" fill="#F6C94A" fill-rule="nonzero">
            <g id="编组-12" transform="translate(390.000000, 45.500000)">
                <g id="编组-15" transform="translate(40.000000, 149.000000)">
                    <g id="二维码" transform="translate(40.000000, 244.000000)">
                        <path d="M5.06307515,8.68385736 L2.17005368,8.68385736 C0.971050613,8.68385736 0,9.65490798 0,10.8537193 L0,13.7469325 C0,14.9457439 0.971050613,15.9167945 2.16986196,15.9167945 L5.06307515,15.9167945 C6.2618865,15.9167945 7.23293712,14.9457439 7.23293712,13.7469325 L7.23293712,10.8537193 C7.23293712,9.65490798 6.2618865,8.68385736 5.06307515,8.68385736 Z M5.78642638,13.7469325 C5.78642638,14.1464724 5.46280675,14.4702837 5.06307515,14.4702837 L2.17005368,14.4702837 C1.7705138,14.4702837 1.44670245,14.1466641 1.44670245,13.7469325 L1.44670245,10.8537193 C1.44670245,10.4541794 1.77032209,10.1303681 2.17005368,10.1303681 L5.06326687,10.1303681 C5.46280675,10.1303681 5.7866181,10.4539877 5.7866181,10.8537193 L5.7866181,13.7469325 L5.78642638,13.7469325 Z M13.742523,8.68385736 L10.8495015,8.68385736 C9.65069018,8.68385736 8.67963957,9.65490798 8.67963957,10.8537193 L8.67963957,13.7469325 C8.67963957,14.9457439 9.65069018,15.9167945 10.8495015,15.9167945 L13.7427147,15.9167945 C14.9415261,15.9167945 15.9125767,14.9457439 15.9125767,13.7469325 L15.9125767,10.8537193 C15.9125767,9.65490798 14.9415261,8.68385736 13.742523,8.68385736 Z M5.06307515,0.0044095092 L2.17005368,0.0044095092 C0.971050613,0.0044095092 0,0.975460123 0,2.17427147 L0,5.06748466 C0,6.26629601 0.971050613,7.23734663 2.16986196,7.23734663 L5.06307515,7.23734663 C6.2618865,7.23734663 7.23293712,6.26629601 7.23293712,5.06748466 L7.23293712,2.17427147 C7.23293712,0.975460123 6.2618865,0.0044095092 5.06307515,0.0044095092 Z M5.78642638,5.06748466 C5.78642638,5.46702454 5.46280675,5.79083589 5.06307515,5.79083589 L2.17005368,5.79083589 C1.7705138,5.79083589 1.44670245,5.46721626 1.44670245,5.06748466 L1.44670245,2.17427147 C1.44670245,1.7747316 1.77032209,1.45092025 2.17005368,1.45092025 L5.06326687,1.45092025 C5.46280675,1.45092025 5.7866181,1.77453988 5.7866181,2.17427147 L5.7866181,5.06748466 L5.78642638,5.06748466 Z M13.742523,0.0044095092 L10.8495015,0.0044095092 C9.65069018,0.0044095092 8.67963957,0.975460123 8.67963957,2.17427147 L8.67963957,5.06748466 C8.67963957,6.26629601 9.65069018,7.23734663 10.8495015,7.23734663 L13.7427147,7.23734663 C14.9415261,7.23734663 15.9125767,6.26629601 15.9125767,5.06748466 L15.9125767,2.17427147 C15.9125767,0.975460123 14.9415261,0.0044095092 13.742523,0.0044095092 Z M14.4658742,5.06748466 C14.4658742,5.46702454 14.1422546,5.79083589 13.742523,5.79083589 L10.8495015,5.79083589 C10.4499617,5.79083589 10.1261503,5.46721626 10.1261503,5.06748466 L10.1261503,2.17427147 C10.1261503,1.7747316 10.4497699,1.45092025 10.8495015,1.45092025 L13.7427147,1.45092025 C14.1422546,1.45092025 14.466066,1.77453988 14.466066,2.17427147 L14.466066,5.06748466 L14.4658742,5.06748466 Z" id="形状"></path>
                        <path d="M4.64493865,3.92197086 C4.64493865,4.27990798 4.35467791,4.57016871 3.9967408,4.57016871 L3.34930982,4.57016871 C2.9913727,4.57016871 2.70111196,4.27990798 2.70111196,3.92197086 L2.70111196,3.27453988 C2.70111196,2.91660276 2.9913727,2.62634202 3.34930982,2.62634202 L3.9967408,2.62634202 C4.35467791,2.62634202 4.64493865,2.91660276 4.64493865,3.27453988 L4.64493865,3.92197086 Z M13.2680215,3.92197086 C13.2680215,4.27990798 12.9777607,4.57016871 12.6198236,4.57016871 L11.9723926,4.57016871 C11.6144555,4.57016871 11.3241948,4.27990798 11.3241948,3.92197086 L11.3241948,3.27453988 C11.3241948,2.91660276 11.6144555,2.62634202 11.9723926,2.62634202 L12.6198236,2.62634202 C12.9777607,2.62634202 13.2680215,2.91660276 13.2680215,3.27453988 L13.2680215,3.92197086 Z M4.5883819,12.6240414 C4.5883819,12.9819785 4.29812117,13.2722393 3.94018405,13.2722393 L3.29275307,13.2722393 C2.93481595,13.2722393 2.64455521,12.9819785 2.64455521,12.6240414 L2.64455521,11.9766104 C2.64455521,11.6186733 2.93481595,11.3284126 3.29275307,11.3284126 L3.94018405,11.3284126 C4.29812117,11.3284126 4.5883819,11.6186733 4.5883819,11.9766104 L4.5883819,12.6240414 Z" id="形状"></path>
                    </g>
                </g>
            </g>
        </g>
    </g>
</svg>