<?xml version="1.0" encoding="UTF-8"?>
<svg width="142px" height="27px" viewBox="0 0 142 27" version="1.1" xmlns="http://www.w3.org/2000/svg" xmlns:xlink="http://www.w3.org/1999/xlink">
    <title>编组 3</title>
    <defs>
        <polygon id="path-1" points="0 0.00015483871 15.1966065 0.00015483871 15.1966065 15.2026065 0 15.2026065"></polygon>
        <polygon id="path-3" points="5.80645161e-05 0.364645161 12.0003484 0.364645161 12.0003484 9.29032258 5.80645161e-05 9.29032258"></polygon>
    </defs>
    <g id="控件" stroke="none" stroke-width="1" fill="none" fill-rule="evenodd">
        <g id="编组-3">
            <g id="ChainX-Logo">
                <g id="编组">
                    <mask id="mask-2" fill="white">
                        <use xlink:href="#path-1"></use>
                    </mask>
                    <g id="Clip-2"></g>
                    <path d="M13.7751871,6.91467097 L9.96847742,3.1064129 C9.89260645,3.03054194 9.76950968,3.03054194 9.69402581,3.1064129 L8.18396129,4.61686452 C8.10809032,4.69273548 8.10809032,4.81583226 8.18396129,4.89131613 L11.9531226,8.6624129 C12.8748,9.58409032 12.8991871,11.1173806 11.9624129,12.0235742 C11.0519613,12.9038323 9.59531613,12.8945419 8.69647742,11.9953161 L3.20589677,6.5028 C2.30705806,5.60357419 2.29776774,4.14654194 3.17802581,3.23570323 C4.08344516,2.29815484 5.61634839,2.32254194 6.53763871,3.24460645 L7.08576774,3.79312258 C7.16163871,3.86899355 7.28473548,3.86899355 7.36060645,3.79312258 L8.87028387,2.28267097 C8.94615484,2.2068 8.94615484,2.08370323 8.87028387,2.00783226 L8.28460645,1.42215484 C6.38938065,-0.473845161 3.31660645,-0.473845161 1.42138065,1.42215484 C-0.473845161,3.31776774 -0.473845161,6.39170323 1.42138065,8.28770323 L6.91196129,13.7806065 C8.8071871,15.6766065 11.8799613,15.6766065 13.7751871,13.7806065 C15.6704129,11.8846065 15.6704129,8.81067097 13.7751871,6.91467097" id="Fill-1" fill="#EA754B" mask="url(#mask-2)"></path>
                </g>
                <path d="M22.5788129,1.42234839 C20.6832,-0.47403871 17.6104258,-0.47403871 15.7155871,1.42234839 L11.9998452,5.13925161 L13.7754581,6.91486452 C13.7781677,6.91796129 13.7808774,6.92105806 13.7839742,6.92376774 L17.499329,3.20686452 C18.4082323,2.29912258 19.8861677,2.29912258 20.7939097,3.20686452 C21.7020387,4.11576774 21.7020387,5.59447742 20.7939097,6.50338065 L20.2090065,7.08828387 C20.1331355,7.16415484 20.1331355,7.28725161 20.2090065,7.36312258 L21.719071,8.87357419 C21.7949419,8.94944516 21.9176516,8.94944516 21.9935226,8.87357419 L22.5788129,8.28789677 C24.4732645,6.39189677 24.4732645,3.31834839 22.5788129,1.42234839" id="Fill-3" fill="#34C69A"></path>
                <path d="M19.3852645,8.18670968 C19.3093935,8.11083871 19.1866839,8.11083871 19.1108129,8.18670968 L15.3029419,11.9953548 C15.1322323,12.1660645 14.9410065,12.3050323 14.7373935,12.411871 C13.8586839,12.872129 12.7465548,12.7331613 12.0087484,11.9953548 C12.0060387,11.9926452 12.0021677,11.9883871 11.9998452,11.9856774 C11.1041032,11.079871 11.1041032,9.61432258 11.9998452,8.70851613 L10.2161032,6.924 C8.73700645,8.40967742 8.4195871,10.6153548 9.26307097,12.411871 C9.49494194,12.9069677 9.81623226,13.3722581 10.2246194,13.7810323 C10.7441032,14.3005161 11.3526194,14.6771613 11.9998452,14.912129 C12.5340387,15.1052903 13.0949419,15.2024516 13.6558452,15.2024516 C14.8984258,15.2024516 16.1398452,14.7286452 17.0878452,13.7810323 L20.895329,9.972 C20.9712,9.89612903 20.9712,9.77341935 20.895329,9.69754839 L19.3852645,8.18670968 Z" id="Fill-5" fill="#34C69A"></path>
                <path d="M22.5786194,15.7211226 L18.8636516,12.0046065 L17.0791355,13.7895097 L20.7941032,17.5060258 C21.6937161,18.4060258 21.7022323,19.8634452 20.8215871,20.7738968 C19.9157806,21.710671 18.3836516,21.6858968 17.4623613,20.7642194 L16.9142323,20.2157032 C16.8383613,20.1402194 16.7156516,20.1402194 16.6397806,20.2157032 L15.1297161,21.7265419 C15.0538452,21.8020258 15.0538452,21.9251226 15.1297161,22.0009935 L15.6546194,22.5262839 C17.5560387,24.4280903 20.7159097,24.4772516 22.6033935,22.5618968 C23.5347484,21.6166065 24.0000387,20.3852516 24.0000387,19.154671 C24.0000387,17.9120903 23.5266194,16.6691226 22.5786194,15.7211226" id="Fill-7" fill="#F6C94A"></path>
                <path d="M15.8161548,19.3919226 C15.8920258,19.3160516 15.8920258,19.1933419 15.8161548,19.117471 L12.0094452,15.3092129 C11.8383484,15.1381161 11.6989935,14.9465032 11.5925419,14.7425032 C11.1334452,13.8645677 11.2716387,12.7516645 12.0094452,12.013471 L12.0179613,12.0045677 C12.9241548,11.1080516 14.3885419,11.1080516 15.2947355,12.0045677 L17.0792516,10.2192774 C15.5924129,8.74056774 13.3875097,8.42276129 11.5925419,9.26663226 C11.0970581,9.49850323 10.6337032,9.81940645 10.224929,10.2285677 C9.70544516,10.7480516 9.3284129,11.3557935 9.09460645,12.0045677 C8.90028387,12.5379871 8.80350968,13.1004387 8.80350968,13.6621161 C8.80350968,14.9046968 9.27770323,16.1468903 10.224929,17.0941161 L14.0316387,20.9023742 C14.1075097,20.9782452 14.2302194,20.9782452 14.3060903,20.9023742 L15.8161548,19.3919226 Z" id="Fill-9" fill="#F6C94A"></path>
                <path d="M14.9120903,12.0142065 C14.8617677,11.8705935 14.8033161,11.7289161 14.7375097,11.5887871 C14.5064129,11.0929161 14.1851226,10.6284 13.7755742,10.2196258 C13.3687355,9.8120129 12.906929,9.49149677 12.4137677,9.25962581 C12.2790581,9.19536774 12.1408645,9.13923871 12.0022839,9.08852903 C10.2889935,8.46723871 8.29854194,8.84117419 6.92202581,10.2111097 L8.70615484,11.9956258 C8.87492903,11.8287871 9.06344516,11.692529 9.2631871,11.5880129 C10.142671,11.128529 11.2548,11.2674968 11.9918323,12.004529 L12.0003484,12.0134323 C12.7350581,12.756271 12.8678323,13.8745935 12.3971226,14.752529 C12.2945419,14.9464645 12.1621548,15.1280129 12.0003484,15.2913677 L13.7852516,17.0770452 C15.1478323,15.7059484 15.5244774,13.7232387 14.9120903,12.0142065" id="Fill-11" fill="#46AEE2"></path>
                <path d="M4.88539355,15.8178968 L6.92229677,13.7802194 L5.13816774,11.9957032 L3.10126452,14.0329935 C3.02539355,14.1084774 3.02539355,14.2315742 3.10126452,14.3074452 L4.61094194,15.8178968 C4.6868129,15.8937677 4.80952258,15.8937677 4.88539355,15.8178968" id="Fill-13" fill="#46AEE2"></path>
                <g id="编组" transform="translate(0.000000, 14.709677)">
                    <mask id="mask-4" fill="white">
                        <use xlink:href="#path-3"></use>
                    </mask>
                    <g id="Clip-16"></g>
                    <path d="M6.50086452,6.08322581 C5.59234839,6.99212903 4.11402581,6.99212903 3.20667097,6.08322581 C2.29815484,5.17432258 2.29815484,3.6963871 3.20667097,2.78748387 L3.78731613,2.20683871 C3.8631871,2.13096774 3.8631871,2.00787097 3.78731613,1.932 L2.27763871,0.421548387 C2.20176774,0.345677419 2.07867097,0.345677419 2.0028,0.421548387 L1.42176774,1.00296774 C-0.473845161,2.89935484 -0.473845161,5.97251613 1.42176774,7.86890323 C2.37015484,8.81651613 3.6111871,9.29148387 4.85260645,9.2903247 C6.0951871,9.2903247 7.33738065,8.81651613 8.28576774,7.86890323 L12.0003484,4.152 L10.2162194,2.36709677 L6.50086452,6.08322581 Z" id="Fill-15" fill="#46AEE2" mask="url(#mask-4)"></path>
                </g>
            </g>
            <g id="编组-2" transform="translate(32.000000, 3.000000)" fill="#282828" fill-rule="nonzero">
                <path d="M45.3326316,18.4421053 C47.2357895,18.4421053 48.6926316,18.0463158 49.7031579,17.2547368 C50.7136842,16.4631579 51.2189474,15.36 51.2189474,13.9452632 C51.2189474,12.9178947 50.9031579,12.0463158 50.2715789,11.3305263 C49.64,10.6147368 48.7852632,10.1726316 47.7073684,10.0042105 L47.7073684,10.0042105 L47.7073684,9.97894737 C48.7010526,9.77684211 49.4589474,9.33473684 49.9810526,8.65263158 C50.5031579,7.97052632 50.7642105,7.14947368 50.7642105,6.18947368 C50.7642105,4.77473684 50.3178947,3.68421053 49.4252632,2.91789474 C48.5326316,2.15157895 47.1684211,1.76842105 45.3326316,1.76842105 L45.3326316,1.76842105 L39.4463158,1.76842105 L39.4463158,18.4421053 L45.3326316,18.4421053 Z M45.3578947,9.44842105 L40.7094737,9.44842105 L40.7094737,2.93052632 L45.3578947,2.93052632 C48.0694737,2.93052632 49.4252632,4.01684211 49.4252632,6.18947368 C49.4252632,8.36210526 48.0694737,9.44842105 45.3578947,9.44842105 L45.3578947,9.44842105 Z M45.5852632,17.28 L40.7094737,17.28 L40.7094737,10.6105263 L45.5852632,10.6105263 C47.0168421,10.6105263 48.0905263,10.8926316 48.8063158,11.4568421 C49.5221053,12.0210526 49.88,12.8505263 49.88,13.9452632 C49.88,15.0231579 49.5221053,15.8484211 48.8063158,16.4210526 C48.0905263,16.9936842 47.0168421,17.28 45.5852632,17.28 L45.5852632,17.28 Z M56.3063158,18.4421053 L56.3063158,11.3684211 C56.3063158,10.4589474 56.4831579,9.65473684 56.8368421,8.95578947 C57.1905263,8.25684211 57.6536842,7.70947368 58.2263158,7.31368421 C58.7989474,6.91789474 59.4052632,6.72 60.0452632,6.72 C60.4831579,6.72 60.8115789,6.75368421 61.0305263,6.82105263 C61.2494737,6.88842105 61.4515789,6.98105263 61.6368421,7.09894737 L61.6368421,7.09894737 L61.94,5.98736842 C61.7547368,5.83578947 61.5273684,5.72631579 61.2578947,5.65894737 C60.9884211,5.59157895 60.6852632,5.55789474 60.3484211,5.55789474 C59.3547368,5.55789474 58.5042105,5.81894737 57.7968421,6.34105263 C57.0894737,6.86315789 56.5757895,7.56210526 56.2557895,8.43789474 L56.2557895,8.43789474 L56.1042105,5.81052632 L55.0431579,5.81052632 L55.0431579,18.4421053 L56.3063158,18.4421053 Z M65.2123684,3.36 C65.5323684,3.36 65.7892105,3.26315789 65.9828947,3.06947368 C66.1765789,2.87578947 66.2734211,2.61894737 66.2734211,2.29894737 C66.2734211,1.97894737 66.1765789,1.72210526 65.9828947,1.52842105 C65.7892105,1.33473684 65.5323684,1.23789474 65.2123684,1.23789474 C64.8923684,1.23789474 64.6355263,1.33473684 64.4418421,1.52842105 C64.2481579,1.72210526 64.1513158,1.97894737 64.1513158,2.29894737 C64.1513158,2.61894737 64.2481579,2.87578947 64.4418421,3.06947368 C64.6355263,3.26315789 64.8923684,3.36 65.2123684,3.36 Z M65.8439474,18.4421053 L65.8439474,5.81052632 L64.5807895,5.81052632 L64.5807895,18.4421053 L65.8439474,18.4421053 Z M75.2797368,18.6947368 C76.0713158,18.6947368 76.8081579,18.5473684 77.4902632,18.2526316 C78.1723684,17.9578947 78.745,17.5242105 79.2081579,16.9515789 C79.5555263,16.5221053 79.8152632,16.0263158 79.9873684,15.4642105 L79.9898947,15.456 L80.0544737,18.4421053 L81.1913158,18.4421053 L81.1913158,9.09494702e-13 L79.9281579,9.09494702e-13 L79.928,8.58947368 L79.8751053,8.44092632 C79.5980526,7.74063158 79.1868947,7.15587368 78.6416316,6.68665263 L78.3997368,6.49263158 C77.5660526,5.86947368 76.5681579,5.55789474 75.4060526,5.55789474 C74.3113158,5.55789474 73.3176316,5.81473684 72.425,6.32842105 C71.5323684,6.84210526 70.825,7.58736842 70.3028947,8.56421053 C69.7807895,9.54105263 69.5197368,10.7284211 69.5197368,12.1263158 C69.5197368,13.4905263 69.7681579,14.6652632 70.265,15.6505263 C70.7618421,16.6357895 71.4481579,17.3894737 72.3239474,17.9115789 C73.1997368,18.4336842 74.185,18.6947368 75.2797368,18.6947368 Z M75.4313158,17.5831579 C73.9997368,17.5831579 72.8671053,17.0947368 72.0334211,16.1178947 C71.1997368,15.1410526 70.7828947,13.8105263 70.7828947,12.1263158 C70.7828947,10.4421053 71.2039474,9.11157895 72.0460526,8.13473684 C72.8881579,7.15789474 74.0334211,6.66947368 75.4818421,6.66947368 C76.3576316,6.66947368 77.1281579,6.88421053 77.7934211,7.31368421 C78.4586842,7.74315789 78.9807895,8.35789474 79.3597368,9.15789474 C79.7386842,9.95789474 79.9281579,10.9136842 79.9281579,12.0252632 C79.9281579,13.1536842 79.7386842,14.1389474 79.3597368,14.9810526 C78.9807895,15.8231579 78.4544737,16.4673684 77.7807895,16.9136842 C77.1071053,17.36 76.3239474,17.5831579 75.4313158,17.5831579 Z M90.2181579,23.8736842 C91.3634211,23.8736842 92.3823684,23.7136842 93.275,23.3936842 C94.1676316,23.0736842 94.8707895,22.6273684 95.3844737,22.0547368 C95.8981579,21.4821053 96.155,20.8084211 96.155,20.0336842 C96.155,19.1578947 95.8013158,18.4589474 95.0939474,17.9368421 C94.3865789,17.4147368 93.4097368,17.1536842 92.1634211,17.1536842 L92.1634211,17.1536842 L88.7528947,17.1536842 C88.0623684,17.1536842 87.4939474,17.0105263 87.0476316,16.7242105 C86.6013158,16.4378947 86.3781579,16.0084211 86.3781579,15.4357895 C86.3781579,14.9136842 86.6097368,14.4884211 87.0728947,14.16 C87.4202632,13.9136842 87.8552632,13.7455263 88.3778947,13.6555263 L88.3797895,13.656 L88.6636515,13.7101215 C88.9832529,13.7645344 89.3214653,13.7985425 89.6782887,13.8121457 L90.0413158,13.8189474 C91.035,13.8189474 91.915,13.6463158 92.6813158,13.3010526 C93.4476316,12.9557895 94.0413158,12.4673684 94.4623684,11.8357895 C94.8834211,11.2042105 95.0939474,10.4842105 95.0939474,9.67578947 C95.0939474,8.85052632 94.8834211,8.13052632 94.4623684,7.51578947 C94.3044737,7.28526316 94.1223026,7.07368421 93.9158553,6.88105263 L93.7671579,6.75284211 L93.7880604,6.55750487 C93.8541813,6.09216374 94.0194834,5.70354776 94.2839669,5.39165692 L94.4244737,5.24210526 C94.8707895,4.81263158 95.5065789,4.59789474 96.3318421,4.59789474 L96.3318421,4.59789474 L96.4581579,4.59789474 L96.155,3.48631579 L96.155,3.48631579 L96.0539474,3.48631579 C95.4644737,3.48631579 94.9339474,3.61684211 94.4623684,3.87789474 C93.9907895,4.13894737 93.6202632,4.50526316 93.3507895,4.97684211 C93.1583083,5.31368421 93.0345704,5.69349087 92.9795757,6.11626208 L92.9688421,6.21726316 L92.9605921,6.21157895 L92.6813158,6.07578947 C91.915,5.73052632 91.035,5.55789474 90.0413158,5.55789474 C89.0307895,5.55789474 88.1423684,5.73052632 87.3760526,6.07578947 C86.6097368,6.42105263 86.0118421,6.90105263 85.5823684,7.51578947 C85.1528947,8.13052632 84.9381579,8.85052632 84.9381579,9.67578947 C84.9381579,10.9052632 85.3886842,11.9031579 86.2897368,12.6694737 C86.5669838,12.9052632 86.877317,13.1047773 87.2207365,13.2680162 L87.2530526,13.2821053 L87.0558967,13.3389474 C86.7348571,13.4437427 86.4479175,13.5859649 86.195078,13.765614 L86.0118421,13.9073684 C85.4813158,14.3536842 85.2160526,14.9305263 85.2160526,15.6378947 C85.2160526,16.2947368 85.4223684,16.8 85.835,17.1536842 C86.1100877,17.3894737 86.4132456,17.5803509 86.7444737,17.7263158 L86.8362105,17.7637895 L86.7960105,17.7701053 C86.1676316,17.8997895 85.6568526,18.1326316 85.2636737,18.4686316 L85.1023684,18.6189474 C84.5886842,19.1410526 84.3318421,19.7557895 84.3318421,20.4631579 C84.3318421,21.44 84.8371053,22.2526316 85.8476316,22.9010526 C86.8581579,23.5494737 88.315,23.8736842 90.2181579,23.8736842 Z M90.0413158,12.7831579 C88.9297368,12.7831579 88.0202632,12.4968421 87.3128947,11.9242105 C86.6055263,11.3515789 86.2518421,10.6021053 86.2518421,9.67578947 C86.2518421,8.74947368 86.6055263,8.00421053 87.3128947,7.44 C88.0202632,6.87578947 88.9297368,6.59368421 90.0413158,6.59368421 C91.1528947,6.59368421 92.0581579,6.87578947 92.7571053,7.44 C93.4560526,8.00421053 93.8055263,8.74947368 93.8055263,9.67578947 C93.8055263,10.6021053 93.4560526,11.3515789 92.7571053,11.9242105 C92.0581579,12.4968421 91.1528947,12.7831579 90.0413158,12.7831579 Z M90.2181579,22.8126316 C88.7528947,22.8126316 87.6034211,22.5810526 86.7697368,22.1178947 C85.9360526,21.6547368 85.5192105,21.0442105 85.5192105,20.2863158 C85.5192105,19.6631579 85.7802632,19.1663158 86.3023684,18.7957895 C86.8244737,18.4252632 87.4813158,18.24 88.2728947,18.24 L88.2728947,18.24 L91.8602632,18.24 C92.9044737,18.24 93.6834211,18.4168421 94.1971053,18.7705263 C94.7107895,19.1242105 94.9676316,19.5957895 94.9676316,20.1852632 C94.9676316,20.6736842 94.7781579,21.1157895 94.3992105,21.5115789 C94.0202632,21.9073684 93.4771053,22.2231579 92.7697368,22.4589474 C92.0623684,22.6947368 91.2118421,22.8126316 90.2181579,22.8126316 Z M103.863421,18.6947368 C104.655,18.6947368 105.379211,18.5768421 106.036053,18.3410526 C106.692895,18.1052632 107.273947,17.7726316 107.779211,17.3431579 C108.284474,16.9136842 108.688684,16.3957895 108.991842,15.7894737 L108.991842,15.7894737 L107.981316,15.2084211 C107.593947,15.9494737 107.050789,16.5305263 106.351842,16.9515789 C105.652895,17.3726316 104.815,17.5831579 103.838158,17.5831579 C102.895,17.5831579 102.065526,17.3684211 101.349737,16.9389474 C100.633947,16.5094737 100.078158,15.8821053 99.6823684,15.0568421 C99.2865789,14.2315789 99.0886842,13.2547368 99.0886842,12.1263158 L99.0926316,12.3789474 L109.118158,12.3789474 C109.126579,12.32 109.133947,12.2578947 109.140263,12.1926316 L109.156053,11.9873684 C109.164474,11.8442105 109.168684,11.6968421 109.168684,11.5452632 C109.168684,10.3663158 108.949737,9.32631579 108.511842,8.42526316 C108.073947,7.52421053 107.450789,6.82105263 106.642368,6.31578947 C105.833947,5.81052632 104.857105,5.55789474 103.711842,5.55789474 C102.600263,5.55789474 101.602368,5.81894737 100.718158,6.34105263 C99.8339474,6.86315789 99.135,7.61684211 98.6213158,8.60210526 C98.1076316,9.58736842 97.8507895,10.7621053 97.8507895,12.1263158 C97.8507895,13.4905263 98.1076316,14.6652632 98.6213158,15.6505263 C99.135,16.6357895 99.8465789,17.3894737 100.756053,17.9115789 C101.665526,18.4336842 102.701316,18.6947368 103.863421,18.6947368 Z M107.924632,11.2421053 L99.1317895,11.2421053 L99.1532456,11.0357895 C99.2249805,10.4603509 99.3564945,9.93559454 99.5477875,9.46152047 L99.6697368,9.18315789 C100.057105,8.36631579 100.596053,7.74315789 101.286579,7.31368421 C101.977105,6.88421053 102.777105,6.66947368 103.686579,6.66947368 C105.000263,6.66947368 106.031842,7.09894737 106.781316,7.95789474 C107.530789,8.81684211 107.913947,9.97052632 107.930789,11.4189474 L107.924632,11.2421053 Z" id="Bridge"></path>
                <path d="M8.03368421,18.6947368 C9.16210526,18.6947368 10.1978947,18.5178947 11.1410526,18.1642105 C12.0842105,17.8105263 12.9010526,17.2715789 13.5915789,16.5473684 C14.2821053,15.8231579 14.7873684,14.9221053 15.1073684,13.8442105 L15.1073684,13.8442105 L11.8989474,12.8842105 C11.6294737,13.8778947 11.1621053,14.6189474 10.4968421,15.1073684 C9.83157895,15.5957895 9.04421053,15.84 8.13473684,15.84 C7.15789474,15.84 6.33263158,15.6210526 5.65894737,15.1831579 C4.98526316,14.7452632 4.47578947,14.0968421 4.13052632,13.2378947 C3.78526316,12.3789474 3.61263158,11.3347368 3.61263158,10.1052632 C3.61263158,8.85894737 3.79789474,7.81052632 4.16842105,6.96 C4.53894737,6.10947368 5.06526316,5.46526316 5.74736842,5.02736842 C6.42947368,4.58947368 7.22526316,4.37052632 8.13473684,4.37052632 C9.06105263,4.37052632 9.81894737,4.58526316 10.4084211,5.01473684 C10.9978947,5.44421053 11.4357895,6.16421053 11.7221053,7.17473684 L11.7221053,7.17473684 L14.88,5.83578947 C14.5768421,4.87578947 14.1010526,4.07157895 13.4526316,3.42315789 C12.8042105,2.77473684 12.0168421,2.29473684 11.0905263,1.98315789 C10.1642105,1.67157895 9.12842105,1.51578947 7.98315789,1.51578947 C6.36631579,1.51578947 4.95578947,1.86105263 3.75157895,2.55157895 C2.54736842,3.24210526 1.62105263,4.22736842 0.972631579,5.50736842 C0.324210526,6.78736842 0,8.32 0,10.1052632 C0,11.8905263 0.324210526,13.4231579 0.972631579,14.7031579 C1.62105263,15.9831579 2.54736842,16.9684211 3.75157895,17.6589474 C4.95578947,18.3494737 6.38315789,18.6947368 8.03368421,18.6947368 Z M20.1094737,18.4421053 L23.6968421,12.5305263 L27.3347368,18.4421053 L31.4778947,18.4421053 L25.8189474,9.90315789 L31.1747368,1.76842105 L27.3852632,1.76842105 L23.9747368,7.37684211 L20.6147368,1.76842105 L16.5221053,1.76842105 L21.8526316,10.0294737 L16.1178947,18.4421053 L20.1094737,18.4421053 Z" id="CX"></path>
            </g>
        </g>
    </g>
</svg>