<?xml version="1.0" encoding="UTF-8"?>
<svg width="24px" height="24px" viewBox="0 0 24 24" version="1.1" xmlns="http://www.w3.org/2000/svg" xmlns:xlink="http://www.w3.org/1999/xlink">
    <!-- Generator: Sketch 61.2 (89653) - https://sketch.com -->
    <title>ChainX Logo</title>
    <desc>Created with Sketch.</desc>
    <defs>
        <polygon id="path-1" points="0 0.00015483871 15.1966065 0.00015483871 15.1966065 15.2026065 0 15.2026065"></polygon>
        <polygon id="path-3" points="5.80645161e-05 0.364645161 12.0003484 0.364645161 12.0003484 9.29032258 5.80645161e-05 9.29032258"></polygon>
    </defs>
    <g id="1.0" stroke="none" stroke-width="1" fill="none" fill-rule="evenodd">
        <g id="007" transform="translate(-40.000000, -24.000000)">
            <g id="logo" transform="translate(40.000000, 24.000000)">
                <g id="编组-3">
                    <g id="编组-7">
                        <g id="ChainX-Logo">
                            <g id="编组">
                                <mask id="mask-2" fill="white">
                                    <use xlink:href="#path-1"></use>
                                </mask>
                                <g id="Clip-2"></g>
                                <path d="M13.7751871,6.91467097 L9.96847742,3.1064129 C9.89260645,3.03054194 9.76950968,3.03054194 9.69402581,3.1064129 L8.18396129,4.61686452 C8.10809032,4.69273548 8.10809032,4.81583226 8.18396129,4.89131613 L11.9531226,8.6624129 C12.8748,9.58409032 12.8991871,11.1173806 11.9624129,12.0235742 C11.0519613,12.9038323 9.59531613,12.8945419 8.69647742,11.9953161 L3.20589677,6.5028 C2.30705806,5.60357419 2.29776774,4.14654194 3.17802581,3.23570323 C4.08344516,2.29815484 5.61634839,2.32254194 6.53763871,3.24460645 L7.08576774,3.79312258 C7.16163871,3.86899355 7.28473548,3.86899355 7.36060645,3.79312258 L8.87028387,2.28267097 C8.94615484,2.2068 8.94615484,2.08370323 8.87028387,2.00783226 L8.28460645,1.42215484 C6.38938065,-0.473845161 3.31660645,-0.473845161 1.42138065,1.42215484 C-0.473845161,3.31776774 -0.473845161,6.39170323 1.42138065,8.28770323 L6.91196129,13.7806065 C8.8071871,15.6766065 11.8799613,15.6766065 13.7751871,13.7806065 C15.6704129,11.8846065 15.6704129,8.81067097 13.7751871,6.91467097" id="Fill-1" fill="#EA754B" mask="url(#mask-2)"></path>
                            </g>
                            <path d="M22.5788129,1.42234839 C20.6832,-0.47403871 17.6104258,-0.47403871 15.7155871,1.42234839 L11.9998452,5.13925161 L13.7754581,6.91486452 C13.7781677,6.91796129 13.7808774,6.92105806 13.7839742,6.92376774 L17.499329,3.20686452 C18.4082323,2.29912258 19.8861677,2.29912258 20.7939097,3.20686452 C21.7020387,4.11576774 21.7020387,5.59447742 20.7939097,6.50338065 L20.2090065,7.08828387 C20.1331355,7.16415484 20.1331355,7.28725161 20.2090065,7.36312258 L21.719071,8.87357419 C21.7949419,8.94944516 21.9176516,8.94944516 21.9935226,8.87357419 L22.5788129,8.28789677 C24.4732645,6.39189677 24.4732645,3.31834839 22.5788129,1.42234839" id="Fill-3" fill="#34C69A"></path>
                            <path d="M19.3852645,8.18670968 C19.3093935,8.11083871 19.1866839,8.11083871 19.1108129,8.18670968 L15.3029419,11.9953548 C15.1322323,12.1660645 14.9410065,12.3050323 14.7373935,12.411871 C13.8586839,12.872129 12.7465548,12.7331613 12.0087484,11.9953548 C12.0060387,11.9926452 12.0021677,11.9883871 11.9998452,11.9856774 C11.1041032,11.079871 11.1041032,9.61432258 11.9998452,8.70851613 L10.2161032,6.924 C8.73700645,8.40967742 8.4195871,10.6153548 9.26307097,12.411871 C9.49494194,12.9069677 9.81623226,13.3722581 10.2246194,13.7810323 C10.7441032,14.3005161 11.3526194,14.6771613 11.9998452,14.912129 C12.5340387,15.1052903 13.0949419,15.2024516 13.6558452,15.2024516 C14.8984258,15.2024516 16.1398452,14.7286452 17.0878452,13.7810323 L20.895329,9.972 C20.9712,9.89612903 20.9712,9.77341935 20.895329,9.69754839 L19.3852645,8.18670968 Z" id="Fill-5" fill="#34C69A"></path>
                            <path d="M22.5786194,15.7211226 L18.8636516,12.0046065 L17.0791355,13.7895097 L20.7941032,17.5060258 C21.6937161,18.4060258 21.7022323,19.8634452 20.8215871,20.7738968 C19.9157806,21.710671 18.3836516,21.6858968 17.4623613,20.7642194 L16.9142323,20.2157032 C16.8383613,20.1402194 16.7156516,20.1402194 16.6397806,20.2157032 L15.1297161,21.7265419 C15.0538452,21.8020258 15.0538452,21.9251226 15.1297161,22.0009935 L15.6546194,22.5262839 C17.5560387,24.4280903 20.7159097,24.4772516 22.6033935,22.5618968 C23.5347484,21.6166065 24.0000387,20.3852516 24.0000387,19.154671 C24.0000387,17.9120903 23.5266194,16.6691226 22.5786194,15.7211226" id="Fill-7" fill="#F6C94A"></path>
                            <path d="M15.8161548,19.3919226 C15.8920258,19.3160516 15.8920258,19.1933419 15.8161548,19.117471 L12.0094452,15.3092129 C11.8383484,15.1381161 11.6989935,14.9465032 11.5925419,14.7425032 C11.1334452,13.8645677 11.2716387,12.7516645 12.0094452,12.013471 L12.0179613,12.0045677 C12.9241548,11.1080516 14.3885419,11.1080516 15.2947355,12.0045677 L17.0792516,10.2192774 C15.5924129,8.74056774 13.3875097,8.42276129 11.5925419,9.26663226 C11.0970581,9.49850323 10.6337032,9.81940645 10.224929,10.2285677 C9.70544516,10.7480516 9.3284129,11.3557935 9.09460645,12.0045677 C8.90028387,12.5379871 8.80350968,13.1004387 8.80350968,13.6621161 C8.80350968,14.9046968 9.27770323,16.1468903 10.224929,17.0941161 L14.0316387,20.9023742 C14.1075097,20.9782452 14.2302194,20.9782452 14.3060903,20.9023742 L15.8161548,19.3919226 Z" id="Fill-9" fill="#F6C94A"></path>
                            <path d="M14.9120903,12.0142065 C14.8617677,11.8705935 14.8033161,11.7289161 14.7375097,11.5887871 C14.5064129,11.0929161 14.1851226,10.6284 13.7755742,10.2196258 C13.3687355,9.8120129 12.906929,9.49149677 12.4137677,9.25962581 C12.2790581,9.19536774 12.1408645,9.13923871 12.0022839,9.08852903 C10.2889935,8.46723871 8.29854194,8.84117419 6.92202581,10.2111097 L8.70615484,11.9956258 C8.87492903,11.8287871 9.06344516,11.692529 9.2631871,11.5880129 C10.142671,11.128529 11.2548,11.2674968 11.9918323,12.004529 L12.0003484,12.0134323 C12.7350581,12.756271 12.8678323,13.8745935 12.3971226,14.752529 C12.2945419,14.9464645 12.1621548,15.1280129 12.0003484,15.2913677 L13.7852516,17.0770452 C15.1478323,15.7059484 15.5244774,13.7232387 14.9120903,12.0142065" id="Fill-11" fill="#46AEE2"></path>
                            <path d="M4.88539355,15.8178968 L6.92229677,13.7802194 L5.13816774,11.9957032 L3.10126452,14.0329935 C3.02539355,14.1084774 3.02539355,14.2315742 3.10126452,14.3074452 L4.61094194,15.8178968 C4.6868129,15.8937677 4.80952258,15.8937677 4.88539355,15.8178968" id="Fill-13" fill="#46AEE2"></path>
                            <g id="编组" transform="translate(0.000000, 14.709677)">
                                <mask id="mask-4" fill="white">
                                    <use xlink:href="#path-3"></use>
                                </mask>
                                <g id="Clip-16"></g>
                                <path d="M6.50086452,6.08322581 C5.59234839,6.99212903 4.11402581,6.99212903 3.20667097,6.08322581 C2.29815484,5.17432258 2.29815484,3.6963871 3.20667097,2.78748387 L3.78731613,2.20683871 C3.8631871,2.13096774 3.8631871,2.00787097 3.78731613,1.932 L2.27763871,0.421548387 C2.20176774,0.345677419 2.07867097,0.345677419 2.0028,0.421548387 L1.42176774,1.00296774 C-0.473845161,2.89935484 -0.473845161,5.97251613 1.42176774,7.86890323 C2.37015484,8.81651613 3.6111871,9.29148387 4.85260645,9.2903247 C6.0951871,9.2903247 7.33738065,8.81651613 8.28576774,7.86890323 L12.0003484,4.152 L10.2162194,2.36709677 L6.50086452,6.08322581 Z" id="Fill-15" fill="#46AEE2" mask="url(#mask-4)"></path>
                            </g>
                        </g>
                    </g>
                </g>
            </g>
        </g>
    </g>
</svg>