<?xml version="1.0" encoding="UTF-8"?>
<svg width="12px" height="12px" viewBox="0 0 12 12" version="1.1" xmlns="http://www.w3.org/2000/svg" xmlns:xlink="http://www.w3.org/1999/xlink">
    <!-- Generator: Sketch 61.2 (89653) - https://sketch.com -->
    <title>create-24px</title>
    <desc>Created with Sketch.</desc>
    <g id="1.0" stroke="none" stroke-width="1" fill="none" fill-rule="evenodd">
        <g id="014" transform="translate(-691.000000, -319.000000)">
            <g id="create-24px" transform="translate(690.000000, 318.000000)">
                <polygon id="路径" points="0 0 14 0 14 14 0 14"></polygon>
                <path d="M1.75,10.185 L1.75,11.9583333 C1.75,12.1216667 1.87833333,12.25 2.04166667,12.25 L3.815,12.25 C3.89083333,12.25 3.96666667,12.2208333 4.01916667,12.1625 L10.3891667,5.79833333 L8.20166667,3.61083333 L1.8375,9.975 C1.77916667,10.0333333 1.75,10.1033333 1.75,10.185 Z M12.0808333,4.10666667 C12.3083333,3.87916667 12.3083333,3.51166667 12.0808333,3.28416667 L10.7158333,1.91916667 C10.4883333,1.69166667 10.1208333,1.69166667 9.89333333,1.91916667 L8.82583333,2.98666667 L11.0133333,5.17416667 L12.0808333,4.10666667 Z" id="形状" fill="#F6C94A" fill-rule="nonzero"></path>
            </g>
        </g>
    </g>
</svg>