<?xml version="1.0" encoding="UTF-8"?>
<svg width="20px" height="20px" viewBox="0 0 20 20" version="1.1" xmlns="http://www.w3.org/2000/svg" xmlns:xlink="http://www.w3.org/1999/xlink">
    <!-- Generator: Sketch 61.2 (89653) - https://sketch.com -->
    <title>Help center</title>
    <desc>Created with Sketch.</desc>
    <g id="Help-center" stroke="none" stroke-width="1" fill="none" fill-rule="evenodd">
        <path d="M10,0 C15.5228475,0 20,4.4771525 20,10 C20,15.5228475 15.5228475,20 10,20 C4.4771525,20 0,15.5228475 0,10 C0,4.4771525 4.4771525,0 10,0 Z M10.15,14.1 L9.85,14.1 C9.15964406,14.1 8.6,14.6596441 8.6,15.35 C8.6,16.0403559 9.15964406,16.6 9.85,16.6 L10.15,16.6 C10.8403559,16.6 11.4,16.0403559 11.4,15.35 C11.4,14.6596441 10.8403559,14.1 10.15,14.1 Z M10.0102302,3.5 C9.27365729,3.5 8.60187553,3.65487572 7.99488491,3.96462715 C7.38789429,4.27437859 6.90366581,4.69311663 6.54219949,5.2208413 C6.18073316,5.74856597 6,6.33365201 6,6.97609943 L6,8.23231358 C6,8.27820268 6.02728048,8.30114723 6.08184143,8.30114723 L8.39386189,8.30114723 C8.44842285,8.30114723 8.47570332,8.27820268 8.47570332,8.23231358 L8.47570332,6.97609943 C8.47570332,6.57456979 8.62233589,6.23900574 8.91560102,5.96940727 C9.20886616,5.6998088 9.57374254,5.56500956 10.0102302,5.56500956 C10.4467178,5.56500956 10.8081841,5.6998088 11.0946292,5.96940727 C11.3810742,6.23900574 11.5242967,6.57456979 11.5242967,6.97609943 C11.5242967,7.19407266 11.4970162,7.3833652 11.4424552,7.54397706 C11.3878943,7.70458891 11.2651321,7.87954111 11.0741688,8.06883365 C10.8832055,8.2581262 10.5831202,8.5248566 10.173913,8.86902486 C9.7374254,9.23613767 9.39300938,9.65200765 9.14066496,10.1166348 C8.88832055,10.581262 8.76214834,11.043021 8.76214834,11.501912 L8.76214834,12.4311663 C8.76214834,12.4770554 8.79624893,12.5 8.86445013,12.5 L11.1355499,12.5 C11.2037511,12.5 11.2378517,12.4770554 11.2378517,12.4311663 L11.2378517,11.6051625 C11.2378517,11.3298279 11.3094629,11.0774379 11.4526854,10.8479924 C11.5959079,10.6185468 11.8380222,10.3604207 12.1790281,10.0736138 C12.683717,9.60325048 13.0656436,9.21032505 13.3248082,8.89483748 C13.5839727,8.5793499 13.7612958,8.27533461 13.8567775,7.98279159 C13.9522592,7.69024857 14,7.35468451 14,6.97609943 C14,6.33365201 13.8226769,5.74856597 13.4680307,5.2208413 C13.1133845,4.69311663 12.6325661,4.27437859 12.0255754,3.96462715 C11.4185848,3.65487572 10.7468031,3.5 10.0102302,3.5 Z" fill="#ADADAD"></path>
    </g>
</svg>