<?xml version="1.0" encoding="UTF-8"?>
<svg width="20px" height="20px" viewBox="0 0 20 20" version="1.1" xmlns="http://www.w3.org/2000/svg" xmlns:xlink="http://www.w3.org/1999/xlink">
    <!-- Generator: Sketch 61.2 (89653) - https://sketch.com -->
    <title>Set up</title>
    <desc>Created with Sketch.</desc>
    <g id="Set-up" stroke="none" stroke-width="1" fill="none" fill-rule="evenodd">
        <g id="set-up">
            <rect id="矩形" x="0" y="0" width="20" height="20"></rect>
            <path d="M13.2882768,0.415158026 L13.372947,0.450831089 L16.7995614,2.36549455 C16.9937467,2.46730965 17.0795852,2.68927486 17.0402038,2.88994221 L17.0156104,2.97422617 L16.171,4.978 L17.388,7.141 L19.5808475,7.41734705 C19.7917377,7.46014955 19.9622871,7.61263686 19.9948013,7.8178207 L20,7.9088168 L19.94484,11.8336836 C19.9359218,12.0527606 19.7993734,12.2303329 19.6020343,12.3026124 L19.5139334,12.3269569 L17.517,12.629 L16.145,15.069 L16.8546127,16.8338004 C16.9234157,17.040917 16.8673139,17.2625515 16.7064311,17.3988914 L16.6311248,17.4518096 L13.1493504,19.462013 C12.9589409,19.571946 12.7332685,19.5438489 12.574291,19.4196496 L12.5105384,19.3606598 L11.443,18 L8.403,18 L7.27783707,19.4102773 C7.13574979,19.5745914 6.92020578,19.6373258 6.71986676,19.5724898 L6.63519659,19.5368167 L3.2085822,17.6221532 C3.01439689,17.5203381 2.92368618,17.315585 2.95639384,17.1097713 L2.97802579,17.0217975 L3.82,15.021 L2.587,12.828 L0.419152529,12.5561956 C0.208262285,12.5133931 0.0377128939,12.3609058 0.0051986979,12.155722 L0,12.0647259 L0.055159995,8.13985901 C0.0640781881,7.92078205 0.200626551,7.74320979 0.397965688,7.67093025 L0.486066621,7.64658576 L2.491,7.342 L3.859,4.91 L3.15353088,3.1538474 C3.08472791,2.94673076 3.14082975,2.72509631 3.30171256,2.58875644 L3.37701882,2.53583819 L6.85879321,0.525634809 C7.04920274,0.415701812 7.27487507,0.443798863 7.43385262,0.567998177 L7.49760525,0.626988029 L8.574,2 L11.593,2 L12.7303065,0.577370549 C12.8723938,0.413056406 13.0879378,0.350322026 13.2882768,0.415158026 Z M7.55872475,5.76358741 C5.22170769,7.11286484 4.42098652,10.101197 5.77026394,12.438214 C7.11954137,14.7752311 10.1078735,15.5759522 12.4448905,14.2266748 C14.7819076,12.8773974 15.5826288,9.88906527 14.2333513,7.55204822 C12.8840739,5.21503117 9.8957418,4.41430999 7.55872475,5.76358741 Z M11.440127,7.5 L12.8835027,10 L11.440127,12.5 L8.55337567,12.5 L7.11,10 L8.55337567,7.5 L11.440127,7.5 Z" id="形状结合" fill="#ADADAD" fill-rule="nonzero"></path>
        </g>
    </g>
</svg>