<?xml version="1.0" encoding="UTF-8"?>
<svg width="16px" height="16px" viewBox="0 0 16 16" version="1.1" xmlns="http://www.w3.org/2000/svg" xmlns:xlink="http://www.w3.org/1999/xlink">
    <!-- Generator: Sketch 61.2 (89653) - https://sketch.com -->
    <title>失败</title>
    <desc>Created with Sketch.</desc>
    <g id="1.0" stroke="none" stroke-width="1" fill="none" fill-rule="evenodd">
        <g id="012" transform="translate(-886.000000, -340.000000)" fill="#FF3B30" fill-rule="nonzero">
            <g id="分组-copy-8" transform="translate(866.000000, 320.000000)">
                <g id="失败" transform="translate(20.000000, 20.000000)">
                    <path d="M8,0 C12.4108108,0 16,3.58918919 16,8 C16,12.4108108 12.4108108,16 8,16 C3.58918919,16 0,12.4108108 0,8 C0,3.58918919 3.58918919,0 8,0 Z M5.87867966,4.46446609 C5.48815536,4.0739418 4.85499039,4.0739418 4.46446609,4.46446609 C4.0739418,4.85499039 4.0739418,5.48815536 4.46446609,5.87867966 L4.46446609,5.87867966 L6.586,8 L4.46446609,10.1213203 C4.10398213,10.4818043 4.0762526,11.0490354 4.38127749,11.4413266 L4.46446609,11.5355339 C4.85499039,11.9260582 5.48815536,11.9260582 5.87867966,11.5355339 L5.87867966,11.5355339 L8,9.414 L10.1213203,11.5355339 C10.4818043,11.8960179 11.0490354,11.9237474 11.4413266,11.6187225 L11.5355339,11.5355339 C11.9260582,11.1450096 11.9260582,10.5118446 11.5355339,10.1213203 L11.5355339,10.1213203 L9.414,8 L11.5355339,5.87867966 C11.8960179,5.51819569 11.9237474,4.95096464 11.6187225,4.55867343 L11.5355339,4.46446609 C11.1450096,4.0739418 10.5118446,4.0739418 10.1213203,4.46446609 L10.1213203,4.46446609 L8,6.586 Z" id="合并形状"></path>
                </g>
            </g>
        </g>
    </g>
</svg>