<?xml version="1.0" encoding="UTF-8"?>
<svg width="24px" height="24px" viewBox="0 0 24 24" version="1.1" xmlns="http://www.w3.org/2000/svg" xmlns:xlink="http://www.w3.org/1999/xlink">
    <!-- Generator: Sketch 61.2 (89653) - https://sketch.com -->
    <title>操作面板</title>
    <desc>Created with Sketch.</desc>
    <defs>
        <path d="M9.52254993,11.8246925 L9.52254993,17.5382225 C9.52254993,18.0619627 9.95106467,18.4904775 10.4748049,18.4904775 L16.1883349,18.4904775 C16.7120751,18.4904775 17.1405899,18.0619627 17.1405899,17.5382225 L17.1405899,11.8246925 C17.1405899,11.3009523 16.7120751,10.8724375 16.1883349,10.8724375 L10.4748049,10.8724375 C9.95106467,10.8724375 9.52254993,11.3009523 9.52254993,11.8246925 Z M0.952254993,18.4904775 L6.66578495,18.4904775 C7.1895252,18.4904775 7.61803994,18.0619627 7.61803994,17.5382225 L7.61803994,11.8246925 C7.61803994,11.3009523 7.1895252,10.8724375 6.66578495,10.8724375 L0.952254993,10.8724375 C0.428514747,10.8724375 0,11.3009523 0,11.8246925 L0,17.5382225 C0,18.0619627 0.428514747,18.4904775 0.952254993,18.4904775 Z M0,2.30214257 L0,8.01567253 C0,8.53941278 0.428514747,8.96792752 0.952254993,8.96792752 L6.66578495,8.96792752 C7.1895252,8.96792752 7.61803994,8.53941278 7.61803994,8.01567253 L7.61803994,2.30214257 C7.61803994,1.77840233 7.1895252,1.34988758 6.66578495,1.34988758 L0.952254993,1.34988758 C0.428514747,1.34988758 0,1.77840233 0,2.30214257 Z M12.3317022,0.778534585 L8.28461844,4.81609575 C7.91323899,5.1874752 7.91323899,5.78739585 8.28461844,6.15877529 L12.3317022,10.205859 C12.7030816,10.5772385 13.3030022,10.5772385 13.6743817,10.205859 L17.7214654,6.15877529 C18.0928449,5.78739585 18.0928449,5.1874752 17.7214654,4.81609575 L13.6839042,0.778534585 C13.3125248,0.407155138 12.7030816,0.407155138 12.3317022,0.778534585 Z" id="path-1"></path>
    </defs>
    <g id="操作面板" stroke="none" stroke-width="1" fill="none" fill-rule="evenodd">
        <g id="widgets-24px">
            <polygon id="路径" points="0 0 24 0 24 24 0 24"></polygon>
            <g id="选中" transform="translate(3.000000, 2.000000)">
                <mask id="mask-2" fill="white">
                    <use xlink:href="#path-1"></use>
                </mask>
                <use id="蒙版" fill="#8E8E8E" fill-rule="nonzero" xlink:href="#path-1"></use>
                <g mask="url(#mask-2)" fill="#3D3D3D" id="矩形">
                    <g transform="translate(-3.000000, -2.000000)">
                        <rect x="0" y="0" width="24" height="24"></rect>
                    </g>
                </g>
            </g>
        </g>
    </g>
</svg>