<?xml version="1.0" encoding="UTF-8"?>
<svg width="17px" height="16px" viewBox="0 0 17 16" version="1.1" xmlns="http://www.w3.org/2000/svg" xmlns:xlink="http://www.w3.org/1999/xlink">
    <!-- Generator: Sketch 61.2 (89653) - https://sketch.com -->
    <title>编组 20</title>
    <desc>Created with Sketch.</desc>
    <g id="1.0" stroke="none" stroke-width="1" fill="none" fill-rule="evenodd" opacity="0.5">
        <g id="001" transform="translate(-716.000000, -574.000000)">
            <g id="编组-22" transform="translate(714.000000, 572.000000)">
                <g id="编组-20">
                    <rect id="矩形" x="0" y="0" width="20" height="20"></rect>
                    <g id="github-(1)" transform="translate(2.163009, 2.163009)" fill="#FFFFFF" fill-rule="nonzero">
                        <path d="M15.9964615,7.99953235 C15.9964615,9.74191882 15.4879762,11.3090254 14.4710056,12.700852 C13.454035,14.0926787 12.1403034,15.0558505 10.5298107,15.5903675 C10.3423827,15.6250764 10.2052826,15.6007801 10.1185103,15.5174788 C10.0317381,15.4341774 9.98835196,15.3300508 9.98835197,15.2050987 L9.98835197,13.0080258 C9.98835197,12.3346732 9.80786572,11.8418069 9.44689322,11.5294269 C9.84257462,11.4877762 10.1983408,11.4253002 10.5141917,11.3419988 C10.8300427,11.2586975 11.1563063,11.1233328 11.4929825,10.9359048 C11.8296588,10.7484768 12.1108008,10.5176626 12.3364087,10.2434623 C12.5620165,9.96926206 12.7459736,9.60481867 12.8882801,9.15013218 C13.0305865,8.69544569 13.1017398,8.17307683 13.1017398,7.58302562 C13.1017398,6.74307038 12.8275395,6.02806716 12.279139,5.43801596 C12.5359848,4.80631409 12.5082177,4.09825266 12.1958376,3.31383166 C12.0014678,3.25135565 11.7203258,3.28953543 11.3524115,3.428371 C10.9844972,3.56720657 10.6651754,3.71992571 10.394446,3.8865284 L9.99876465,4.13643244 C9.35317922,3.95594619 8.68676845,3.86570307 7.99953235,3.86570307 C7.31229624,3.86570307 6.64588547,3.95594619 6.00030005,4.13643244 C5.88923159,4.06007288 5.74171879,3.96635887 5.55776165,3.85529041 C5.37380452,3.74422195 5.08398525,3.61059271 4.68830385,3.45440268 C4.29262246,3.29821266 3.99412597,3.25135565 3.79281439,3.31383166 C3.48737612,4.09825267 3.4630799,4.8063141 3.71992571,5.43801596 C3.17152519,6.02806716 2.89732493,6.74307038 2.89732493,7.58302562 C2.89732493,8.17307682 2.96847816,8.69371023 3.11078463,9.14492585 C3.2530911,9.59614147 3.43531279,9.96058486 3.65744971,10.238256 C3.87958663,10.5159272 4.15899323,10.7484768 4.4956695,10.9359048 C4.83234578,11.1233328 5.15860938,11.2586975 5.4744603,11.3419988 C5.79031122,11.4253002 6.14607739,11.4877762 6.5417588,11.5294269 C6.26408764,11.7793309 6.09401406,12.1368325 6.03153806,12.6019317 C5.8857607,12.6713495 5.72957068,12.7234128 5.56296798,12.7581217 C5.39636529,12.7928306 5.19852459,12.810185 4.9694459,12.8101851 C4.74036721,12.8101851 4.51302396,12.7355609 4.28741613,12.5863127 C4.0618083,12.4370644 3.86917394,12.2201339 3.70951305,11.9355209 C3.57761926,11.713384 3.40928112,11.5328978 3.20449864,11.3940622 C2.99971617,11.2552266 2.82790714,11.1719253 2.68907157,11.1441582 L2.4808182,11.1129201 C2.33504084,11.1129201 2.23438505,11.1285391 2.17885083,11.1597771 C2.12331661,11.1910151 2.10596216,11.2309304 2.12678749,11.2795228 C2.14761281,11.3281153 2.17885082,11.3767077 2.2205015,11.4253002 C2.26215218,11.4738926 2.30727374,11.5155433 2.35586618,11.5502522 L2.42875485,11.6023155 C2.58147399,11.6717333 2.73245768,11.8036271 2.88170592,11.9979969 C3.03095416,12.1923667 3.14028718,12.3693821 3.20970497,12.529043 L3.31383166,12.7685344 C3.40407478,13.032322 3.55679391,13.2457817 3.77198906,13.4089135 C3.9871842,13.5720453 4.21973379,13.676172 4.46963782,13.7212935 C4.71954185,13.7664151 4.96076867,13.7907113 5.19331827,13.7941822 C5.42586787,13.7976531 5.61850223,13.785505 5.77122136,13.7577379 L6.01071272,13.7160872 C6.01071272,13.9798748 6.01244817,14.2887839 6.01591905,14.6428147 C6.01938994,14.9968454 6.02112538,15.1842734 6.02112538,15.2050987 C6.02112538,15.3300507 5.97600382,15.4341774 5.8857607,15.5174788 C5.79551758,15.6007802 5.65668201,15.6250764 5.46925397,15.5903675 C3.85876128,15.0558505 2.54502965,14.0926787 1.52805906,12.700852 C0.511088476,11.3090254 0.00260316445,9.74191882 0.00260316445,7.99953235 C0.00260316445,6.54870058 0.360104774,5.21067272 1.07510799,3.98544876 C1.79011121,2.7602248 2.7602248,1.79011121 3.98544876,1.07510799 C5.21067272,0.360104774 6.54870058,0.00260316445 7.99953235,0.00260316445 C9.45036411,0.00260316445 10.788392,0.360104774 12.0136159,1.07510799 C13.2388399,1.79011121 14.2089535,2.7602248 14.9239567,3.98544876 C15.6389599,5.21067272 15.9964615,6.54870058 15.9964615,7.99953235 Z" id="路径"></path>
                    </g>
                </g>
            </g>
        </g>
    </g>
</svg>