<?xml version="1.0" encoding="UTF-8"?>
<svg width="17px" height="14px" viewBox="0 0 17 14" version="1.1" xmlns="http://www.w3.org/2000/svg" xmlns:xlink="http://www.w3.org/1999/xlink">
    <!-- Generator: Sketch 61.2 (89653) - https://sketch.com -->
    <title>编组 19</title>
    <desc>Created with Sketch.</desc>
    <g id="1.0" stroke="none" stroke-width="1" fill="none" fill-rule="evenodd" opacity="0.5">
        <g id="001" transform="translate(-795.000000, -575.000000)">
            <g id="编组-22" transform="translate(714.000000, 572.000000)">
                <g id="编组-19" transform="translate(80.000000, 0.000000)">
                    <rect id="矩形" x="0" y="0" width="20" height="20"></rect>
                    <g id="telegram" transform="translate(1.388889, 3.333333)" fill-rule="nonzero">
                        <path d="M5.94119633,12.5100033 C5.47133522,12.5100033 5.55096155,12.3307705 5.38907663,11.8823578 L4.00515797,7.30563822 L14.6507367,0.957754635" id="路径"></path>
                        <path d="M5.94119633,12.5100033 C6.3044503,12.5100033 6.46436101,12.3433366 6.66836234,12.1442626 L8.60374262,10.2547123 L6.18797212,8.79042659" id="路径" fill="#8E8E8E"></path>
                        <path d="M6.18797212,8.79042659 L12.0382036,13.1343419 C12.7061434,13.5047123 13.1885078,13.3135747 13.3543412,12.5113261 L15.7365502,1.2328869 C15.9813517,0.249421301 15.3653994,-0.195023143 14.7270727,0.095320762 L0.740478732,5.51661706 C-0.213721009,5.9015377 -0.209114522,6.43725198 0.566748573,6.6760086 L4.15651379,7.80034722 L12.4639741,2.53381283 C12.855525,2.29571759 13.2161467,2.4233631 12.9206738,2.68725198" id="路径" fill="#FFFFFF"></path>
                    </g>
                </g>
            </g>
        </g>
    </g>
</svg>