<?xml version="1.0" encoding="UTF-8"?>
<svg width="267px" height="32px" viewBox="0 0 267 32" version="1.1" xmlns="http://www.w3.org/2000/svg" xmlns:xlink="http://www.w3.org/1999/xlink">
    <!-- Generator: Sketch 61.2 (89653) - https://sketch.com -->
    <title>编组 4</title>
    <desc>Created with Sketch.</desc>
    <g id="2.0" stroke="none" stroke-width="1" fill="none" fill-rule="evenodd">
        <g id="未安装插件（可供选择版本3）" transform="translate(-506.000000, -394.000000)" fill-rule="nonzero">
            <g id="编组-5" transform="translate(460.000000, 382.000000)">
                <g id="编组-4" transform="translate(46.000000, 12.000000)">
                    <g id="logo">
                        <circle id="椭圆形" fill="#FF8C00" cx="16" cy="16" r="16"></circle>
                        <path d="M16,4.50285714 C11.2457143,4.50285714 7.36,8.36571429 7.36,13.1428571 C7.36,14.1028571 7.52,15.04 7.81714286,15.9542857 C8.02285714,16.5714286 8.70857143,16.9142857 9.34857143,16.7085714 C9.96571429,16.5028571 10.3085714,15.8171429 10.1028571,15.1771429 C9.85142857,14.4685714 9.73714286,13.7142857 9.76,12.96 C9.85142857,9.73714286 12.4571429,7.08571429 15.68,6.92571429 C19.2685714,6.74285714 22.24,9.6 22.24,13.1428571 C22.24,16.4571429 19.6342857,19.1771429 16.3657143,19.36 C16.3657143,19.36 15.1542857,19.4285714 14.56,19.52 C14.2628571,19.5657143 14.0342857,19.6114286 13.8742857,19.6342857 C13.8057143,19.6571429 13.7371429,19.5885714 13.76,19.52 L13.9657143,18.5142857 L15.0857143,13.3485714 C15.2228571,12.7085714 14.8114286,12.0685714 14.1714286,11.9314286 C13.5314286,11.7942857 12.8914286,12.2057143 12.7542857,12.8457143 C12.7542857,12.8457143 10.0571429,25.4171429 10.0342857,25.5542857 C9.89714286,26.1942857 10.3085714,26.8342857 10.9485714,26.9714286 C11.5885714,27.1085714 12.2285714,26.6971429 12.3657143,26.0571429 C12.3885714,25.92 12.7542857,24.2514286 12.7542857,24.2514286 C13.0285714,22.9714286 14.08,22.0342857 15.3142857,21.8742857 C15.5885714,21.8285714 16.6628571,21.76 16.6628571,21.76 C21.12,21.4171429 24.64,17.6914286 24.64,13.1428571 C24.64,8.36571429 20.7542857,4.50285714 16,4.50285714 Z M16.6171429,24.3885714 C15.84,24.2285714 15.0628571,24.7085714 14.9028571,25.5085714 C14.7428571,26.2857143 15.2228571,27.0628571 16.0228571,27.2228571 C16.8,27.3828571 17.5771429,26.9028571 17.7371429,26.1028571 C17.8971429,25.3028571 17.4171429,24.5485714 16.6171429,24.3885714 Z" id="形状" fill="#FFFFFF"></path>
                    </g>
                    <path d="M46.2862222,24 L46.2862222,17.7706667 L50.7448889,17.7706667 C54.2435556,17.7706667 56.0142222,16.256 56.0142222,13.248 C56.0142222,10.2613333 54.2648889,8.768 50.7662222,8.768 L44.5368889,8.768 L44.5368889,24 L46.2862222,24 Z M50.6595556,16.256 L46.2862222,16.256 L46.2862222,10.2826667 L50.6595556,10.2826667 C51.8755556,10.2826667 52.7715556,10.5173333 53.3688889,11.0293333 C53.9662222,11.4773333 54.2648889,12.224 54.2648889,13.248 C54.2648889,14.272 53.9662222,15.0186667 53.3902222,15.5093333 C52.7928889,16 51.8968889,16.256 50.6595556,16.256 Z M62.9475556,24.2986667 C64.5902222,24.2986667 65.9128889,23.7226667 66.9155556,22.5706667 C67.8328889,21.504 68.3022222,20.1386667 68.3022222,18.496 C68.3022222,16.832 67.8328889,15.4666667 66.8942222,14.3786667 C65.9128889,13.2266667 64.5902222,12.672 62.9475556,12.672 C61.2835556,12.672 59.9822222,13.2266667 59.0008889,14.3786667 C58.0622222,15.4666667 57.5928889,16.832 57.5928889,18.496 C57.5928889,20.1386667 58.0622222,21.504 59.0008889,22.5706667 C59.9822222,23.7226667 61.2835556,24.2986667 62.9475556,24.2986667 Z M62.9475556,22.8693333 C61.7742222,22.8693333 60.8568889,22.4213333 60.2168889,21.5253333 C59.6195556,20.7146667 59.3422222,19.712 59.3422222,18.496 C59.3422222,17.2586667 59.6195556,16.256 60.2168889,15.4453333 C60.8568889,14.5493333 61.7742222,14.1013333 62.9475556,14.1013333 C64.0995556,14.1013333 65.0168889,14.5493333 65.6995556,15.4453333 C66.2755556,16.256 66.5742222,17.2586667 66.5742222,18.496 C66.5742222,19.6906667 66.2755556,20.7146667 65.6995556,21.5253333 C65.0168889,22.4213333 64.0995556,22.8693333 62.9475556,22.8693333 Z M72.5475556,24 L72.5475556,8.46933333 L70.8622222,8.46933333 L70.8622222,24 L72.5475556,24 Z M77.2408889,24 L77.2408889,20.096 L78.9902222,18.5173333 L83.2995556,24 L85.4968889,24 L80.1635556,17.408 L85.0275556,12.9706667 L82.7662222,12.9706667 L77.2408889,18.0906667 L77.2408889,8.46933333 L75.5342222,8.46933333 L75.5342222,24 L77.2408889,24 Z M90.0622222,24.2986667 C91.0862222,24.2986667 92.0035556,24.064 92.8142222,23.616 C93.4968889,23.232 94.0728889,22.7413333 94.4995556,22.144 L94.4995556,24 L96.0995556,24 L96.0995556,16.9173333 C96.0995556,15.6373333 95.7582222,14.6346667 95.1182222,13.9093333 C94.3502222,13.0773333 93.1982222,12.672 91.6195556,12.672 C90.2968889,12.672 89.2515556,12.928 88.4408889,13.44 C87.5448889,13.9946667 86.9688889,14.8693333 86.7342222,16.0213333 L88.4195556,16.1493333 C88.5902222,15.4453333 88.9528889,14.912 89.5288889,14.5706667 C90.0408889,14.2293333 90.7022222,14.08 91.5128889,14.08 C93.4328889,14.08 94.3928889,14.9973333 94.3928889,16.8533333 L94.3928889,17.4293333 L91.7475556,17.472 C90.0835556,17.4933333 88.8035556,17.8133333 87.9075556,18.4106667 C86.8835556,19.0506667 86.3928889,19.9893333 86.3928889,21.248 C86.3928889,22.144 86.7342222,22.8906667 87.4168889,23.4666667 C88.0782222,24.0213333 88.9528889,24.2986667 90.0622222,24.2986667 Z M90.4248889,22.9546667 C89.7422222,22.9546667 89.1875556,22.784 88.7608889,22.464 C88.3342222,22.1226667 88.1422222,21.7173333 88.1422222,21.2053333 C88.1422222,19.6053333 89.3795556,18.7946667 91.8542222,18.752 L94.3928889,18.7093333 L94.3928889,19.648 C94.3928889,20.5013333 93.9875556,21.2693333 93.1982222,21.9306667 C92.3875556,22.6133333 91.4702222,22.9546667 90.4248889,22.9546667 Z M103.331556,24.2986667 C104.995556,24.2986667 106.232889,23.5946667 107.000889,22.1866667 L107.000889,24 L108.600889,24 L108.600889,8.46933333 L106.894222,8.46933333 L106.894222,14.9973333 C106.040889,13.44 104.824889,12.672 103.246222,12.672 C101.667556,12.672 100.451556,13.248 99.5555556,14.4426667 C98.7235556,15.5093333 98.3182222,16.832 98.3182222,18.4533333 C98.3182222,20.1173333 98.7235556,21.4826667 99.5555556,22.5493333 C100.451556,23.7013333 101.710222,24.2986667 103.331556,24.2986667 Z M103.544889,22.8906667 C102.350222,22.8906667 101.454222,22.4426667 100.856889,21.5893333 C100.323556,20.8213333 100.067556,19.776 100.067556,18.4533333 C100.067556,17.1306667 100.323556,16.1066667 100.878222,15.36 C101.475556,14.5066667 102.392889,14.08 103.608889,14.08 C104.590222,14.08 105.400889,14.464 106.019556,15.2746667 C106.616889,16.064 106.936889,17.1093333 106.936889,18.3893333 L106.936889,18.6026667 C106.936889,19.84 106.659556,20.8426667 106.126222,21.6106667 C105.507556,22.464 104.654222,22.8906667 103.544889,22.8906667 Z M116.174222,24.2986667 C117.816889,24.2986667 119.139556,23.7226667 120.142222,22.5706667 C121.059556,21.504 121.528889,20.1386667 121.528889,18.496 C121.528889,16.832 121.059556,15.4666667 120.120889,14.3786667 C119.139556,13.2266667 117.816889,12.672 116.174222,12.672 C114.510222,12.672 113.208889,13.2266667 112.227556,14.3786667 C111.288889,15.4666667 110.819556,16.832 110.819556,18.496 C110.819556,20.1386667 111.288889,21.504 112.227556,22.5706667 C113.208889,23.7226667 114.510222,24.2986667 116.174222,24.2986667 Z M116.174222,22.8693333 C115.000889,22.8693333 114.083556,22.4213333 113.443556,21.5253333 C112.846222,20.7146667 112.568889,19.712 112.568889,18.496 C112.568889,17.2586667 112.846222,16.256 113.443556,15.4453333 C114.083556,14.5493333 115.000889,14.1013333 116.174222,14.1013333 C117.326222,14.1013333 118.243556,14.5493333 118.926222,15.4453333 C119.502222,16.256 119.800889,17.2586667 119.800889,18.496 C119.800889,19.6906667 119.502222,20.7146667 118.926222,21.5253333 C118.243556,22.4213333 117.326222,22.8693333 116.174222,22.8693333 Z M129.144889,24 L129.144889,22.5706667 L127.736889,22.5706667 C127.352889,22.5706667 127.075556,22.464 126.926222,22.2933333 C126.755556,22.1226667 126.691556,21.824 126.691556,21.4186667 L126.691556,14.4 L129.422222,14.4 L129.422222,12.9706667 L126.691556,12.9706667 L126.691556,9.408 L125.006222,10.112 L125.006222,12.9706667 L122.787556,12.9706667 L122.787556,14.4 L125.006222,14.4 L125.006222,21.4186667 C125.006222,22.2506667 125.176889,22.8693333 125.539556,23.296 C125.923556,23.7653333 126.584889,24 127.480889,24 L129.144889,24 Z M136.654222,26.2826667 L136.654222,24.9386667 L135.459556,24.9386667 C134.520889,24.9386667 134.051556,24.4053333 134.051556,23.3813333 L134.051556,18.9226667 C134.051556,17.664 133.454222,16.7893333 132.302222,16.32 C133.454222,15.872 134.051556,14.9973333 134.051556,13.7173333 L134.051556,9.28 C134.051556,8.21333333 134.520889,7.70133333 135.459556,7.70133333 L136.654222,7.70133333 L136.654222,6.35733333 L135.182222,6.35733333 C134.307556,6.35733333 133.624889,6.63466667 133.155556,7.18933333 C132.686222,7.70133333 132.472889,8.42666667 132.472889,9.32266667 L132.472889,13.6533333 C132.472889,14.2933333 132.323556,14.7626667 132.067556,15.0613333 C131.768889,15.4026667 131.214222,15.5733333 130.446222,15.616 L130.446222,17.024 C131.214222,17.0453333 131.768889,17.2373333 132.067556,17.5786667 C132.323556,17.8773333 132.472889,18.3466667 132.472889,18.9866667 L132.472889,23.3386667 C132.472889,24.2346667 132.686222,24.9386667 133.155556,25.4506667 C133.624889,26.0053333 134.307556,26.2826667 135.182222,26.2826667 L136.654222,26.2826667 Z M139.918222,24.0853333 C140.259556,24.0853333 140.579556,23.9573333 140.835556,23.7013333 C141.091556,23.4453333 141.219556,23.1466667 141.219556,22.784 C141.219556,22.4 141.091556,22.1013333 140.835556,21.8453333 C140.579556,21.5893333 140.259556,21.4613333 139.918222,21.4613333 C139.534222,21.4613333 139.235556,21.5893333 139.000889,21.8453333 C138.744889,22.1013333 138.616889,22.4 138.616889,22.784 C138.616889,23.1466667 138.744889,23.4453333 139.000889,23.7013333 C139.235556,23.9573333 139.534222,24.0853333 139.918222,24.0853333 Z M145.678222,11.3493333 C146.040889,11.3493333 146.360889,11.2213333 146.616889,10.9866667 C146.851556,10.7306667 146.979556,10.432 146.979556,10.0693333 C146.979556,9.68533333 146.851556,9.38666667 146.616889,9.17333333 C146.360889,8.91733333 146.040889,8.81066667 145.678222,8.81066667 C145.315556,8.81066667 145.016889,8.91733333 144.760889,9.17333333 C144.504889,9.38666667 144.398222,9.68533333 144.398222,10.0693333 C144.398222,10.432 144.504889,10.7306667 144.760889,10.9866667 C145.016889,11.2213333 145.315556,11.3493333 145.678222,11.3493333 Z M143.438222,28.224 C145.486222,28.224 146.531556,27.2426667 146.531556,25.28 L146.531556,12.9706667 L144.824889,12.9706667 L144.824889,25.216 C144.824889,26.2613333 144.312889,26.7946667 143.310222,26.7946667 L142.414222,26.7946667 L142.414222,28.224 L143.438222,28.224 Z M153.848889,24.2986667 C156.963556,24.2986667 158.520889,23.1466667 158.520889,20.8853333 C158.520889,19.9253333 158.072889,19.1786667 157.198222,18.624 C156.622222,18.2613333 155.683556,17.92 154.360889,17.6 C153.251556,17.3013333 152.483556,17.0666667 152.078222,16.8746667 C151.438222,16.5546667 151.139556,16.1493333 151.139556,15.68 C151.139556,15.1893333 151.374222,14.8053333 151.843556,14.528 C152.270222,14.2293333 152.867556,14.1013333 153.635556,14.1013333 C154.510222,14.1013333 155.192889,14.272 155.662222,14.6133333 C156.088889,14.912 156.366222,15.424 156.515556,16.1066667 L158.179556,16.1066667 C157.880889,13.8026667 156.387556,12.672 153.656889,12.672 C152.419556,12.672 151.395556,12.9493333 150.627556,13.504 C149.795556,14.0586667 149.390222,14.784 149.390222,15.7226667 C149.390222,16.6613333 149.795556,17.3653333 150.648889,17.8773333 C151.160889,18.2186667 152.078222,18.5386667 153.379556,18.8586667 C154.574222,19.1573333 155.363556,19.392 155.726222,19.5626667 C156.408889,19.904 156.771556,20.3733333 156.771556,20.992 C156.771556,22.2293333 155.768889,22.8693333 153.806222,22.8693333 C152.867556,22.8693333 152.163556,22.6986667 151.694222,22.3573333 C151.224889,21.9733333 150.904889,21.3546667 150.776889,20.48 L149.112889,20.48 C149.368889,23.0186667 150.947556,24.2986667 153.848889,24.2986667 Z M161.123556,26.2826667 C161.976889,26.2826667 162.659556,26.0053333 163.150222,25.4506667 C163.598222,24.9386667 163.832889,24.2346667 163.832889,23.3386667 L163.832889,18.9866667 C163.832889,18.3466667 163.960889,17.8773333 164.238222,17.5786667 C164.536889,17.2373333 165.070222,17.0453333 165.859556,17.024 L165.859556,15.616 C165.070222,15.5733333 164.536889,15.4026667 164.238222,15.0826667 C163.960889,14.7626667 163.832889,14.2933333 163.832889,13.6533333 L163.832889,9.32266667 C163.832889,8.42666667 163.598222,7.70133333 163.150222,7.18933333 C162.659556,6.63466667 161.976889,6.35733333 161.123556,6.35733333 L159.651556,6.35733333 L159.651556,7.70133333 L160.846222,7.70133333 C161.784889,7.70133333 162.254222,8.21333333 162.254222,9.28 L162.254222,13.7173333 C162.254222,14.9973333 162.830222,15.872 164.003556,16.32 C162.830222,16.7893333 162.254222,17.664 162.254222,18.9226667 L162.254222,23.3813333 C162.254222,24.4053333 161.784889,24.9386667 160.846222,24.9386667 L159.651556,24.9386667 L159.651556,26.2826667 L161.123556,26.2826667 Z M179.342222,24.2986667 C180.771556,24.2986667 181.944889,23.872 182.862222,23.0613333 C183.608889,22.3786667 184.099556,21.5253333 184.355556,20.4586667 L182.648889,20.4586667 C182.371556,21.2266667 182.008889,21.8026667 181.539556,22.1866667 C180.984889,22.6346667 180.238222,22.8693333 179.342222,22.8693333 C178.296889,22.8693333 177.464889,22.528 176.867556,21.8453333 C176.270222,21.1626667 175.950222,20.2026667 175.864889,18.9653333 L184.568889,18.9653333 C184.526222,17.0453333 184.099556,15.5306667 183.288889,14.464 C182.392889,13.2693333 181.048889,12.672 179.278222,12.672 C177.678222,12.672 176.419556,13.248 175.480889,14.4 C174.542222,15.488 174.094222,16.8533333 174.094222,18.4746667 C174.094222,20.2666667 174.563556,21.6746667 175.544889,22.7413333 C176.483556,23.7653333 177.763556,24.2986667 179.342222,24.2986667 Z M182.798222,17.6426667 L175.907556,17.6426667 C176.014222,16.5546667 176.355556,15.7013333 176.952889,15.0613333 C177.550222,14.4213333 178.339556,14.1013333 179.320889,14.1013333 C181.411556,14.1013333 182.584889,15.2746667 182.798222,17.6426667 Z M187.384889,24 L190.691556,19.4133333 L193.976889,24 L196.003556,24 L191.630222,18.1546667 L195.534222,12.9706667 L193.528889,12.9706667 L190.691556,16.896 L187.832889,12.9706667 L185.827556,12.9706667 L189.731556,18.1546667 L185.358222,24 L187.384889,24 Z M202.830222,24 L202.830222,22.5706667 L201.422222,22.5706667 C201.038222,22.5706667 200.760889,22.464 200.611556,22.2933333 C200.440889,22.1226667 200.376889,21.824 200.376889,21.4186667 L200.376889,14.4 L203.107556,14.4 L203.107556,12.9706667 L200.376889,12.9706667 L200.376889,9.408 L198.691556,10.112 L198.691556,12.9706667 L196.472889,12.9706667 L196.472889,14.4 L198.691556,14.4 L198.691556,21.4186667 C198.691556,22.2506667 198.862222,22.8693333 199.224889,23.296 C199.608889,23.7653333 200.270222,24 201.166222,24 L202.830222,24 Z M209.614222,24.2986667 C211.043556,24.2986667 212.216889,23.872 213.134222,23.0613333 C213.880889,22.3786667 214.371556,21.5253333 214.627556,20.4586667 L212.920889,20.4586667 C212.643556,21.2266667 212.280889,21.8026667 211.811556,22.1866667 C211.256889,22.6346667 210.510222,22.8693333 209.614222,22.8693333 C208.568889,22.8693333 207.736889,22.528 207.139556,21.8453333 C206.542222,21.1626667 206.222222,20.2026667 206.136889,18.9653333 L214.840889,18.9653333 C214.798222,17.0453333 214.371556,15.5306667 213.560889,14.464 C212.664889,13.2693333 211.320889,12.672 209.550222,12.672 C207.950222,12.672 206.691556,13.248 205.752889,14.4 C204.814222,15.488 204.366222,16.8533333 204.366222,18.4746667 C204.366222,20.2666667 204.835556,21.6746667 205.816889,22.7413333 C206.755556,23.7653333 208.035556,24.2986667 209.614222,24.2986667 Z M213.070222,17.6426667 L206.179556,17.6426667 C206.286222,16.5546667 206.627556,15.7013333 207.224889,15.0613333 C207.822222,14.4213333 208.611556,14.1013333 209.592889,14.1013333 C211.683556,14.1013333 212.856889,15.2746667 213.070222,17.6426667 Z M218.552889,24 L218.552889,17.344 C218.616889,16.3413333 218.936889,15.552 219.534222,14.9546667 C220.088889,14.4 220.750222,14.1226667 221.518222,14.1226667 C223.438222,14.1226667 224.419556,15.1893333 224.419556,17.344 L224.419556,24 L226.126222,24 L226.126222,17.216 C226.126222,14.1866667 224.739556,12.672 222.008889,12.672 C221.283556,12.672 220.622222,12.8426667 220.024889,13.184 C219.427556,13.504 218.936889,13.9733333 218.552889,14.592 L218.552889,12.9706667 L216.846222,12.9706667 L216.846222,24 L218.552889,24 Z M232.867556,24.2986667 C235.982222,24.2986667 237.539556,23.1466667 237.539556,20.8853333 C237.539556,19.9253333 237.091556,19.1786667 236.216889,18.624 C235.640889,18.2613333 234.702222,17.92 233.379556,17.6 C232.270222,17.3013333 231.502222,17.0666667 231.096889,16.8746667 C230.456889,16.5546667 230.158222,16.1493333 230.158222,15.68 C230.158222,15.1893333 230.392889,14.8053333 230.862222,14.528 C231.288889,14.2293333 231.886222,14.1013333 232.654222,14.1013333 C233.528889,14.1013333 234.211556,14.272 234.680889,14.6133333 C235.107556,14.912 235.384889,15.424 235.534222,16.1066667 L237.198222,16.1066667 C236.899556,13.8026667 235.406222,12.672 232.675556,12.672 C231.438222,12.672 230.414222,12.9493333 229.646222,13.504 C228.814222,14.0586667 228.408889,14.784 228.408889,15.7226667 C228.408889,16.6613333 228.814222,17.3653333 229.667556,17.8773333 C230.179556,18.2186667 231.096889,18.5386667 232.398222,18.8586667 C233.592889,19.1573333 234.382222,19.392 234.744889,19.5626667 C235.427556,19.904 235.790222,20.3733333 235.790222,20.992 C235.790222,22.2293333 234.787556,22.8693333 232.824889,22.8693333 C231.886222,22.8693333 231.182222,22.6986667 230.712889,22.3573333 C230.243556,21.9733333 229.923556,21.3546667 229.795556,20.48 L228.131556,20.48 C228.387556,23.0186667 229.966222,24.2986667 232.867556,24.2986667 Z M240.952889,11.3493333 C241.315556,11.3493333 241.614222,11.2213333 241.870222,10.9866667 C242.126222,10.7306667 242.254222,10.432 242.254222,10.0693333 C242.254222,9.68533333 242.126222,9.38666667 241.870222,9.17333333 C241.614222,8.91733333 241.315556,8.81066667 240.952889,8.81066667 C240.590222,8.81066667 240.291556,8.91733333 240.035556,9.17333333 C239.779556,9.38666667 239.672889,9.68533333 239.672889,10.0693333 C239.672889,10.432 239.779556,10.7306667 240.035556,10.9866667 C240.291556,11.2213333 240.590222,11.3493333 240.952889,11.3493333 Z M241.806222,24 L241.806222,12.9706667 L240.099556,12.9706667 L240.099556,24 L241.806222,24 Z M249.934222,24.2986667 C251.576889,24.2986667 252.899556,23.7226667 253.902222,22.5706667 C254.819556,21.504 255.288889,20.1386667 255.288889,18.496 C255.288889,16.832 254.819556,15.4666667 253.880889,14.3786667 C252.899556,13.2266667 251.576889,12.672 249.934222,12.672 C248.270222,12.672 246.968889,13.2266667 245.987556,14.3786667 C245.048889,15.4666667 244.579556,16.832 244.579556,18.496 C244.579556,20.1386667 245.048889,21.504 245.987556,22.5706667 C246.968889,23.7226667 248.270222,24.2986667 249.934222,24.2986667 Z M249.934222,22.8693333 C248.760889,22.8693333 247.843556,22.4213333 247.203556,21.5253333 C246.606222,20.7146667 246.328889,19.712 246.328889,18.496 C246.328889,17.2586667 246.606222,16.256 247.203556,15.4453333 C247.843556,14.5493333 248.760889,14.1013333 249.934222,14.1013333 C251.086222,14.1013333 252.003556,14.5493333 252.686222,15.4453333 C253.262222,16.256 253.560889,17.2586667 253.560889,18.496 C253.560889,19.6906667 253.262222,20.7146667 252.686222,21.5253333 C252.003556,22.4213333 251.086222,22.8693333 249.934222,22.8693333 Z M259.214222,24 L259.214222,17.344 C259.278222,16.3413333 259.598222,15.552 260.195556,14.9546667 C260.750222,14.4 261.411556,14.1226667 262.179556,14.1226667 C264.099556,14.1226667 265.080889,15.1893333 265.080889,17.344 L265.080889,24 L266.787556,24 L266.787556,17.216 C266.787556,14.1866667 265.400889,12.672 262.670222,12.672 C261.944889,12.672 261.283556,12.8426667 260.686222,13.184 C260.088889,13.504 259.598222,13.9733333 259.214222,14.592 L259.214222,12.9706667 L257.507556,12.9706667 L257.507556,24 L259.214222,24 Z" id="Polkadot{.js}extension" fill="#FFFFFF"></path>
                </g>
            </g>
        </g>
    </g>
</svg>