<?xml version="1.0" encoding="UTF-8"?>
<svg width="17px" height="14px" viewBox="0 0 17 14" version="1.1" xmlns="http://www.w3.org/2000/svg" xmlns:xlink="http://www.w3.org/1999/xlink">
    <!-- Generator: Sketch 61.2 (89653) - https://sketch.com -->
    <title>编组 16</title>
    <desc>Created with Sketch.</desc>
    <g id="1.0" stroke="none" stroke-width="1" fill="none" fill-rule="evenodd" opacity="0.5">
        <g id="001" transform="translate(-755.000000, -575.000000)">
            <g id="编组-22" transform="translate(714.000000, 572.000000)">
                <g id="编组-16" transform="translate(40.000000, 0.000000)">
                    <rect id="矩形" x="0" y="0" width="20" height="20"></rect>
                    <g id="twitter" transform="translate(1.666667, 3.333333)" fill="#FFFFFF" fill-rule="nonzero">
                        <path d="M16.4129412,1.58762072 C15.9485168,2.26782941 15.3864122,2.84724999 14.7266275,3.32588247 C14.7337316,3.42267456 14.7372836,3.5683067 14.7372836,3.7627789 C14.7372836,4.6649878 14.6054154,5.5649767 14.3416792,6.46274559 C14.0779429,7.36051448 13.6774545,8.22231935 13.140214,9.04816018 C12.6029734,9.87400102 11.9631688,10.6043818 11.2208,11.2393024 C10.4784313,11.874223 9.5833264,12.3808275 8.53548536,12.7591159 C7.48764432,13.1374043 6.36743119,13.3265485 5.17484599,13.3265485 C3.2949481,13.3265485 1.57444639,12.823496 0.0133408362,11.817391 C0.255765079,11.844919 0.526161349,11.858683 0.824529647,11.858683 C2.38563521,11.858683 3.7766886,11.3800505 4.99768981,10.4227856 C4.26952908,10.4085775 3.61729243,10.1848013 3.04097986,9.75145689 C2.46466729,9.31811246 2.06906289,8.76488791 1.85416667,8.09178323 C2.08327089,8.12641526 2.29505911,8.14373128 2.4895313,8.14373128 C2.7878996,8.14373128 3.0827159,8.10554724 3.37398019,8.02917916 C2.59697941,7.869339 1.95362277,7.48261461 1.44391026,6.86900599 C0.934197747,6.25539737 0.679341492,5.54277665 0.679341492,4.73114385 L0.679341492,4.6898518 C1.15086996,4.95358807 1.65747447,5.09566821 2.19915501,5.11609222 C1.74094656,4.81061991 1.37686619,4.41190751 1.10691392,3.91995502 C0.836961642,3.42800253 0.701541509,2.89386999 0.700653518,2.31755742 C0.700653518,1.7066128 0.853389672,1.14140024 1.15886198,0.621919726 C1.99802282,1.65555276 3.01966784,2.48272559 4.22379704,3.10343821 C5.42792624,3.72415083 6.71641553,4.06913917 8.0892649,4.13840325 C8.03420884,3.87466698 8.00668082,3.61803472 8.00668082,3.36850648 C8.00668082,2.43876956 8.33435315,1.64622877 8.98969781,0.990884105 C9.64504247,0.335539445 10.4375833,0.00786711466 11.3673202,0.00786711466 C12.3387932,0.00786711466 13.15753,0.361735468 13.8235306,1.06947217 C14.5801074,0.923840023 15.2913961,0.653443752 15.9573968,0.258283362 C15.7007645,1.05570816 15.208368,1.67331278 14.4802073,2.11109721 C15.1257839,2.04183314 15.7709166,1.86822897 16.4156052,1.59028469 L16.4129412,1.58762072 Z" id="路径"></path>
                    </g>
                </g>
            </g>
        </g>
    </g>
</svg>