<?xml version="1.0" encoding="UTF-8"?>
<svg width="182px" height="27px" viewBox="0 0 182 27" version="1.1" xmlns="http://www.w3.org/2000/svg" xmlns:xlink="http://www.w3.org/1999/xlink">
    <!-- Generator: Sketch 61.2 (89653) - https://sketch.com -->
    <title>编组 3</title>
    <desc>Created with Sketch.</desc>
    <defs>
        <polygon id="path-1" points="0 0.00015483871 15.1966065 0.00015483871 15.1966065 15.2026065 0 15.2026065"></polygon>
        <polygon id="path-3" points="5.80645161e-05 0.364645161 12.0003484 0.364645161 12.0003484 9.29032258 5.80645161e-05 9.29032258"></polygon>
    </defs>
    <g id="控件" stroke="none" stroke-width="1" fill="none" fill-rule="evenodd">
        <g id="logo_chainX-bridge">
            <g id="编组-3">
                <g>
                    <g id="编组-7">
                        <g id="ChainX-Logo">
                            <g id="编组">
                                <mask id="mask-2" fill="white">
                                    <use xlink:href="#path-1"></use>
                                </mask>
                                <g id="Clip-2"></g>
                                <path d="M13.7751871,6.91467097 L9.96847742,3.1064129 C9.89260645,3.03054194 9.76950968,3.03054194 9.69402581,3.1064129 L8.18396129,4.61686452 C8.10809032,4.69273548 8.10809032,4.81583226 8.18396129,4.89131613 L11.9531226,8.6624129 C12.8748,9.58409032 12.8991871,11.1173806 11.9624129,12.0235742 C11.0519613,12.9038323 9.59531613,12.8945419 8.69647742,11.9953161 L3.20589677,6.5028 C2.30705806,5.60357419 2.29776774,4.14654194 3.17802581,3.23570323 C4.08344516,2.29815484 5.61634839,2.32254194 6.53763871,3.24460645 L7.08576774,3.79312258 C7.16163871,3.86899355 7.28473548,3.86899355 7.36060645,3.79312258 L8.87028387,2.28267097 C8.94615484,2.2068 8.94615484,2.08370323 8.87028387,2.00783226 L8.28460645,1.42215484 C6.38938065,-0.473845161 3.31660645,-0.473845161 1.42138065,1.42215484 C-0.473845161,3.31776774 -0.473845161,6.39170323 1.42138065,8.28770323 L6.91196129,13.7806065 C8.8071871,15.6766065 11.8799613,15.6766065 13.7751871,13.7806065 C15.6704129,11.8846065 15.6704129,8.81067097 13.7751871,6.91467097" id="Fill-1" fill="#EA754B" mask="url(#mask-2)"></path>
                            </g>
                            <path d="M22.5788129,1.42234839 C20.6832,-0.47403871 17.6104258,-0.47403871 15.7155871,1.42234839 L11.9998452,5.13925161 L13.7754581,6.91486452 C13.7781677,6.91796129 13.7808774,6.92105806 13.7839742,6.92376774 L17.499329,3.20686452 C18.4082323,2.29912258 19.8861677,2.29912258 20.7939097,3.20686452 C21.7020387,4.11576774 21.7020387,5.59447742 20.7939097,6.50338065 L20.2090065,7.08828387 C20.1331355,7.16415484 20.1331355,7.28725161 20.2090065,7.36312258 L21.719071,8.87357419 C21.7949419,8.94944516 21.9176516,8.94944516 21.9935226,8.87357419 L22.5788129,8.28789677 C24.4732645,6.39189677 24.4732645,3.31834839 22.5788129,1.42234839" id="Fill-3" fill="#34C69A"></path>
                            <path d="M19.3852645,8.18670968 C19.3093935,8.11083871 19.1866839,8.11083871 19.1108129,8.18670968 L15.3029419,11.9953548 C15.1322323,12.1660645 14.9410065,12.3050323 14.7373935,12.411871 C13.8586839,12.872129 12.7465548,12.7331613 12.0087484,11.9953548 C12.0060387,11.9926452 12.0021677,11.9883871 11.9998452,11.9856774 C11.1041032,11.079871 11.1041032,9.61432258 11.9998452,8.70851613 L10.2161032,6.924 C8.73700645,8.40967742 8.4195871,10.6153548 9.26307097,12.411871 C9.49494194,12.9069677 9.81623226,13.3722581 10.2246194,13.7810323 C10.7441032,14.3005161 11.3526194,14.6771613 11.9998452,14.912129 C12.5340387,15.1052903 13.0949419,15.2024516 13.6558452,15.2024516 C14.8984258,15.2024516 16.1398452,14.7286452 17.0878452,13.7810323 L20.895329,9.972 C20.9712,9.89612903 20.9712,9.77341935 20.895329,9.69754839 L19.3852645,8.18670968 Z" id="Fill-5" fill="#34C69A"></path>
                            <path d="M22.5786194,15.7211226 L18.8636516,12.0046065 L17.0791355,13.7895097 L20.7941032,17.5060258 C21.6937161,18.4060258 21.7022323,19.8634452 20.8215871,20.7738968 C19.9157806,21.710671 18.3836516,21.6858968 17.4623613,20.7642194 L16.9142323,20.2157032 C16.8383613,20.1402194 16.7156516,20.1402194 16.6397806,20.2157032 L15.1297161,21.7265419 C15.0538452,21.8020258 15.0538452,21.9251226 15.1297161,22.0009935 L15.6546194,22.5262839 C17.5560387,24.4280903 20.7159097,24.4772516 22.6033935,22.5618968 C23.5347484,21.6166065 24.0000387,20.3852516 24.0000387,19.154671 C24.0000387,17.9120903 23.5266194,16.6691226 22.5786194,15.7211226" id="Fill-7" fill="#F6C94A"></path>
                            <path d="M15.8161548,19.3919226 C15.8920258,19.3160516 15.8920258,19.1933419 15.8161548,19.117471 L12.0094452,15.3092129 C11.8383484,15.1381161 11.6989935,14.9465032 11.5925419,14.7425032 C11.1334452,13.8645677 11.2716387,12.7516645 12.0094452,12.013471 L12.0179613,12.0045677 C12.9241548,11.1080516 14.3885419,11.1080516 15.2947355,12.0045677 L17.0792516,10.2192774 C15.5924129,8.74056774 13.3875097,8.42276129 11.5925419,9.26663226 C11.0970581,9.49850323 10.6337032,9.81940645 10.224929,10.2285677 C9.70544516,10.7480516 9.3284129,11.3557935 9.09460645,12.0045677 C8.90028387,12.5379871 8.80350968,13.1004387 8.80350968,13.6621161 C8.80350968,14.9046968 9.27770323,16.1468903 10.224929,17.0941161 L14.0316387,20.9023742 C14.1075097,20.9782452 14.2302194,20.9782452 14.3060903,20.9023742 L15.8161548,19.3919226 Z" id="Fill-9" fill="#F6C94A"></path>
                            <path d="M14.9120903,12.0142065 C14.8617677,11.8705935 14.8033161,11.7289161 14.7375097,11.5887871 C14.5064129,11.0929161 14.1851226,10.6284 13.7755742,10.2196258 C13.3687355,9.8120129 12.906929,9.49149677 12.4137677,9.25962581 C12.2790581,9.19536774 12.1408645,9.13923871 12.0022839,9.08852903 C10.2889935,8.46723871 8.29854194,8.84117419 6.92202581,10.2111097 L8.70615484,11.9956258 C8.87492903,11.8287871 9.06344516,11.692529 9.2631871,11.5880129 C10.142671,11.128529 11.2548,11.2674968 11.9918323,12.004529 L12.0003484,12.0134323 C12.7350581,12.756271 12.8678323,13.8745935 12.3971226,14.752529 C12.2945419,14.9464645 12.1621548,15.1280129 12.0003484,15.2913677 L13.7852516,17.0770452 C15.1478323,15.7059484 15.5244774,13.7232387 14.9120903,12.0142065" id="Fill-11" fill="#46AEE2"></path>
                            <path d="M4.88539355,15.8178968 L6.92229677,13.7802194 L5.13816774,11.9957032 L3.10126452,14.0329935 C3.02539355,14.1084774 3.02539355,14.2315742 3.10126452,14.3074452 L4.61094194,15.8178968 C4.6868129,15.8937677 4.80952258,15.8937677 4.88539355,15.8178968" id="Fill-13" fill="#46AEE2"></path>
                            <g id="编组" transform="translate(0.000000, 14.709677)">
                                <mask id="mask-4" fill="white">
                                    <use xlink:href="#path-3"></use>
                                </mask>
                                <g id="Clip-16"></g>
                                <path d="M6.50086452,6.08322581 C5.59234839,6.99212903 4.11402581,6.99212903 3.20667097,6.08322581 C2.29815484,5.17432258 2.29815484,3.6963871 3.20667097,2.78748387 L3.78731613,2.20683871 C3.8631871,2.13096774 3.8631871,2.00787097 3.78731613,1.932 L2.27763871,0.421548387 C2.20176774,0.345677419 2.07867097,0.345677419 2.0028,0.421548387 L1.42176774,1.00296774 C-0.473845161,2.89935484 -0.473845161,5.97251613 1.42176774,7.86890323 C2.37015484,8.81651613 3.6111871,9.29148387 4.85260645,9.2903247 C6.0951871,9.2903247 7.33738065,8.81651613 8.28576774,7.86890323 L12.0003484,4.152 L10.2162194,2.36709677 L6.50086452,6.08322581 Z" id="Fill-15" fill="#46AEE2" mask="url(#mask-4)"></path>
                            </g>
                        </g>
                    </g>
                    <g id="编组-2" transform="translate(28.000000, 3.000000)" fill="#282828">
                        <path d="M89.8863158,18.4421053 C91.7894737,18.4421053 93.2463158,18.0463158 94.2568421,17.2547368 C95.2673684,16.4631579 95.7726316,15.36 95.7726316,13.9452632 C95.7726316,12.9178947 95.4568421,12.0463158 94.8252632,11.3305263 C94.1936842,10.6147368 93.3389474,10.1726316 92.2610526,10.0042105 L92.2610526,10.0042105 L92.2610526,9.97894737 C93.2547368,9.77684211 94.0126316,9.33473684 94.5347368,8.65263158 C95.0568421,7.97052632 95.3178947,7.14947368 95.3178947,6.18947368 C95.3178947,4.77473684 94.8715789,3.68421053 93.9789474,2.91789474 C93.0863158,2.15157895 91.7221053,1.76842105 89.8863158,1.76842105 L89.8863158,1.76842105 L84,1.76842105 L84,18.4421053 L89.8863158,18.4421053 Z M89.9115789,9.44842105 L85.2631579,9.44842105 L85.2631579,2.93052632 L89.9115789,2.93052632 C92.6231579,2.93052632 93.9789474,4.01684211 93.9789474,6.18947368 C93.9789474,8.36210526 92.6231579,9.44842105 89.9115789,9.44842105 L89.9115789,9.44842105 Z M90.1389474,17.28 L85.2631579,17.28 L85.2631579,10.6105263 L90.1389474,10.6105263 C91.5705263,10.6105263 92.6442105,10.8926316 93.36,11.4568421 C94.0757895,12.0210526 94.4336842,12.8505263 94.4336842,13.9452632 C94.4336842,15.0231579 94.0757895,15.8484211 93.36,16.4210526 C92.6442105,16.9936842 91.5705263,17.28 90.1389474,17.28 L90.1389474,17.28 Z M100.86,18.4421053 L100.86,11.3684211 C100.86,10.4589474 101.036842,9.65473684 101.390526,8.95578947 C101.744211,8.25684211 102.207368,7.70947368 102.78,7.31368421 C103.352632,6.91789474 103.958947,6.72 104.598947,6.72 C105.036842,6.72 105.365263,6.75368421 105.584211,6.82105263 C105.803158,6.88842105 106.005263,6.98105263 106.190526,7.09894737 L106.190526,7.09894737 L106.493684,5.98736842 C106.308421,5.83578947 106.081053,5.72631579 105.811579,5.65894737 C105.542105,5.59157895 105.238947,5.55789474 104.902105,5.55789474 C103.908421,5.55789474 103.057895,5.81894737 102.350526,6.34105263 C101.643158,6.86315789 101.129474,7.56210526 100.809474,8.43789474 L100.809474,8.43789474 L100.657895,5.81052632 L99.5968421,5.81052632 L99.5968421,18.4421053 L100.86,18.4421053 Z M109.766053,3.36 C110.086053,3.36 110.342895,3.26315789 110.536579,3.06947368 C110.730263,2.87578947 110.827105,2.61894737 110.827105,2.29894737 C110.827105,1.97894737 110.730263,1.72210526 110.536579,1.52842105 C110.342895,1.33473684 110.086053,1.23789474 109.766053,1.23789474 C109.446053,1.23789474 109.189211,1.33473684 108.995526,1.52842105 C108.801842,1.72210526 108.705,1.97894737 108.705,2.29894737 C108.705,2.61894737 108.801842,2.87578947 108.995526,3.06947368 C109.189211,3.26315789 109.446053,3.36 109.766053,3.36 Z M110.397632,18.4421053 L110.397632,5.81052632 L109.134474,5.81052632 L109.134474,18.4421053 L110.397632,18.4421053 Z M119.833421,18.6947368 C120.625,18.6947368 121.361842,18.5473684 122.043947,18.2526316 C122.726053,17.9578947 123.298684,17.5242105 123.761842,16.9515789 C124.109211,16.5221053 124.368947,16.0263158 124.541053,15.4642105 L124.543579,15.456 L124.608158,18.4421053 L125.745,18.4421053 L125.745,9.219292e-13 L124.481842,9.219292e-13 L124.481684,8.58947368 L124.428789,8.44092632 C124.151737,7.74063158 123.740579,7.15587368 123.195316,6.68665263 L122.953421,6.49263158 C122.119737,5.86947368 121.121842,5.55789474 119.959737,5.55789474 C118.865,5.55789474 117.871316,5.81473684 116.978684,6.32842105 C116.086053,6.84210526 115.378684,7.58736842 114.856579,8.56421053 C114.334474,9.54105263 114.073421,10.7284211 114.073421,12.1263158 C114.073421,13.4905263 114.321842,14.6652632 114.818684,15.6505263 C115.315526,16.6357895 116.001842,17.3894737 116.877632,17.9115789 C117.753421,18.4336842 118.738684,18.6947368 119.833421,18.6947368 Z M119.985,17.5831579 C118.553421,17.5831579 117.420789,17.0947368 116.587105,16.1178947 C115.753421,15.1410526 115.336579,13.8105263 115.336579,12.1263158 C115.336579,10.4421053 115.757632,9.11157895 116.599737,8.13473684 C117.441842,7.15789474 118.587105,6.66947368 120.035526,6.66947368 C120.911316,6.66947368 121.681842,6.88421053 122.347105,7.31368421 C123.012368,7.74315789 123.534474,8.35789474 123.913421,9.15789474 C124.292368,9.95789474 124.481842,10.9136842 124.481842,12.0252632 C124.481842,13.1536842 124.292368,14.1389474 123.913421,14.9810526 C123.534474,15.8231579 123.008158,16.4673684 122.334474,16.9136842 C121.660789,17.36 120.877632,17.5831579 119.985,17.5831579 Z M134.771842,23.8736842 C135.917105,23.8736842 136.936053,23.7136842 137.828684,23.3936842 C138.721316,23.0736842 139.424474,22.6273684 139.938158,22.0547368 C140.451842,21.4821053 140.708684,20.8084211 140.708684,20.0336842 C140.708684,19.1578947 140.355,18.4589474 139.647632,17.9368421 C138.940263,17.4147368 137.963421,17.1536842 136.717105,17.1536842 L136.717105,17.1536842 L133.306579,17.1536842 C132.616053,17.1536842 132.047632,17.0105263 131.601316,16.7242105 C131.155,16.4378947 130.931842,16.0084211 130.931842,15.4357895 C130.931842,14.9136842 131.163421,14.4884211 131.626579,14.16 C131.973947,13.9136842 132.408947,13.7455263 132.931579,13.6555263 L132.933474,13.656 L133.217336,13.7101215 C133.536937,13.7645344 133.875149,13.7985425 134.231973,13.8121457 L134.595,13.8189474 C135.588684,13.8189474 136.468684,13.6463158 137.235,13.3010526 C138.001316,12.9557895 138.595,12.4673684 139.016053,11.8357895 C139.437105,11.2042105 139.647632,10.4842105 139.647632,9.67578947 C139.647632,8.85052632 139.437105,8.13052632 139.016053,7.51578947 C138.858158,7.28526316 138.675987,7.07368421 138.469539,6.88105263 L138.320842,6.75284211 L138.341745,6.55750487 C138.407865,6.09216374 138.573168,5.70354776 138.837651,5.39165692 L138.978158,5.24210526 C139.424474,4.81263158 140.060263,4.59789474 140.885526,4.59789474 L140.885526,4.59789474 L141.011842,4.59789474 L140.708684,3.48631579 L140.708684,3.48631579 L140.607632,3.48631579 C140.018158,3.48631579 139.487632,3.61684211 139.016053,3.87789474 C138.544474,4.13894737 138.173947,4.50526316 137.904474,4.97684211 C137.711992,5.31368421 137.588255,5.69349087 137.53326,6.11626208 L137.522526,6.21726316 L137.514276,6.21157895 L137.235,6.07578947 C136.468684,5.73052632 135.588684,5.55789474 134.595,5.55789474 C133.584474,5.55789474 132.696053,5.73052632 131.929737,6.07578947 C131.163421,6.42105263 130.565526,6.90105263 130.136053,7.51578947 C129.706579,8.13052632 129.491842,8.85052632 129.491842,9.67578947 C129.491842,10.9052632 129.942368,11.9031579 130.843421,12.6694737 C131.120668,12.9052632 131.431001,13.1047773 131.774421,13.2680162 L131.806737,13.2821053 L131.609581,13.3389474 C131.288541,13.4437427 131.001602,13.5859649 130.748762,13.765614 L130.565526,13.9073684 C130.035,14.3536842 129.769737,14.9305263 129.769737,15.6378947 C129.769737,16.2947368 129.976053,16.8 130.388684,17.1536842 C130.663772,17.3894737 130.96693,17.5803509 131.298158,17.7263158 L131.389895,17.7637895 L131.349695,17.7701053 C130.721316,17.8997895 130.210537,18.1326316 129.817358,18.4686316 L129.656053,18.6189474 C129.142368,19.1410526 128.885526,19.7557895 128.885526,20.4631579 C128.885526,21.44 129.390789,22.2526316 130.401316,22.9010526 C131.411842,23.5494737 132.868684,23.8736842 134.771842,23.8736842 Z M134.595,12.7831579 C133.483421,12.7831579 132.573947,12.4968421 131.866579,11.9242105 C131.159211,11.3515789 130.805526,10.6021053 130.805526,9.67578947 C130.805526,8.74947368 131.159211,8.00421053 131.866579,7.44 C132.573947,6.87578947 133.483421,6.59368421 134.595,6.59368421 C135.706579,6.59368421 136.611842,6.87578947 137.310789,7.44 C138.009737,8.00421053 138.359211,8.74947368 138.359211,9.67578947 C138.359211,10.6021053 138.009737,11.3515789 137.310789,11.9242105 C136.611842,12.4968421 135.706579,12.7831579 134.595,12.7831579 Z M134.771842,22.8126316 C133.306579,22.8126316 132.157105,22.5810526 131.323421,22.1178947 C130.489737,21.6547368 130.072895,21.0442105 130.072895,20.2863158 C130.072895,19.6631579 130.333947,19.1663158 130.856053,18.7957895 C131.378158,18.4252632 132.035,18.24 132.826579,18.24 L132.826579,18.24 L136.413947,18.24 C137.458158,18.24 138.237105,18.4168421 138.750789,18.7705263 C139.264474,19.1242105 139.521316,19.5957895 139.521316,20.1852632 C139.521316,20.6736842 139.331842,21.1157895 138.952895,21.5115789 C138.573947,21.9073684 138.030789,22.2231579 137.323421,22.4589474 C136.616053,22.6947368 135.765526,22.8126316 134.771842,22.8126316 Z M148.417105,18.6947368 C149.208684,18.6947368 149.932895,18.5768421 150.589737,18.3410526 C151.246579,18.1052632 151.827632,17.7726316 152.332895,17.3431579 C152.838158,16.9136842 153.242368,16.3957895 153.545526,15.7894737 L153.545526,15.7894737 L152.535,15.2084211 C152.147632,15.9494737 151.604474,16.5305263 150.905526,16.9515789 C150.206579,17.3726316 149.368684,17.5831579 148.391842,17.5831579 C147.448684,17.5831579 146.619211,17.3684211 145.903421,16.9389474 C145.187632,16.5094737 144.631842,15.8821053 144.236053,15.0568421 C143.840263,14.2315789 143.642368,13.2547368 143.642368,12.1263158 L143.646316,12.3789474 L153.671842,12.3789474 C153.680263,12.32 153.687632,12.2578947 153.693947,12.1926316 L153.709737,11.9873684 C153.718158,11.8442105 153.722368,11.6968421 153.722368,11.5452632 C153.722368,10.3663158 153.503421,9.32631579 153.065526,8.42526316 C152.627632,7.52421053 152.004474,6.82105263 151.196053,6.31578947 C150.387632,5.81052632 149.410789,5.55789474 148.265526,5.55789474 C147.153947,5.55789474 146.156053,5.81894737 145.271842,6.34105263 C144.387632,6.86315789 143.688684,7.61684211 143.175,8.60210526 C142.661316,9.58736842 142.404474,10.7621053 142.404474,12.1263158 C142.404474,13.4905263 142.661316,14.6652632 143.175,15.6505263 C143.688684,16.6357895 144.400263,17.3894737 145.309737,17.9115789 C146.219211,18.4336842 147.255,18.6947368 148.417105,18.6947368 Z M152.478316,11.2421053 L143.685474,11.2421053 L143.70693,11.0357895 C143.778665,10.4603509 143.910179,9.93559454 144.101472,9.46152047 L144.223421,9.18315789 C144.610789,8.36631579 145.149737,7.74315789 145.840263,7.31368421 C146.530789,6.88421053 147.330789,6.66947368 148.240263,6.66947368 C149.553947,6.66947368 150.585526,7.09894737 151.335,7.95789474 C152.084474,8.81684211 152.467632,9.97052632 152.484474,11.4189474 L152.478316,11.2421053 Z" id="Bridge" fill-rule="nonzero"></path>
                        <g id="logo测试网网" transform="translate(0.000000, 0.605263)">
                            <g id="Group-8-Copy">
                                <g id="Group-7" transform="translate(0.219911, 0.598174)">
                                    <path d="M12.5947509,5.83298831 C12.4469259,5.83298831 12.3200072,5.73303117 12.277701,5.59047206 C12.1586838,5.18964889 12.0070727,4.81617718 11.8225384,4.47038845 C11.6006364,4.0561382 11.3156865,3.69758547 10.9676888,3.39456447 C10.6195265,3.09204078 10.2117733,2.85681825 9.74508767,2.68939418 C9.27823741,2.52197011 8.73632237,2.43825807 8.11901331,2.43825807 C7.21691901,2.43825807 6.43729883,2.62176149 5.78048199,2.98827101 C5.12366516,3.35511207 4.58948706,3.84511757 4.1781123,4.45845327 C3.76640832,5.07212051 3.4620338,5.76949978 3.26416567,6.55025956 C3.06613292,7.3311851 2.96752809,8.12802421 2.96752809,8.94077691 C2.96752809,9.7535296 3.06613292,10.5507002 3.26416567,11.33146 C3.4620338,12.1123856 3.76640832,12.8097648 4.1781123,13.4231005 C4.58948706,14.0367678 5.12366516,14.526939 5.78048199,14.8932828 C6.43729883,15.2601239 7.21691901,15.4432957 8.11901331,15.4432957 C8.7837317,15.4432957 9.36894069,15.3277566 9.87562796,15.0965124 C10.3821506,14.8655998 10.81723,14.5466652 11.1815247,14.140206 C11.5453255,13.7339126 11.8301107,13.2599864 12.036045,12.7179302 C12.2103731,12.2585915 12.3336703,11.7700779 12.405772,11.2532183 C12.4283244,11.091596 12.568577,10.9727415 12.7308881,10.9727415 L14.9782223,10.9727415 C15.1751027,10.9727415 15.3257261,11.1458016 15.3058076,11.3428979 C15.2169151,12.2194707 15.0093347,13.0284107 14.6832309,13.7697181 C14.3110347,14.6147952 13.8084628,15.3438359 13.1755152,15.9571716 C12.5424031,16.5708388 11.7986691,17.0449308 10.9441488,17.3794474 C10.0892992,17.7142955 9.14769712,17.8815538 8.11901331,17.8815538 C6.85262436,17.8815538 5.71726955,17.6463313 4.7122904,17.1763835 C3.70714665,16.7064358 2.85657708,16.064754 2.16025246,15.2518355 C1.46376323,14.4390828 0.929585129,13.4910648 0.55788277,12.4071182 C0.18585118,11.3235032 0,10.1681114 0,8.94077691 C0,7.72968754 0.18585118,6.58241824 0.55788277,5.49830594 C0.929585129,4.41469094 1.46376323,3.46650709 2.16025246,2.65358864 C2.85657708,1.84083595 3.70714665,1.19517579 4.7122904,0.717271241 C5.71726955,0.239035158 6.85262436,0 8.11901331,0 C9.06851695,0 9.96254507,0.13145276 10.8015915,0.394358281 C11.6403088,0.657429568 12.3802566,1.04001843 13.0212703,1.54195911 C13.662284,2.04406556 14.1804944,2.65358864 14.5762306,3.37069411 C14.9159975,3.98701361 15.1451427,4.67991719 15.2630075,5.44907332 C15.2939553,5.65031373 15.1392165,5.83298831 14.9369037,5.83298831 L12.5947509,5.83298831 Z" id="Fill-30"></path>
                                    <path d="M17.6067284,0.45850138 L19.6509366,0.45850138 C19.8325454,0.45850138 19.9798046,0.607450839 19.9798046,0.791144088 L19.9798046,6.81162802 L20.0274667,6.81162802 C20.3591287,6.25240259 20.8528416,5.78477444 21.5086055,5.40907603 C22.164205,5.03371009 22.895242,4.84586088 23.7010591,4.84586088 C25.043978,4.84586088 26.1027326,5.19745475 26.8771585,5.90047625 C27.6510913,6.6041627 28.038633,7.65877806 28.038633,9.06498729 L28.038633,17.2434098 C28.038633,17.4269368 27.8913737,17.5758862 27.7099293,17.5758862 L25.6653924,17.5758862 C25.4837836,17.5758862 25.3365243,17.4269368 25.3365243,17.2432435 L25.3365243,9.78446638 C25.3048044,8.80964537 25.099529,8.10230167 24.7202049,7.66260154 C24.3412095,7.22323389 23.7485568,7.0033007 22.9427397,7.0033007 C22.4841981,7.0033007 22.0734828,7.08725101 21.7102652,7.25515163 C21.3465546,7.42305224 21.0383949,7.65478834 20.7857861,7.95035993 C20.5328486,8.24626399 20.3356264,8.59386814 20.1932977,8.99317238 C20.050969,9.39280909 19.9798046,9.81655036 19.9798046,10.2637312 L19.9798046,17.2432435 C19.9798046,17.4269368 19.8325454,17.5758862 19.6509366,17.5758862 L17.6067284,17.5758862 C17.4251196,17.5758862 17.2778603,17.4269368 17.2778603,17.2432435 L17.2778603,0.791144088 C17.2778603,0.607450839 17.4251196,0.45850138 17.6067284,0.45850138" id="Fill-32"></path>
                                    <path d="M37.9574207,13.2475756 C37.9574207,13.6766653 37.8540322,14.0381519 37.6482445,14.3322007 C37.4419621,14.6264147 37.1845625,14.8683975 36.8753863,15.0591408 C36.56621,15.2497187 36.2369167,15.3850903 35.8884956,15.4642636 C35.5395799,15.5440981 35.214409,15.5836021 34.9134774,15.5836021 C34.6758651,15.5836021 34.410056,15.5596352 34.1168745,15.5120321 C33.8233631,15.4642636 33.5540912,15.3807928 33.3083992,15.2617848 C33.0623773,15.1426116 32.8524672,14.9796369 32.6781743,14.7730259 C32.5035515,14.5665802 32.4166524,14.3122007 32.4166524,14.0102181 C32.4166524,13.6609629 32.4761791,13.3629472 32.5949028,13.1163363 C32.7137914,12.8702213 32.8763769,12.6717095 33.0824944,12.5204703 C33.288447,12.3695616 33.5260592,12.2505537 33.7959907,12.1629506 C34.0652626,12.0756781 34.3427792,12.0079097 34.6282108,11.9603065 C35.2305686,11.8493978 35.8327615,11.7659269 36.435614,11.7100593 C36.835317,11.6733652 37.1933019,11.5890679 37.5094037,11.457498 C37.7231063,11.3685727 37.9574207,11.5343573 37.9574207,11.7662575 L37.9574207,13.2475756 Z M39.1207479,5.58379562 C38.6529436,5.29751543 37.950825,5.05569793 37.3644619,4.92842557 C36.777769,4.80131849 36.3480552,4.73784759 35.7458623,4.73784759 C35.0640256,4.73784759 34.3981836,4.80131849 33.7483364,4.92842557 C33.0979944,5.05569793 32.5154239,5.27817664 32.0004599,5.5958617 C31.4851661,5.91387733 31.0612237,6.33486788 30.7283027,6.85932921 C30.4486424,7.29982383 30.2695675,7.83569009 30.1914078,8.4665974 C30.1668386,8.66345635 30.3221687,8.83767073 30.5200415,8.83767073 L32.5843496,8.83767073 C32.7431425,8.83767073 32.8765418,8.72329089 32.9077067,8.56725827 C33.0137336,8.03568952 33.2780587,7.63321132 33.7008469,7.35982366 C34.1919012,7.04213861 34.8184984,6.8829655 35.5793194,6.8829655 C35.8487562,6.8829655 36.1340228,6.90313074 36.435614,6.94263476 C36.7365455,6.98246935 37.0099398,7.06180797 37.2557967,7.18098119 C37.5014888,7.3003197 37.7076063,7.47122831 37.8741492,7.69337644 C38.0406922,7.91618573 38.1239637,8.20230062 38.1239637,8.55172112 C38.1239637,8.94907537 38.0245326,9.24709106 37.8266598,9.44543761 C37.6281274,9.64444531 37.3588555,9.79122176 37.0181845,9.8864281 C36.6768539,9.98179973 36.284571,10.0495681 35.8410062,10.0892374 C35.4000796,10.1289068 34.935903,10.1953528 34.4486412,10.2897327 C34.4420454,10.2910551 34.4352848,10.2920468 34.428689,10.2928732 C33.8611239,10.3565094 33.2971864,10.4474183 32.737701,10.565765 C32.1747529,10.6851035 31.6675389,10.8798137 31.2157293,11.1498956 C30.7639198,11.4201428 30.3990093,11.7933649 30.1218225,12.270223 C29.8443059,12.7469159 29.7057949,13.3667489 29.7057949,14.1295566 C29.7057949,14.7335219 29.8205612,15.2617848 30.0505883,15.7146761 C30.2801208,16.1675674 30.589297,16.5411201 30.9779522,16.8350035 C31.3661127,17.1292176 31.8139648,17.351531 32.3215085,17.5024397 C32.8285576,17.653183 33.3596812,17.72872 33.9147144,17.72872 C34.6437108,17.72872 35.401069,17.6097121 36.1857995,17.3712004 C36.7972265,17.1855811 37.3341214,16.9130198 37.7964842,16.5535167 C37.8476013,16.5138474 37.9066334,16.4935169 37.9664899,16.4874012 L37.9664899,17.4503737 C37.9664899,17.5606213 38.1191817,17.6498773 38.3076556,17.6498773 L40.4283574,17.6498773 C40.6168312,17.6498773 40.769688,17.5606213 40.769688,17.4503737 L40.769688,16.9887221 L40.769688,14.6538527 L40.769688,10.4115506 L40.769688,8.3132094 C40.769688,7.66180628 40.5602726,7.19370843 40.275006,6.74081714 C39.9894095,6.28809115 39.5882224,5.86974522 39.1207479,5.58379562 L39.1207479,5.58379562 Z" id="Fill-34"></path>
                                    <path d="M46.0742942,1.87745115 C46.0742942,2.74557203 45.3618577,3.44923472 44.4829123,3.44923472 C43.603967,3.44923472 42.8915305,2.74557203 42.8915305,1.87745115 C42.8915305,1.00949572 43.603967,0.305667586 44.4829123,0.305667586 C45.3618577,0.305667586 46.0742942,1.00949572 46.0742942,1.87745115 M43.4086458,5.08719865 L45.492016,5.08719865 C45.6771188,5.08719865 45.8272112,5.23560811 45.8272112,5.4182659 L45.8272112,17.0919852 C45.8272112,17.2748084 45.6771188,17.4230524 45.492016,17.4230524 L43.4086458,17.4230524 C43.2233755,17.4230524 43.0734505,17.2748084 43.0734505,17.0919852 L43.0734505,5.4182659 C43.0734505,5.23560811 43.2233755,5.08719865 43.4086458,5.08719865" id="Fill-36"></path>
                                    <path d="M48.5250047,5.0722965 L50.4270486,5.0722965 C50.6086574,5.0722965 50.7559167,5.22071959 50.7559167,5.4037637 L50.7559167,6.88782896 L50.8034144,6.93570204 C51.2141296,6.2510674 51.7515602,5.71353064 52.4152129,5.32325742 C53.0788656,4.9329842 53.8135184,4.73784759 54.6193355,4.73784759 C55.9622544,4.73784759 57.021009,5.08836462 57.7954349,5.78890174 C58.5693677,6.49010146 58.9569094,7.54098996 58.9569094,8.94222984 L58.9569094,17.0915852 C58.9569094,17.2746293 58.8096501,17.4230524 58.6280413,17.4230524 L56.5836687,17.4230524 C56.4020599,17.4230524 56.2548007,17.2746293 56.2548007,17.0915852 L56.2548007,9.65900073 C56.2230808,8.68779026 56.0178053,7.98294622 55.6384813,7.54479993 C55.2594859,7.10698494 54.6668332,6.88782896 53.8610161,6.88782896 C53.4024744,6.88782896 52.9917592,6.9714826 52.6285416,7.13878988 C52.264831,7.30593151 51.9566713,7.53701434 51.7040625,7.83154141 C51.451125,8.12639979 51.2539028,8.47277555 51.1115741,8.87066871 C50.9692454,9.26889316 50.898081,9.69113698 50.898081,10.1367376 L50.898081,17.0915852 C50.898081,17.2746293 50.7508218,17.4230524 50.569213,17.4230524 L48.5250047,17.4230524 C48.343396,17.4230524 48.1961367,17.2746293 48.1961367,17.0915852 L48.1961367,5.4037637 C48.1961367,5.22071959 48.343396,5.0722965 48.5250047,5.0722965" id="Fill-38"></path>
                                    <path d="M61.4265166,0.358773509 L64.1605304,0.358773509 C64.2727179,0.358773509 64.3773273,0.416396258 64.4379514,0.51138246 L67.9177402,5.96794125 C68.0460721,6.16920572 68.3366723,6.17202874 68.4689579,5.97358728 L72.1064022,0.506068547 C72.1675205,0.41407142 72.2701531,0.358773509 72.380199,0.358773509 L74.9044996,0.358773509 C75.16973,0.358773509 75.3263971,0.658677498 75.1763195,0.879038845 L70.0514439,8.40918629 C69.9743459,8.52243907 69.9743459,8.67156077 70.0511144,8.78481355 L75.5815783,16.9380173 C75.7313263,17.1585447 75.5744945,17.4577845 75.3094289,17.4577845 L72.5017766,17.4577845 C72.3904128,17.4577845 72.2864623,17.400992 72.2256735,17.3070022 L68.3681375,11.3432968 C68.2386524,11.1430287 67.9482169,11.1421984 67.8172492,11.341138 L63.8918406,17.3089949 C63.8307223,17.4019884 63.7275955,17.4577845 63.6170554,17.4577845 L61.0215873,17.4577845 C60.7565217,17.4577845 60.5998546,17.1585447 60.7494379,16.9380173 L66.2800665,8.78481355 C66.3568351,8.67156077 66.3568351,8.52243907 66.2797371,8.40918629 L61.1546967,0.879038845 C61.0046192,0.658677498 61.1612863,0.358773509 61.4265166,0.358773509" id="Fill-40"></path>
                                </g>
                            </g>
                        </g>
                    </g>
                </g>
            </g>
        </g>
    </g>
</svg>