<?xml version="1.0" encoding="UTF-8"?>
<svg width="40px" height="40px" viewBox="0 0 40 40" version="1.1" xmlns="http://www.w3.org/2000/svg" xmlns:xlink="http://www.w3.org/1999/xlink">
    <!-- Generator: Sketch 61.2 (89653) - https://sketch.com -->
    <title>编组 13</title>
    <desc>Created with Sketch.</desc>
    <g id="1.0" stroke="none" stroke-width="1" fill="none" fill-rule="evenodd">
        <g id="002" transform="translate(-876.000000, -212.000000)" fill="#EA754B">
            <g id="编组-18备份" transform="translate(856.000000, 188.000000)">
                <g id="编组-13" transform="translate(20.000000, 24.000000)">
                    <path d="M20,0 C31.045695,0 40,8.954305 40,20 C40,31.045695 31.045695,40 20,40 C8.954305,40 0,31.045695 0,20 C0,8.954305 8.954305,0 20,0 Z M17.24,18.072 L16.088,18.072 L16.088,20.304 C16.076,20.532 16.052,20.76 16.016,21 L13.124,21 L13.124,22.104 L15.74,22.104 C15.644,22.344 15.536,22.56 15.416,22.776 C15.008,23.352 14.228,23.844 13.076,24.24 L13.712,25.248 C14.912,24.84 15.788,24.264 16.316,23.52 C16.352,23.472 16.388,23.412 16.424,23.352 C17.288,23.844 18.14,24.48 18.98,25.26 L19.628,24.264 C18.788,23.568 17.864,22.968 16.856,22.464 C16.892,22.344 16.928,22.224 16.976,22.104 L19.556,22.104 L19.556,21 L17.192,21 C17.216,20.772 17.228,20.544 17.24,20.304 L17.24,18.072 Z M11.264,16.38 L10.268,16.38 L10.268,20.316 C10.244,21.312 10.1,22.128 9.86,22.752 C9.62,23.328 9.152,23.808 8.456,24.204 L9.092,25.2 C9.836,24.804 10.376,24.24 10.712,23.496 C11.048,22.704 11.24,21.636 11.264,20.316 L11.264,16.38 Z M30.956,14.796 L21.044,14.796 L21.044,25.008 L22.256,25.008 L22.256,24.624 L29.744,24.624 L29.744,25.008 L30.956,25.008 L30.956,14.796 Z M11.72,22.5 L10.964,23.232 C11.516,23.784 11.948,24.312 12.26,24.804 L13.076,23.988 C12.692,23.484 12.248,22.992 11.72,22.5 Z M29.744,15.9 L29.744,23.52 L22.256,23.52 L22.256,15.9 L29.744,15.9 Z M12.764,14.556 L8.756,14.556 L8.756,22.212 L9.836,22.212 L9.836,15.684 L11.72,15.684 L11.72,22.212 L12.764,22.212 L12.764,14.556 Z M28.436,17.436 L23.576,17.436 L23.576,21.936 L28.436,21.936 L28.436,17.436 Z M13.58,19.032 L13.028,19.836 C13.616,20.088 14.192,20.448 14.756,20.904 L15.296,20.04 C14.78,19.644 14.204,19.308 13.58,19.032 Z M27.26,18.48 L27.26,20.892 L24.74,20.892 L24.74,18.48 L27.26,18.48 Z M16.952,14.124 L15.776,14.124 L15.776,14.82 L13.616,14.82 L13.616,15.9 L15.776,15.9 L15.776,16.68 L13.22,16.68 L13.22,17.784 L18.2,17.784 C18.044,18.384 17.864,18.912 17.648,19.368 L18.776,19.692 C19.04,18.936 19.256,18.18 19.424,17.424 L19.424,16.68 L16.952,16.68 L16.952,15.9 L19.124,15.9 L19.124,14.82 L16.952,14.82 L16.952,14.124 Z M14.444,17.916 L13.928,18.684 C14.432,18.9 14.924,19.2 15.404,19.596 L15.956,18.744 C15.5,18.42 14.996,18.144 14.444,17.916 Z" id="形状结合"></path>
                </g>
            </g>
        </g>
    </g>
</svg>