<?xml version="1.0" encoding="UTF-8"?>
<svg width="16px" height="16px" viewBox="0 0 16 16" version="1.1" xmlns="http://www.w3.org/2000/svg" xmlns:xlink="http://www.w3.org/1999/xlink">
    <!-- Generator: Sketch 61.2 (89653) - https://sketch.com -->
    <title>警告</title>
    <desc>Created with Sketch.</desc>
    <defs>
        <path d="M8,0 C3.584,0 0,3.584 0,8 C0,12.416 3.584,16 8,16 C12.416,16 16,12.416 16,8 C16,3.584 12.416,0 8,0 Z M8,8 C7.45,8 7,7.625 7,7.16666667 L7,3.83333333 C7,3.375 7.45,3 8,3 C8.55,3 9,3.375 9,3.83333333 L9,7.16666667 C9,7.625 8.55,8 8,8 Z M9,12 L7,12 L7,10 L9,10 L9,12 Z" id="path-1"></path>
    </defs>
    <g id="1.0" stroke="none" stroke-width="1" fill="none" fill-rule="evenodd">
        <g id="012" transform="translate(-886.000000, -96.000000)">
            <g id="分组-copy-9" transform="translate(866.000000, 76.000000)">
                <g id="警告" transform="translate(20.000000, 20.000000)">
                    <mask id="mask-2" fill="white">
                        <use xlink:href="#path-1"></use>
                    </mask>
                    <use id="Mask" fill="#000000" fill-rule="nonzero" xlink:href="#path-1"></use>
                    <g id="黄色" mask="url(#mask-2)" fill="#F6C94A" fill-rule="evenodd">
                        <rect id="矩形" x="0" y="0" width="16" height="16"></rect>
                    </g>
                </g>
            </g>
        </g>
    </g>
</svg>