<?xml version="1.0" encoding="UTF-8"?>
<svg width="24px" height="24px" viewBox="0 0 24 24" version="1.1" xmlns="http://www.w3.org/2000/svg" xmlns:xlink="http://www.w3.org/1999/xlink">
    <!-- Generator: Sketch 61.2 (89653) - https://sketch.com -->
    <title>资产保险库</title>
    <desc>Created with Sketch.</desc>
    <g id="资产保险库" stroke="none" stroke-width="1" fill="none" fill-rule="evenodd">
        <g id="编组-5">
            <rect id="矩形" x="0" y="0" width="24" height="24"></rect>
            <g id="编组-4" transform="translate(1.500000, 3.812965)" fill="#8E8E8E">
                <path d="M16.640656,0.187034701 C17.6443733,0.187034701 18.4926252,0.930985856 18.6235646,1.92612568 L20.202512,13.9261257 C20.346608,15.0212559 19.5756426,16.0258472 18.4805124,16.1699433 C18.3940086,16.1813254 18.3068528,16.1870347 18.2196034,16.1870347 L2.78039662,16.1870347 C1.67582712,16.1870347 0.780396621,15.2916042 0.780396621,14.1870347 C0.780396621,14.0997853 0.786105955,14.0126294 0.79748803,13.9261257 L2.3764354,1.92612568 C2.50737485,0.930985856 3.3556267,0.187034701 4.35934399,0.187034701 L16.640656,0.187034701 Z M10.5,4.3740694 C9.3954305,4.3740694 8.5,5.2694999 8.5,6.3740694 C8.5,7.19399984 8.99340075,7.89869035 9.69949056,8.20742926 L9.7,11.3740694 L11.3,11.3740694 L11.3005094,8.20742926 C12.0065992,7.89869035 12.5,7.19399984 12.5,6.3740694 C12.5,5.2694999 11.6045695,4.3740694 10.5,4.3740694 Z" id="形状结合"></path>
            </g>
        </g>
    </g>
</svg>