<?xml version="1.0" encoding="UTF-8"?>
<svg width="14px" height="14px" viewBox="0 0 14 14" version="1.1" xmlns="http://www.w3.org/2000/svg" xmlns:xlink="http://www.w3.org/1999/xlink">
    <title>insert_comment-24px</title>
    <g id="页面-1" stroke="none" stroke-width="1" fill="none" fill-rule="evenodd">
        <g id="003" transform="translate(-322.000000, -344.000000)">
            <g id="编组-9" transform="translate(40.000000, 337.000000)">
                <g id="编组备份-3" transform="translate(272.000000, 0.000000)">
                    <g id="insert_comment-24px" transform="translate(10.000000, 7.000000)">
                        <rect id="矩形" x="0" y="0" width="14" height="14"></rect>
                        <path d="M12.8275,2.33333333 C12.8275,1.69166667 12.3083333,1.16666667 11.6666667,1.16666667 L2.33333333,1.16666667 C1.69166667,1.16666667 1.16666667,1.69166667 1.16666667,2.33333333 L1.16666667,9.33333333 C1.16666667,9.975 1.69166667,10.5 2.33333333,10.5 L10.5,10.5 L11.8358333,11.8358333 C12.2033333,12.2033333 12.8333333,11.9408333 12.8333333,11.4216667 L12.8275,2.33333333 Z M9.91666667,8.16666667 L4.08333333,8.16666667 C3.7625,8.16666667 3.5,7.90416667 3.5,7.58333333 L3.5,7.58333333 C3.5,7.2625 3.7625,7 4.08333333,7 L9.91666667,7 C10.2375,7 10.5,7.2625 10.5,7.58333333 L10.5,7.58333333 C10.5,7.90416667 10.2375,8.16666667 9.91666667,8.16666667 Z M9.91666667,6.41666667 L4.08333333,6.41666667 C3.7625,6.41666667 3.5,6.15416667 3.5,5.83333333 L3.5,5.83333333 C3.5,5.5125 3.7625,5.25 4.08333333,5.25 L9.91666667,5.25 C10.2375,5.25 10.5,5.5125 10.5,5.83333333 L10.5,5.83333333 C10.5,6.15416667 10.2375,6.41666667 9.91666667,6.41666667 Z M9.91666667,4.66666667 L4.08333333,4.66666667 C3.7625,4.66666667 3.5,4.40416667 3.5,4.08333333 L3.5,4.08333333 C3.5,3.7625 3.7625,3.5 4.08333333,3.5 L9.91666667,3.5 C10.2375,3.5 10.5,3.7625 10.5,4.08333333 L10.5,4.08333333 C10.5,4.40416667 10.2375,4.66666667 9.91666667,4.66666667 Z" id="形状" fill="#000000" fill-rule="nonzero" transform="translate(7.000000, 6.587003) scale(-1, 1) translate(-7.000000, -6.587003) "></path>
                    </g>
                </g>
            </g>
        </g>
    </g>
</svg>