<?xml version="1.0" encoding="UTF-8"?>
<svg width="14px" height="14px" viewBox="0 0 14 14" version="1.1" xmlns="http://www.w3.org/2000/svg" xmlns:xlink="http://www.w3.org/1999/xlink">
    <title>insert_drive_file-24px</title>
    <g id="页面-1" stroke="none" stroke-width="1" fill="none" fill-rule="evenodd">
        <g id="003" transform="translate(-404.000000, -344.000000)">
            <g id="编组-9" transform="translate(40.000000, 337.000000)">
                <g id="编组备份-4" transform="translate(354.000000, 0.000000)">
                    <g id="insert_drive_file-24px" transform="translate(10.000000, 7.000000)">
                        <rect id="矩形" x="0" y="0" width="14" height="14"></rect>
                        <path d="M3.5,1.16666667 C2.85833333,1.16666667 2.33916667,1.69166667 2.33916667,2.33333333 L2.33333333,11.6666667 C2.33333333,12.3083333 2.8525,12.8333333 3.49416667,12.8333333 L10.5,12.8333333 C11.1416667,12.8333333 11.6666667,12.3083333 11.6666667,11.6666667 L11.6666667,5.15083333 C11.6666667,4.84166667 11.5441667,4.54416667 11.3225,4.32833333 L8.505,1.51083333 C8.28916667,1.28916667 7.99166667,1.16666667 7.6825,1.16666667 L3.5,1.16666667 Z M7.58333333,4.66666667 L7.58333333,2.04166667 L10.7916667,5.25 L8.16666667,5.25 C7.84583333,5.25 7.58333333,4.9875 7.58333333,4.66666667 Z" id="形状" fill="#000000" fill-rule="nonzero"></path>
                    </g>
                </g>
            </g>
        </g>
    </g>
</svg>