<?xml version="1.0" encoding="UTF-8"?>
<svg width="227px" height="32px" viewBox="0 0 227 32" version="1.1" xmlns="http://www.w3.org/2000/svg" xmlns:xlink="http://www.w3.org/1999/xlink">
    <title>paramarketcap logo</title>
    <g id="页面-1" stroke="none" stroke-width="1" fill="none" fill-rule="evenodd">
        <g id="001" transform="translate(-25.000000, -25.000000)">
            <g id="paramarketcap" transform="translate(20.000000, 20.000000)">
                <g id="编组-47" transform="translate(43.000000, 0.000000)">
                    <rect id="矩形" x="0" y="0" width="194.146341" height="40"></rect>
                    <path d="M177.267516,15.7129516 L177.267456,18.4545276 L177.311655,18.381642 C178.301092,16.766804 180.003079,15.7781651 182.014187,15.7160623 L182.114999,15.7137307 L182.216314,15.7129516 C186.214024,15.7129516 188.887848,18.9215406 188.887848,23.7611623 C188.887848,28.5967299 186.232063,31.809373 182.275526,31.809373 C180.223086,31.809373 178.483676,30.8794223 177.487932,29.3134261 L177.439563,29.2358984 L177.400722,29.1714047 L177.400743,36.9756098 L174.656601,36.9756098 L174.656601,15.7129516 L177.267516,15.7129516 Z M148.784016,9.65853659 C152.695744,9.65853659 155.905284,11.6644986 157.181475,14.8925131 C157.330118,15.2641219 157.409542,15.645358 157.409542,15.9747997 C157.409542,16.7591962 156.900389,17.2728558 156.126289,17.2728558 C155.45425,17.2728558 154.976048,16.9122117 154.668511,16.1756618 L154.641818,16.1096962 C153.674931,13.6924783 151.463144,12.2842546 148.784016,12.2842546 C144.661232,12.2842546 141.984847,15.6173448 141.984847,20.7709622 C141.984847,25.9721167 144.63414,29.2724728 148.798819,29.2724728 C151.636468,29.2724728 153.73686,28.0548541 154.701907,25.7557844 C154.996655,25.0732083 155.396551,24.7723697 156.022669,24.7723697 C156.77737,24.7723697 157.320725,25.3110405 157.320725,26.0556227 C157.320725,26.5120804 157.208938,26.9208011 156.956642,27.4253931 C155.515564,30.3227172 152.670421,31.8981908 148.784016,31.8981908 C142.842136,31.8981908 139.077872,27.5788856 139.077872,20.7709622 C139.077872,14.022495 142.886341,9.65853659 148.784016,9.65853659 Z M84.6173673,15.7129516 C88.2314079,15.7129516 90.5465246,17.6575129 90.5924655,20.722161 L90.5931621,20.8153711 L90.5931621,31.809373 L87.982247,31.809373 L87.9820421,29.0297172 L87.9504627,29.084342 C87.0020879,30.6866743 85.1787992,31.7413427 83.2379841,31.8062009 L83.1424428,31.8085907 L83.0482524,31.809373 C79.9373734,31.809373 77.8422121,29.9215678 77.8422121,27.1066337 C77.8422121,24.4400842 79.8787702,22.7651538 83.3953488,22.5291642 L83.5023642,22.5224539 L87.8489864,22.2750361 L87.8490203,21.0670216 C87.8490203,19.2766671 86.6996294,18.2026378 84.717448,18.1483897 L84.6377173,18.1467644 L84.5581554,18.146231 C82.9081248,18.146231 81.8250017,18.7463 81.0044613,20.157927 L80.9607532,20.2343275 C80.710849,20.6872789 80.3441409,20.8995836 79.8212048,20.8995836 C79.1011604,20.8995836 78.5971636,20.3955868 78.5971636,19.6607394 C78.5971636,19.3143 78.7081133,18.9299384 78.9174487,18.5562185 C79.8045314,16.8421943 82.0801266,15.7129516 84.6173673,15.7129516 Z M22.1196479,15.7129516 C25.7336886,15.7129516 28.0488052,17.6575129 28.0947462,20.722161 L28.0954427,20.8153711 L28.0954427,31.809373 L25.4845277,31.809373 L25.4843998,29.0295067 L25.4527434,29.084342 C24.5043686,30.6866743 22.6810798,31.7413427 20.7402648,31.8062009 L20.6447234,31.8085907 L20.5505331,31.809373 C17.4396541,31.809373 15.3444927,29.9215678 15.3444927,27.1066337 C15.3444927,24.4400842 17.3810508,22.7651538 20.8976294,22.5291642 L21.0046449,22.5224539 L25.3511336,22.2752467 L25.3513009,21.0670216 C25.3513009,19.2766671 24.20191,18.2026378 22.2197286,18.1483897 L22.1399979,18.1467644 L22.0604361,18.146231 C20.4104055,18.146231 19.3272824,18.7463 18.5067419,20.157927 L18.4630339,20.2343275 C18.2131297,20.6872789 17.8464216,20.8995836 17.3234854,20.8995836 C16.603441,20.8995836 16.0994442,20.3955868 16.0994442,19.6607394 C16.0994442,19.3373959 16.1960938,18.981018 16.3791778,18.63109 L16.4197293,18.5562185 C17.306812,16.8421943 19.5824072,15.7129516 22.1196479,15.7129516 Z M95.8592132,15.7129516 L95.8590647,18.2341015 L95.8739666,18.1953665 C96.4192624,16.801434 97.768435,15.7822184 99.1824566,15.7163422 L99.2556497,15.7137879 L99.3277137,15.7129516 C99.8962282,15.7129516 100.323287,15.8461625 100.599017,16.1056744 C100.834524,16.3254806 100.951435,16.639932 100.951435,17.0258106 C100.951435,17.4485813 100.80843,17.7703425 100.521454,17.9934856 C100.251778,18.2182156 99.8602025,18.3284325 99.3174617,18.3379879 L99.2388959,18.3386696 C97.1726364,18.3386696 96.0345323,19.712376 96.0077275,21.8195083 L96.0072429,21.895988 L96.0072429,31.809373 L93.2631011,31.809373 L93.2631011,15.7129516 L95.8592132,15.7129516 Z M33.3614938,15.7129516 L33.3614224,18.2338909 L33.3762473,18.1953665 C33.921543,16.801434 35.2707156,15.7822184 36.6847373,15.7163422 L36.7579304,15.7137879 L36.8299943,15.7129516 C37.3985089,15.7129516 37.8255674,15.8461625 38.1012976,16.1056744 C38.3368043,16.3254806 38.4537158,16.639932 38.4537158,17.0258106 C38.4537158,17.4485813 38.3107108,17.7703425 38.0237346,17.9934856 C37.7540587,18.2182156 37.3624831,18.3284325 36.8197424,18.3379879 L36.7411765,18.3386696 C34.674917,18.3386696 33.536813,19.712376 33.5100081,21.8195083 L33.5095235,21.895988 L33.5095235,31.809373 L30.7653817,31.809373 L30.7653817,15.7129516 L33.3614938,15.7129516 Z M105.048052,9.74735441 L105.047907,22.703467 L111.787673,16.166903 C112.08341,15.8711659 112.334405,15.7395437 112.668234,15.7166385 L112.724661,15.7138181 L112.779808,15.7129516 C113.428234,15.7129516 113.95944,16.2342281 113.95944,16.8629779 C113.95944,17.2258464 113.855062,17.4638113 113.563817,17.7535602 L113.518718,17.797433 L108.33514,22.7171515 L114.073908,29.7033791 C114.297637,29.9797504 114.3947,30.2087707 114.414442,30.5066438 L114.417374,30.5671709 L114.418332,30.6297407 C114.418332,31.2976457 113.863156,31.809373 113.149882,31.809373 C112.733428,31.809373 112.453091,31.6829969 112.162634,31.3517675 L112.12295,31.3053228 L106.392359,24.4169799 L105.047907,25.6919565 L105.048052,31.809373 L102.30391,31.809373 L102.30391,9.74735441 L105.048052,9.74735441 Z M166.010867,15.7129516 C169.624908,15.7129516 171.940025,17.6575129 171.985965,20.722161 L171.986662,20.8153711 L171.986662,31.809373 L169.375747,31.809373 L169.375696,29.0295067 L169.343963,29.084342 C168.395588,30.6866743 166.572299,31.7413427 164.631484,31.8062009 L164.535943,31.8085907 L164.441752,31.809373 C161.330873,31.809373 159.235712,29.9215678 159.235712,27.1066337 C159.235712,24.4400842 161.27227,22.7651538 164.788849,22.5291642 L164.895864,22.5224539 L169.24243,22.2750361 L169.24252,21.0670216 C169.24252,19.2766671 168.093129,18.2026378 166.110948,18.1483897 L166.031217,18.1467644 L165.951655,18.146231 C164.301625,18.146231 163.218502,18.7463 162.397961,20.157927 L162.354253,20.2343275 C162.104349,20.6872789 161.737641,20.8995836 161.214705,20.8995836 C160.49466,20.8995836 159.990664,20.3955868 159.990664,19.6607394 C159.990664,19.3143 160.101613,18.9299384 160.310949,18.5562185 C161.198031,16.8421943 163.473627,15.7129516 166.010867,15.7129516 Z M122.027858,15.7129516 C126.017137,15.7129516 128.817816,18.7018008 128.817816,22.9618019 C128.817816,23.9210493 128.27015,24.5169435 127.368182,24.5403956 L127.312518,24.5411144 L117.775146,24.5409828 L117.775299,24.5484904 C117.807595,27.4989618 119.403599,29.3313729 121.986892,29.4034891 L122.065475,29.405135 L122.146282,29.4056995 C123.950923,29.4056995 125.051292,28.7707529 126.237575,27.042625 C126.514548,26.6579406 126.832686,26.4895143 127.268109,26.4895143 C127.998419,26.4895143 128.492151,26.9741031 128.492151,27.6987525 C128.492151,27.9105333 128.42143,28.1816308 128.291562,28.4898469 C127.285082,30.6079615 125.093803,31.809373 122.249902,31.809373 C117.660137,31.809373 114.956643,28.8424197 114.956643,23.8203742 C114.956643,18.9125986 117.737289,15.7129516 122.027858,15.7129516 Z M45.5155317,15.7129516 C49.1295723,15.7129516 51.444689,17.6575129 51.4906299,20.722161 L51.4913265,20.8153711 L51.4913265,31.809373 L48.8804114,31.809373 L48.8803042,29.0295067 L48.8486271,29.084342 C47.9002523,30.6866743 46.0769635,31.7413427 44.1361485,31.8062009 L44.0406072,31.8085907 L43.9464168,31.809373 C40.8355378,31.809373 38.7403765,29.9215678 38.7403765,27.1066337 C38.7403765,24.4400842 40.7769345,22.7651538 44.2935131,22.5291642 L44.4005286,22.5224539 L48.747038,22.2750361 L48.7471846,21.0670216 C48.7471846,19.2766671 47.5977937,18.2026378 45.6156123,18.1483897 L45.5358817,18.1467644 L45.4563198,18.146231 C43.8062892,18.146231 42.7231661,18.7463 41.9026257,20.157927 L41.8589176,20.2343275 C41.6090134,20.6872789 41.2423053,20.8995836 40.7193692,20.8995836 C39.9993247,20.8995836 39.495328,20.3955868 39.495328,19.6607394 C39.495328,19.3373959 39.5919775,18.981018 39.7750615,18.63109 L39.815613,18.5562185 C40.7026957,16.8421943 42.978291,15.7129516 45.5155317,15.7129516 Z M74.0222468,9.80656629 C75.0587885,9.80656629 75.7531157,10.4731523 75.7784761,11.4907394 L75.7791949,11.5487115 L75.7791949,31.7501611 L73.1238709,31.7501611 L73.123807,15.1698207 L66.8462686,30.1890453 C66.5113787,30.9753084 66.028653,31.3535436 65.2963151,31.3916719 L65.2329297,31.3941087 L65.1700703,31.3948898 C64.3878294,31.3948898 63.8615804,31.0391804 63.5215358,30.2820939 L63.4936283,30.2180733 L57.2160741,15.1698207 L57.2162696,31.7501611 L54.5609457,31.7501611 L54.5609457,11.5487115 C54.5609457,10.5088651 55.2811374,9.80656629 56.3474997,9.80656629 C57.2600926,9.80656629 57.8347573,10.231708 58.2615714,11.2118722 L58.2904455,11.2795631 L65.1667826,27.8364267 L65.172888,27.8364267 L72.0351391,11.2789748 C72.4460257,10.3104563 73.0208363,9.84933231 73.8952741,9.80941302 L73.9582454,9.80727681 L74.0222468,9.80656629 Z M8.34188871,10.0138079 C12.4074045,10.0138079 15.2650736,12.871477 15.2650736,16.9517958 C15.2650736,21.0008198 12.4403693,23.861715 8.43404648,23.918528 L8.31228276,23.9193896 L3.46705335,23.9192843 L3.46710598,31.7501611 L0.634146341,31.7501611 L0.634146341,11.4746966 C0.634146341,10.6044063 1.16563194,10.0377821 1.99714559,10.0145505 L2.05062616,10.0138079 L8.34188871,10.0138079 Z M134.379926,11.9678 L134.379737,15.979313 L136.279312,15.9794051 C137.024093,15.9794051 137.473912,16.3585774 137.515063,17.0142212 L137.517381,17.0639112 L137.518156,17.1146284 C137.518156,17.8274798 137.084546,18.244943 136.333497,18.2639744 L136.279312,18.2646548 L134.379737,18.2646285 L134.379926,27.3434812 C134.379926,28.5949886 134.807642,29.1498635 135.923584,29.262153 L135.985138,29.2678405 L136.048066,29.2726593 L136.270404,29.2874823 C137.141936,29.3486424 137.577368,29.7121687 137.577368,30.3780902 C137.577368,31.2542462 137.033887,31.6472133 135.68742,31.6609684 L135.450346,31.6613433 C132.941693,31.6613433 131.664334,30.4341706 131.636258,27.9888809 L131.635785,27.9059941 L131.635674,18.2646285 L130.432139,18.2646548 C129.684725,18.2646548 129.236821,17.8830864 129.196304,17.215636 L129.19403,17.1650427 L129.193294,17.1146284 C129.193294,16.4145184 129.628624,15.9994812 130.376835,15.9801144 L130.432139,15.9794051 L131.635674,15.979313 L131.635785,11.9678 L134.379926,11.9678 Z M169.24243,24.4426647 L165.202106,24.6889706 C163.173572,24.8193764 162.024263,25.7043442 162.024263,27.1066337 C162.024263,28.5182571 163.208406,29.4501084 165.019068,29.4501084 C167.379981,29.4501084 169.202954,27.8159386 169.241885,25.6813168 L169.24252,25.6115336 L169.24243,24.4426647 Z M25.3511336,24.4426647 L21.3108871,24.6889706 C19.2823522,24.8193764 18.1330435,25.7043442 18.1330435,27.1066337 C18.1330435,28.5182571 19.3171863,29.4501084 21.1278489,29.4501084 C23.4887617,29.4501084 25.3117346,27.8159386 25.3506654,25.6813168 L25.3513009,25.6115336 L25.3511336,24.4426647 Z M87.8490203,24.4426647 L83.8086064,24.6889706 C81.7800716,24.8193764 80.6307628,25.7043442 80.6307628,27.1066337 C80.6307628,28.5182571 81.8149057,29.4501084 83.6255683,29.4501084 C85.9864811,29.4501084 87.809454,27.8159386 87.8483847,25.6813168 L87.8490203,25.6115336 L87.8490203,24.4426647 Z M48.747038,24.4426647 L44.7067708,24.6889706 C42.6782359,24.8193764 41.5289272,25.7043442 41.5289272,27.1066337 C41.5289272,28.5182571 42.7130701,29.4501084 44.5237326,29.4501084 C46.8846454,29.4501084 48.7076184,27.8159386 48.7465491,25.6813168 L48.7471846,25.6115336 L48.747038,24.4426647 Z M181.713013,18.146231 C179.125718,18.146231 177.38594,20.3896292 177.38594,23.7611623 C177.38594,27.1421989 179.121568,29.3760936 181.713013,29.3760936 C184.397237,29.3760936 186.084494,27.2154329 186.084494,23.7611623 C186.084494,20.3163288 184.393035,18.146231 181.713013,18.146231 Z M121.983449,18.1166251 C119.679129,18.1166251 118.021962,19.7718701 117.801865,22.2821216 L117.795357,22.3594591 L125.982281,22.3594591 L125.97909,22.2801642 C125.85981,19.7901406 124.312457,18.1525139 122.058026,18.1172076 L121.983449,18.1166251 Z M7.64614908,12.5507081 L3.46705335,12.5506028 L3.46705335,21.3823841 L7.64614908,21.3824894 C10.6390569,21.3824894 12.3580991,19.7567888 12.3580991,16.9517958 C12.3580991,14.1860096 10.684023,12.582974 7.73587643,12.5511899 L7.64614908,12.5507081 Z" id="形状" fill="#111111" fill-rule="nonzero"></path>
                </g>
                <g id="编组-45">
                    <rect id="矩形" x="0" y="0" width="40" height="40"></rect>
                    <g id="编组-48" transform="translate(5.365854, 5.121951)">
                        <path d="M12.4390244,0 L27.804878,0 C28.6130996,0 29.2682927,0.655193049 29.2682927,1.46341463 L29.2682927,6.58536585 C29.2682927,7.39358744 28.6130996,8.04878049 27.804878,8.04878049 L12.4390244,8.04878049 C11.6308028,8.04878049 10.9756098,7.39358744 10.9756098,6.58536585 L10.9756098,1.46341463 C10.9756098,0.655193049 11.6308028,0 12.4390244,0 Z" id="矩形备份-59" fill="#F29C5F"></path>
                        <path d="M1.46341463,0 L6.34146341,0 C7.149685,0 7.80487805,0.655193049 7.80487805,1.46341463 L7.80487805,6.58536585 C7.80487805,7.39358744 7.149685,8.04878049 6.34146341,8.04878049 L1.46341463,8.04878049 C0.655193049,8.04878049 0,7.39358744 0,6.58536585 L0,1.46341463 C0,0.655193049 0.655193049,0 1.46341463,0 Z" id="矩形备份-60" fill="#E6007A"></path>
                        <g id="编组-46" transform="translate(0.000000, 11.463415)">
                            <path d="M1.95121951,0.243902439 L17.000936,0.243902439 C18.3322886,0.243902439 18.9521555,0.93927734 18.9521555,2.19512195 C18.9521555,2.80079546 18.806715,3.17877332 18.3322886,3.62157126 L3.2825722,17.6679733 C2.494766,18.4032591 1.26005599,18.3606828 0.524770208,17.5728766 C0.187548785,17.211568 0,16.7357529 0,16.241524 L0,2.19512195 C0,0.922693595 0.665750458,0.243902439 1.95121951,0.243902439 Z" id="矩形" fill="#6078EA"></path>
                            <path d="M27.3170732,18.0487805 L12.2673567,18.0487805 C11.1897279,18.0487805 10.3161372,17.1751898 10.3161372,16.097561 C10.3161372,15.5567188 10.5406185,15.0401381 10.936004,14.6711117 L25.9857205,0.624709659 C26.7735267,-0.110576125 28.0082367,-0.0679999175 28.7435225,0.719806279 C29.0807439,1.08111495 29.2682927,1.55693003 29.2682927,2.05115896 L29.2682927,16.097561 C29.2682927,17.3676045 28.7435225,18.0487805 27.3170732,18.0487805 Z" id="矩形备份-57" fill="#42A87A"></path>
                        </g>
                    </g>
                </g>
            </g>
        </g>
    </g>
</svg>