<?xml version="1.0" encoding="UTF-8"?>
<svg width="16px" height="16px" viewBox="0 0 16 16" version="1.1" xmlns="http://www.w3.org/2000/svg" xmlns:xlink="http://www.w3.org/1999/xlink">
    <title>Telegram</title>
    <g id="页面-1" stroke="none" stroke-width="1" fill="none" fill-rule="evenodd">
        <g id="003" transform="translate(-920.000000, -1238.000000)" fill-rule="nonzero">
            <g id="编组-7备份-2" transform="translate(900.000000, 1161.000000)">
                <g id="Telegram" transform="translate(20.000000, 77.000000)">
                    <path d="M16,8 C16,12.4 12.4,16 8,16 C3.6,16 0,12.4 0,8 C0,3.6 3.6,0 8,0 C12.4,0 16,3.6 16,8 Z" id="路径" fill="#36AAE8"></path>
                    <path d="M10.5713333,11.372 L11.9686667,4.73433333 C12.1086667,4.17533333 11.759,3.896 11.34,4.03566667 L3.095,7.17966667 C2.536,7.38966667 2.536,7.73866667 3.025,7.87866667 L5.12133333,8.57733333 L10.0823333,5.433 C10.2916667,5.293 10.5013333,5.363 10.3616667,5.503 L6.379,9.13633333 L6.239,11.3023333 C6.449,11.3023333 6.58866667,11.2323333 6.65833333,11.0923333 L7.70666667,10.1143333 L9.87266667,11.7213333 C10.222,11.9313333 10.5013333,11.7913333 10.5713333,11.372 L10.5713333,11.372 Z" id="路径" fill="#FFFFFF"></path>
                </g>
            </g>
        </g>
    </g>
</svg>