<?xml version="1.0" encoding="UTF-8"?>
<svg width="16px" height="16px" viewBox="0 0 16 16" version="1.1" xmlns="http://www.w3.org/2000/svg" xmlns:xlink="http://www.w3.org/1999/xlink">
    <title>twitter</title>
    <g id="页面-1" stroke="none" stroke-width="1" fill="none" fill-rule="evenodd">
        <g id="003" transform="translate(-1070.000000, -1238.000000)">
            <g id="编组-7备份-2" transform="translate(900.000000, 1161.000000)">
                <g id="twitter" transform="translate(170.000000, 77.000000)">
                    <rect id="矩形" x="0" y="0" width="16" height="16"></rect>
                    <path d="M16,2.93866667 C15.4025775,3.21054475 14.7669477,3.38906971 14.1153333,3.468 C14.8053566,3.04212535 15.3180149,2.38099741 15.5586667,1.60666667 C14.9160604,1.99772848 14.2101374,2.27364533 13.4726667,2.422 C12.8595592,1.74626102 11.9897606,1.3606253 11.0773333,1.36 C9.26533333,1.36 7.796,2.86666667 7.796,4.726 C7.796,4.99 7.824,5.246 7.88,5.49266667 C5.152,5.352 2.73333333,4.01266667 1.11333333,1.97466667 C0.821219408,2.49114902 0.668226915,3.0746339 0.669333328,3.668 C0.669333328,4.83533333 1.24933333,5.866 2.12933333,6.47 C1.60705488,6.45260506 1.09684048,6.30846377 0.642666672,6.05 L0.642666672,6.09133334 C0.642666672,7.72266667 1.774,9.08333334 3.276,9.39133334 C2.99494883,9.47101436 2.70412653,9.51095754 2.412,9.51 C2.20066667,9.51 1.994,9.49 1.794,9.45 C2.21133333,10.7873333 3.42333333,11.7606667 4.86,11.7866667 C3.49571756,12.890569 1.74209778,13.3940431 0,13.182 C1.4932653,14.1674119 3.24290034,14.6929051 5.032,14.6933333 C11.0706667,14.6933333 14.372,9.56533334 14.372,5.11666667 C14.372,4.97 14.3686667,4.824 14.3633333,4.68066667 C15.0046667,4.206 15.5613333,3.614 16,2.93866667" id="路径" fill="#55ACEE" fill-rule="nonzero"></path>
                </g>
            </g>
        </g>
    </g>
</svg>