<?xml version="1.0" encoding="UTF-8"?>
<svg width="153px" height="48px" viewBox="0 0 153 48" version="1.1" xmlns="http://www.w3.org/2000/svg" xmlns:xlink="http://www.w3.org/1999/xlink">
    <title>web3基金会</title>
    <defs>
        <linearGradient x1="47.2394539%" y1="2.89917073%" x2="55.5555742%" y2="100%" id="linearGradient-1">
            <stop stop-color="#E6007A" stop-opacity="0.3" offset="0%"></stop>
            <stop stop-color="#E6007A" offset="100%"></stop>
        </linearGradient>
    </defs>
    <g id="页面-1" stroke="none" stroke-width="1" fill="none" fill-rule="evenodd">
        <g id="007" transform="translate(-176.000000, -248.000000)" fill-rule="nonzero">
            <g id="web3基金会" transform="translate(176.000000, 248.000000)">
                <g id="叶片-右-2" fill="url(#linearGradient-1)">
                    <path d="M13.6446018,42.0674157 C15.8025422,43.4515461 16,46.1447873 16,46.1447873 C12.6673586,49.2627694 10.1147292,47.5849428 9.66915348,47.2423681 L9.62452676,47.2069442 C9.60779651,47.193153 9.59951293,47.1855755 9.6,47.1857085 C11.5675295,44.7774188 15.3099286,45.7193531 15.3099286,45.7193531 C13.7130361,44.4516276 13.6465004,42.3598554 13.644562,42.095226 Z M10.794466,39.8314607 C12.5899891,41.8946145 12.2389232,44.5470685 12.2389232,44.5470685 C8.00614053,46.5920328 5.87522203,43.3568609 5.86666667,43.3545495 C8.24098922,41.7087497 11.6527543,43.889834 11.6527543,43.889834 C10.2878365,42.0236495 10.794466,39.8314607 10.794466,39.8314607 Z M9.4716069,37.2134831 C9.4716069,37.2134831 9.48670993,37.263894 9.5065561,37.356151 L9.53198517,37.4863974 C9.65069389,38.1579607 9.78687465,39.9498587 8.30921692,41.5134579 C8.30921692,41.5134579 3.9840555,41.9250087 2.13333333,38.3828217 C2.13333333,38.3828217 5.6337729,37.9751103 8.14469207,41.2709726 C8.15394886,41.2729777 7.76566475,38.7013715 9.4716069,37.2134831 Z M7.91037246,33.9775281 C7.91037246,33.9775281 8.50199812,36.608261 6.64520626,38.2921348 C6.64520626,38.2921348 2.44468899,38.2394272 1.6,34.478345 C1.59582563,34.4991555 4.22805004,34.1324098 6.62903226,37.9289123 C6.62903226,37.9289123 6.62650461,37.8801093 6.62549761,37.7926583 L6.62563364,37.6337651 C6.63478804,36.8924032 6.77155572,34.9425013 7.91037246,33.9775281 Z M-1.06581376e-14,30.2022472 C-0.0112163397,30.2105243 3.48752013,30.845802 4.71371531,34.034726 C4.71371531,34.034726 4.79522965,31.5721754 6.33521266,30.3377424 C6.33521266,30.3377424 6.88470942,32.7313014 4.78309396,34.5168539 C4.78309396,34.5168539 0.303909987,33.3120844 -1.06581376e-14,30.2022472 Z M-1.06581376e-14,26.4269663 C-1.06581376e-14,26.4269663 3.05334836,27.2619923 4.01191792,30.4112215 C4.01187459,30.4112674 4.44085992,27.9648777 5.86666667,27.1478709 L5.86644425,27.179413 C5.86186349,27.4787926 5.77120399,29.8284403 4.06128634,30.741573 C4.06128634,30.741573 0.445917813,29.9953132 -1.06581376e-14,26.4269663 Z M-1.06581376e-14,22.1123596 C-1.06581376e-14,22.1123596 2.89029833,22.8840129 3.77367014,26.1257192 C3.77599885,26.1156913 4.07235014,24.2785791 5.86629307,23.243295 L5.86645689,23.3007468 C5.86128909,23.6490126 5.74538507,25.4935513 3.90184217,26.4269663 C3.90184217,26.4269663 0.238506157,25.4017554 -1.06581376e-14,22.1123596 Z M0.537062025,18.3370787 C0.537062025,18.3370787 3.38465122,19.6420859 3.69338012,22.4333825 C3.70483967,22.4261243 3.97058386,20.7819165 5.86666667,19.8940598 C5.86666667,19.8940598 5.7632135,21.5033082 3.68962067,22.6516854 C3.68962067,22.6516854 0.407654969,20.9055199 0.537062025,18.3370787 Z M1.17161679,14.6404494 C1.17161679,14.6404494 3.41638325,15.2560307 3.86338816,18.7364308 C3.87363452,18.7383319 4.7514925,17.187001 6.4,16.8500948 C6.4,16.8500948 6.05328847,18.5376429 3.8031717,18.9550562 C3.8031717,18.9550562 0.436602488,16.7254081 1.17161679,14.6404494 Z M3.33120371,11.857739 C3.33120371,11.857739 5.25370398,13.5327554 4.96243534,16.4426027 C4.9624777,16.4426027 5.51919032,15.3846857 7.23687118,14.7937238 L7.23397727,14.8011374 L7.21018612,14.8571965 C7.07737963,15.1555915 6.43180795,16.4170285 4.89495244,16.7191011 C4.89495244,16.7191011 2.64159971,14.0548748 3.33120371,11.857739 Z M4.79275442,9.03081874 C4.79275442,9.03081874 6.49481341,10.6424098 6.0773001,13.5530245 C6.07618464,13.5527595 6.09310102,13.525878 6.12595269,13.4797416 L6.21228191,13.3639769 C6.53128355,12.9527507 7.37363898,12.0250297 8.28649679,12.1709384 C8.28649679,12.1709384 7.79553125,13.683938 5.99906395,13.7957562 C5.99906395,13.7957562 4.01644716,12.0642664 4.79275442,9.03081874 Z M6.4137408,6.47191011 C7.84320112,7.79851593 7.36413188,10.8720954 7.36413188,10.8720954 C8.5064724,9.64123708 9.6,9.78912427 9.6,9.78912427 C8.75366973,11.2377053 7.23064786,11.2060152 7.22209606,11.2039386 C5.34963643,8.61049592 6.4137408,6.47191011 6.4137408,6.47191011 Z M7.80891661,4.18794736 C7.80891661,4.18794736 9.05437687,5.90861676 8.48818598,8.80010637 C8.49701399,8.80228108 9.39671763,7.71192408 10.7065026,7.94921182 C10.7065026,7.94921182 9.71408265,9.40545939 8.36379524,9.13505719 C8.36379524,9.13505719 6.79249687,6.50823651 7.80891661,4.18794736 Z M9.87489449,1.94802275 C9.87489449,1.94802275 10.852675,3.45285475 10.0444457,6.37498762 C10.0467081,6.36396596 11.1329092,5.42356333 12.2322413,5.76849789 C12.2322413,5.76849789 11.5511531,7.13103636 9.82835884,6.74428851 C9.82835884,6.74428851 8.69806211,3.94201034 9.87489449,1.94802275 Z M11.8719783,0 C11.8719783,0 12.7472386,1.63936583 11.7699016,4.27844386 L11.7969882,4.25882335 C11.9658111,4.13988375 12.8980817,3.5322683 13.8666667,3.88947198 C13.8666667,3.88947198 12.9651442,5.08253331 11.6163207,4.57187799 C11.6163207,4.57187799 10.5416982,1.68058601 11.8719783,0 Z M14.5895931,0.539325843 C14.5895931,0.539325843 14.6675097,1.36499315 14.0187511,2.08007186 L13.9037583,2.19806714 C13.8987843,2.19692762 14.1091812,2.04868599 14.488622,1.99647766 C14.6501773,1.83168567 15.0672826,1.55041512 16,1.63274405 C16,1.63274405 15.8222575,1.92343995 15.3859246,2.07202796 C15.4108127,2.07725682 15.4385809,2.08558883 15.4666667,2.09451734 C15.4666667,2.09451734 14.6782591,3.05486469 13.3333333,2.54987712 C13.3333333,2.54987712 13.4973346,0.840981427 14.5895931,0.539325843 Z" id="叶片-右"></path>
                </g>
                <g id="叶片-右-2备份" transform="translate(145.000000, 24.000000) scale(-1, 1) translate(-145.000000, -24.000000) translate(137.000000, 0.000000)" fill="url(#linearGradient-1)">
                    <path d="M13.6446018,42.0674157 C15.8025422,43.4515461 16,46.1447873 16,46.1447873 C12.6673586,49.2627694 10.1147292,47.5849428 9.66915348,47.2423681 L9.62452676,47.2069442 C9.60779651,47.193153 9.59951293,47.1855755 9.6,47.1857085 C11.5675295,44.7774188 15.3099286,45.7193531 15.3099286,45.7193531 C13.7130361,44.4516276 13.6465004,42.3598554 13.644562,42.095226 Z M10.794466,39.8314607 C12.5899891,41.8946145 12.2389232,44.5470685 12.2389232,44.5470685 C8.00614053,46.5920328 5.87522203,43.3568609 5.86666667,43.3545495 C8.24098922,41.7087497 11.6527543,43.889834 11.6527543,43.889834 C10.2878365,42.0236495 10.794466,39.8314607 10.794466,39.8314607 Z M9.4716069,37.2134831 C9.4716069,37.2134831 9.48670993,37.263894 9.5065561,37.356151 L9.53198517,37.4863974 C9.65069389,38.1579607 9.78687465,39.9498587 8.30921692,41.5134579 C8.30921692,41.5134579 3.9840555,41.9250087 2.13333333,38.3828217 C2.13333333,38.3828217 5.6337729,37.9751103 8.14469207,41.2709726 C8.15394886,41.2729777 7.76566475,38.7013715 9.4716069,37.2134831 Z M7.91037246,33.9775281 C7.91037246,33.9775281 8.50199812,36.608261 6.64520626,38.2921348 C6.64520626,38.2921348 2.44468899,38.2394272 1.6,34.478345 C1.59582563,34.4991555 4.22805004,34.1324098 6.62903226,37.9289123 C6.62903226,37.9289123 6.62650461,37.8801093 6.62549761,37.7926583 L6.62563364,37.6337651 C6.63478804,36.8924032 6.77155572,34.9425013 7.91037246,33.9775281 Z M-1.06581376e-14,30.2022472 C-0.0112163397,30.2105243 3.48752013,30.845802 4.71371531,34.034726 C4.71371531,34.034726 4.79522965,31.5721754 6.33521266,30.3377424 C6.33521266,30.3377424 6.88470942,32.7313014 4.78309396,34.5168539 C4.78309396,34.5168539 0.303909987,33.3120844 -1.06581376e-14,30.2022472 Z M-1.06581376e-14,26.4269663 C-1.06581376e-14,26.4269663 3.05334836,27.2619923 4.01191792,30.4112215 C4.01187459,30.4112674 4.44085992,27.9648777 5.86666667,27.1478709 L5.86644425,27.179413 C5.86186349,27.4787926 5.77120399,29.8284403 4.06128634,30.741573 C4.06128634,30.741573 0.445917813,29.9953132 -1.06581376e-14,26.4269663 Z M-1.06581376e-14,22.1123596 C-1.06581376e-14,22.1123596 2.89029833,22.8840129 3.77367014,26.1257192 C3.77599885,26.1156913 4.07235014,24.2785791 5.86629307,23.243295 L5.86645689,23.3007468 C5.86128909,23.6490126 5.74538507,25.4935513 3.90184217,26.4269663 C3.90184217,26.4269663 0.238506157,25.4017554 -1.06581376e-14,22.1123596 Z M0.537062025,18.3370787 C0.537062025,18.3370787 3.38465122,19.6420859 3.69338012,22.4333825 C3.70483967,22.4261243 3.97058386,20.7819165 5.86666667,19.8940598 C5.86666667,19.8940598 5.7632135,21.5033082 3.68962067,22.6516854 C3.68962067,22.6516854 0.407654969,20.9055199 0.537062025,18.3370787 Z M1.17161679,14.6404494 C1.17161679,14.6404494 3.41638325,15.2560307 3.86338816,18.7364308 C3.87363452,18.7383319 4.7514925,17.187001 6.4,16.8500948 C6.4,16.8500948 6.05328847,18.5376429 3.8031717,18.9550562 C3.8031717,18.9550562 0.436602488,16.7254081 1.17161679,14.6404494 Z M3.33120371,11.857739 C3.33120371,11.857739 5.25370398,13.5327554 4.96243534,16.4426027 C4.9624777,16.4426027 5.51919032,15.3846857 7.23687118,14.7937238 L7.23397727,14.8011374 L7.21018612,14.8571965 C7.07737963,15.1555915 6.43180795,16.4170285 4.89495244,16.7191011 C4.89495244,16.7191011 2.64159971,14.0548748 3.33120371,11.857739 Z M4.79275442,9.03081874 C4.79275442,9.03081874 6.49481341,10.6424098 6.0773001,13.5530245 C6.07618464,13.5527595 6.09310102,13.525878 6.12595269,13.4797416 L6.21228191,13.3639769 C6.53128355,12.9527507 7.37363898,12.0250297 8.28649679,12.1709384 C8.28649679,12.1709384 7.79553125,13.683938 5.99906395,13.7957562 C5.99906395,13.7957562 4.01644716,12.0642664 4.79275442,9.03081874 Z M6.4137408,6.47191011 C7.84320112,7.79851593 7.36413188,10.8720954 7.36413188,10.8720954 C8.5064724,9.64123708 9.6,9.78912427 9.6,9.78912427 C8.75366973,11.2377053 7.23064786,11.2060152 7.22209606,11.2039386 C5.34963643,8.61049592 6.4137408,6.47191011 6.4137408,6.47191011 Z M7.80891661,4.18794736 C7.80891661,4.18794736 9.05437687,5.90861676 8.48818598,8.80010637 C8.49701399,8.80228108 9.39671763,7.71192408 10.7065026,7.94921182 C10.7065026,7.94921182 9.71408265,9.40545939 8.36379524,9.13505719 C8.36379524,9.13505719 6.79249687,6.50823651 7.80891661,4.18794736 Z M9.87489449,1.94802275 C9.87489449,1.94802275 10.852675,3.45285475 10.0444457,6.37498762 C10.0467081,6.36396596 11.1329092,5.42356333 12.2322413,5.76849789 C12.2322413,5.76849789 11.5511531,7.13103636 9.82835884,6.74428851 C9.82835884,6.74428851 8.69806211,3.94201034 9.87489449,1.94802275 Z M11.8719783,0 C11.8719783,0 12.7472386,1.63936583 11.7699016,4.27844386 L11.7969882,4.25882335 C11.9658111,4.13988375 12.8980817,3.5322683 13.8666667,3.88947198 C13.8666667,3.88947198 12.9651442,5.08253331 11.6163207,4.57187799 C11.6163207,4.57187799 10.5416982,1.68058601 11.8719783,0 Z M14.5895931,0.539325843 C14.5895931,0.539325843 14.6675097,1.36499315 14.0187511,2.08007186 L13.9037583,2.19806714 C13.8987843,2.19692762 14.1091812,2.04868599 14.488622,1.99647766 C14.6501773,1.83168567 15.0672826,1.55041512 16,1.63274405 C16,1.63274405 15.8222575,1.92343995 15.3859246,2.07202796 C15.4108127,2.07725682 15.4385809,2.08558883 15.4666667,2.09451734 C15.4666667,2.09451734 14.6782591,3.05486469 13.3333333,2.54987712 C13.3333333,2.54987712 13.4973346,0.840981427 14.5895931,0.539325843 Z" id="叶片-右"></path>
                </g>
                <path d="M33.22,30 L36.02,19.952 L36.068,19.952 L38.868,30 L40.02,30 L43.3,18.576 L42.196,18.576 L39.46,28.688 L39.412,28.688 L36.612,18.576 L35.476,18.576 L32.676,28.688 L32.628,28.688 L29.892,18.576 L28.788,18.576 L32.068,30 L33.22,30 Z M47.764,30.224 C48.82,30.224 49.668,29.92 50.34,29.312 C50.884,28.8 51.252,28.144 51.444,27.344 L50.468,27.344 C50.26,27.984 49.972,28.464 49.588,28.8 C49.124,29.184 48.516,29.392 47.764,29.392 C46.9,29.392 46.228,29.104 45.716,28.528 C45.22,27.952 44.948,27.152 44.9,26.144 L51.62,26.144 C51.572,24.72 51.252,23.616 50.676,22.832 C50.02,21.936 49.044,21.504 47.732,21.504 C46.564,21.504 45.636,21.936 44.932,22.8 C44.244,23.632 43.908,24.64 43.908,25.856 C43.908,27.168 44.26,28.24 44.98,29.04 C45.668,29.824 46.596,30.224 47.764,30.224 Z M50.612,25.36 L44.916,25.36 C44.996,24.464 45.284,23.744 45.78,23.184 C46.276,22.608 46.932,22.336 47.748,22.336 C49.492,22.336 50.452,23.344 50.612,25.36 Z M54.116,18.352 L53.156,18.352 L53.156,30 L54.068,30 L54.068,28.368 C54.628,29.6 55.604,30.224 56.98,30.224 C58.164,30.224 59.092,29.776 59.764,28.912 C60.372,28.112 60.676,27.088 60.676,25.856 C60.676,24.64 60.372,23.632 59.764,22.832 C59.092,21.936 58.164,21.504 57.012,21.504 C55.7577778,21.504 54.8318025,22.0891358 54.2205953,23.2594074 L54.116,23.471 L54.116,18.352 Z M56.868,29.408 C55.956,29.408 55.252,29.056 54.772,28.384 C54.308,27.76 54.084,26.96 54.084,25.984 L54.084,25.792 C54.084,24.768 54.324,23.952 54.82,23.312 C55.316,22.64 55.988,22.32 56.836,22.32 C57.78,22.32 58.5,22.672 59.012,23.376 C59.46,23.984 59.7,24.816 59.7,25.856 C59.7,26.896 59.476,27.728 59.028,28.352 C58.516,29.056 57.796,29.408 56.868,29.408 Z M66.196,30.224 C67.332,30.224 68.26,29.888 68.98,29.248 C69.684,28.592 70.052,27.744 70.052,26.72 C70.052,26.048 69.86,25.488 69.492,25.024 C69.124,24.56 68.612,24.224 67.956,24.016 C69.188,23.6 69.812,22.736 69.812,21.424 C69.812,20.496 69.492,19.744 68.852,19.184 C68.196,18.624 67.332,18.352 66.276,18.352 C65.22,18.352 64.372,18.656 63.716,19.264 C63.028,19.888 62.628,20.736 62.532,21.808 L63.508,21.808 C63.604,20.976 63.892,20.352 64.372,19.904 C64.836,19.44 65.476,19.216 66.276,19.216 C67.076,19.216 67.716,19.424 68.18,19.84 C68.612,20.256 68.836,20.8 68.836,21.472 C68.836,22.176 68.612,22.704 68.196,23.088 C67.748,23.456 67.124,23.648 66.308,23.648 L65.396,23.648 L65.396,24.448 L66.404,24.448 C67.22,24.448 67.86,24.64 68.34,25.056 C68.82,25.472 69.076,26.032 69.076,26.752 C69.076,27.504 68.82,28.128 68.308,28.624 C67.764,29.12 67.06,29.376 66.18,29.376 C65.428,29.376 64.804,29.168 64.292,28.752 C63.652,28.24 63.316,27.504 63.268,26.528 L62.276,26.528 C62.372,27.808 62.82,28.784 63.652,29.424 C64.324,29.952 65.172,30.224 66.196,30.224 Z M77.62,28.672 C79.54,27.776 80.9,26.656 81.716,25.296 L86.836,25.296 C87.652,26.656 89.076,27.76 91.092,28.608 L91.444,27.856 C89.732,27.248 88.468,26.384 87.668,25.296 L91.22,25.296 L91.22,24.528 L88.036,24.528 L88.036,18.992 L90.964,18.992 L90.964,18.24 L88.036,18.24 L88.036,16.944 L87.172,16.944 L87.172,18.24 L81.396,18.24 L81.396,16.944 L80.532,16.944 L80.532,18.24 L77.604,18.24 L77.604,18.992 L80.532,18.992 L80.532,24.528 L77.348,24.528 L77.348,25.296 L80.884,25.296 C80.116,26.368 78.884,27.248 77.188,27.952 L77.62,28.672 Z M87.172,20.384 L81.396,20.384 L81.396,18.992 L87.172,18.992 L87.172,20.384 Z M87.172,22.416 L81.396,22.416 L81.396,21.088 L87.172,21.088 L87.172,22.416 Z M87.172,24.528 L81.396,24.528 L81.396,23.136 L87.172,23.136 L87.172,24.528 Z M90.292,31.008 L90.292,30.192 L84.724,30.192 L84.724,28.16 L88.052,28.16 L88.052,27.376 L84.724,27.376 L84.724,25.984 L83.86,25.984 L83.86,27.376 L80.5,27.376 L80.5,28.16 L83.86,28.16 L83.86,30.192 L78.18,30.192 L78.18,31.008 L90.292,31.008 Z M93.572,22.72 C96.196,21.536 98.436,19.952 100.308,17.968 C101.988,19.92 104.228,21.504 107.012,22.688 L107.492,21.968 C104.5,20.688 102.228,19.088 100.66,17.136 L99.956,17.136 C98.164,19.12 95.876,20.752 93.092,22.016 L93.572,22.72 Z M107.108,31.104 L107.108,30.272 L103.62,30.272 C104.164,29.344 104.644,28.272 105.076,27.056 L104.292,26.752 C103.86,28 103.348,29.184 102.74,30.272 L100.74,30.272 L100.74,25.712 L106.548,25.712 L106.548,24.896 L100.74,24.896 L100.74,22.304 L104.468,22.304 L104.468,21.52 L96.148,21.52 L96.148,22.304 L99.876,22.304 L99.876,24.896 L94.052,24.896 L94.052,25.712 L99.876,25.712 L99.876,30.272 L97.812,30.272 C97.38,28.944 96.884,27.808 96.34,26.88 L95.556,27.168 C96.132,28.144 96.596,29.184 96.964,30.272 L93.492,30.272 L93.492,31.104 L107.108,31.104 Z M109.316,23.328 C112.212,21.76 114.532,19.904 116.292,17.76 C118.196,20.032 120.5,21.872 123.204,23.312 L123.668,22.48 C120.996,21.136 118.644,19.296 116.612,16.976 L115.972,16.976 C114.084,19.184 111.716,21.024 108.868,22.496 L109.316,23.328 Z M120.196,22.8 L120.196,21.968 L112.436,21.968 L112.436,22.8 L120.196,22.8 Z M121.54,31.568 L122.244,31.056 C121.476,29.824 120.356,28.384 118.9,26.736 L118.228,27.152 C118.964,27.984 119.604,28.8 120.18,29.568 C117.652,29.936 114.964,30.192 112.084,30.352 C113.268,29.104 114.276,27.664 115.092,26.048 L122.692,26.048 L122.692,25.184 L109.924,25.184 L109.924,26.048 L114.132,26.048 C113.396,27.488 112.436,28.864 111.268,30.176 C111.172,30.272 111.028,30.352 110.82,30.416 L111.06,31.184 C114.964,30.944 118.164,30.608 120.644,30.192 C120.964,30.656 121.268,31.12 121.54,31.568 Z" id="Web3基金会" fill="#111111"></path>
            </g>
        </g>
    </g>
</svg>