<?xml version="1.0" encoding="UTF-8"?>
<svg width="16px" height="48px" viewBox="0 0 16 48" version="1.1" xmlns="http://www.w3.org/2000/svg" xmlns:xlink="http://www.w3.org/1999/xlink">
    <title>叶片 右</title>
    <g id="页面-1" stroke="none" stroke-width="1" fill="none" fill-rule="evenodd">
        <g id="004" transform="translate(-313.000000, -248.000000)" fill="#6D7577" fill-rule="nonzero">
            <g id="编组-13备份" transform="translate(176.000000, 248.000000)">
                <g id="叶片-右-2备份" transform="translate(145.000000, 24.000000) scale(-1, 1) translate(-145.000000, -24.000000) translate(137.000000, 0.000000)">
                    <path d="M13.6446018,42.0674157 C15.8025422,43.4515461 16,46.1447873 16,46.1447873 C12.6673586,49.2627694 10.1147292,47.5849428 9.66915348,47.2423681 L9.62452676,47.2069442 C9.60779651,47.193153 9.59951293,47.1855755 9.6,47.1857085 C11.5675295,44.7774188 15.3099286,45.7193531 15.3099286,45.7193531 C13.7130361,44.4516276 13.6465004,42.3598554 13.644562,42.095226 Z M10.794466,38.8314607 C12.5899891,40.8946145 12.2389232,43.5470685 12.2389232,43.5470685 C8.00614053,45.5920328 5.87522203,42.3568609 5.86666667,42.3545495 C8.24098922,40.7087497 11.6527543,42.889834 11.6527543,42.889834 C10.2878365,41.0236495 10.794466,38.8314607 10.794466,38.8314607 Z M9.4716069,37.2134831 C9.4716069,37.2134831 10.1699711,39.5444812 8.30921692,41.5134579 C8.30921692,41.5134579 3.9840555,41.9250087 2.13333333,38.3828217 C2.13333333,38.3828217 5.6337729,37.9751103 8.14469207,41.2709726 C8.15394886,41.2729777 7.76566475,38.7013715 9.4716069,37.2134831 Z M7.91037246,33.9775281 C7.91037246,33.9775281 8.50199812,36.608261 6.64520626,38.2921348 C6.64520626,38.2921348 2.44468899,38.2394272 1.6,34.478345 C1.59582563,34.4991555 4.22805004,34.1324098 6.62903226,37.9289123 C6.62903226,37.9289123 6.62650461,37.8801093 6.62549761,37.7926583 L6.62563364,37.6337651 C6.63478804,36.8924032 6.77155572,34.9425013 7.91037246,33.9775281 Z M0,30.2022472 C-0.0112163397,30.2105243 3.48752013,30.845802 4.71371531,34.034726 C4.71371531,34.034726 4.79522965,31.5721754 6.33521266,30.3377424 C6.33521266,30.3377424 6.88470942,32.7313014 4.78309396,34.5168539 C4.78309396,34.5168539 0.303909987,33.3120844 0,30.2022472 Z M0,26.4269663 C0,26.4269663 3.05334836,27.2619923 4.01191792,30.4112215 C4.01187459,30.4112674 4.44085992,27.9648777 5.86666667,27.1478709 L5.86644425,27.179413 C5.86186349,27.4787926 5.77120399,29.8284403 4.06128634,30.741573 C4.06128634,30.741573 0.445917813,29.9953132 0,26.4269663 Z M0,22.1123596 C0,22.1123596 2.89029833,22.8840129 3.77367014,26.1257192 C3.77599885,26.1156913 4.07235014,24.2785791 5.86629307,23.243295 L5.86645689,23.3007468 C5.86128909,23.6490126 5.74538507,25.4935513 3.90184217,26.4269663 C3.90184217,26.4269663 0.238506157,25.4017554 0,22.1123596 Z M0.537062025,18.3370787 C0.537062025,18.3370787 3.38465122,19.6420859 3.69338012,22.4333825 C3.70483967,22.4261243 3.97058386,20.7819165 5.86666667,19.8940598 C5.86666667,19.8940598 5.7632135,21.5033082 3.68962067,22.6516854 C3.68962067,22.6516854 0.407654969,20.9055199 0.537062025,18.3370787 Z M1.17161679,15.6404494 C1.17161679,15.6404494 3.41638325,16.2560307 3.86338816,19.7364308 C3.87363452,19.7383319 4.7514925,18.187001 6.4,17.8500948 C6.4,17.8500948 6.05328847,19.5376429 3.8031717,19.9550562 C3.8031717,19.9550562 0.436602488,17.7254081 1.17161679,15.6404494 Z M3.33120371,11.857739 C3.33120371,11.857739 5.25370398,13.5327554 4.96243534,16.4426027 C4.9624777,16.4426027 5.51919032,15.3846857 7.23687118,14.7937238 C7.23687118,14.7937238 6.64137915,16.3758367 4.89495244,16.7191011 C4.89495244,16.7191011 2.64159971,14.0548748 3.33120371,11.857739 Z M4.79275442,9.03081874 L4.83711142,9.07581428 C5.10233488,9.35490525 6.45440889,10.9240821 6.0773001,13.5530245 C6.07618464,13.5527595 6.09310102,13.525878 6.12595269,13.4797416 L6.21228191,13.3639769 C6.53128355,12.9527507 7.37363898,12.0250297 8.28649679,12.1709384 C8.28649679,12.1709384 7.79553125,13.683938 5.99906395,13.7957562 C5.99906395,13.7957562 4.01644716,12.0642664 4.79275442,9.03081874 Z M6.4137408,6.47191011 C7.84320112,7.79851593 7.36413188,10.8720954 7.36413188,10.8720954 C8.5064724,9.64123708 9.6,9.78912427 9.6,9.78912427 C8.75366973,11.2377053 7.23064786,11.2060152 7.22209606,11.2039386 C5.34963643,8.61049592 6.4137408,6.47191011 6.4137408,6.47191011 Z M7.80891661,4.18794736 C7.80891661,4.18794736 9.05437687,5.90861676 8.48818598,8.80010637 C8.49701399,8.80228108 9.39671763,7.71192408 10.7065026,7.94921182 C10.7065026,7.94921182 9.71408265,9.40545939 8.36379524,9.13505719 C8.36379524,9.13505719 6.79249687,6.50823651 7.80891661,4.18794736 Z M9.87489449,1.94802275 C9.87489449,1.94802275 10.852675,3.45285475 10.0444457,6.37498762 C10.0467081,6.36396596 11.1329092,5.42356333 12.2322413,5.76849789 C12.2322413,5.76849789 11.5511531,7.13103636 9.82835884,6.74428851 C9.82835884,6.74428851 8.69806211,3.94201034 9.87489449,1.94802275 Z M11.8719783,0 C11.8719783,0 12.7472386,1.63936583 11.7699016,4.27844386 C11.7699058,4.27844857 11.7792174,4.27134331 11.7969882,4.25882335 L11.8748304,4.20671469 C12.162481,4.02265523 13.000038,3.56986869 13.8666667,3.88947198 C13.8666667,3.88947198 12.9651442,5.08253331 11.6163207,4.57187799 C11.6163207,4.57187799 10.5416982,1.68058601 11.8719783,0 Z M14.5895931,0.539325843 C14.5895931,0.539325843 14.6675097,1.36499315 14.0187511,2.08007186 L13.9037583,2.19806714 C13.8987843,2.19692762 14.1091812,2.04868599 14.488622,1.99647766 C14.6501773,1.83168567 15.0672826,1.55041512 16,1.63274405 C16,1.63274405 15.8222575,1.92343995 15.3859246,2.07202796 C15.4108127,2.07725682 15.4385809,2.08558883 15.4666667,2.09451734 C15.4666667,2.09451734 14.6782591,3.05486469 13.3333333,2.54987712 L13.3379737,2.509849 C13.3708233,2.2507989 13.5966308,0.813558192 14.5895931,0.539325843 Z" id="叶片-右"></path>
                </g>
            </g>
        </g>
    </g>
</svg>