<?xml version="1.0" encoding="UTF-8"?>
<svg width="14px" height="13px" viewBox="0 0 14 13" version="1.1" xmlns="http://www.w3.org/2000/svg" xmlns:xlink="http://www.w3.org/1999/xlink">
    <title>星形</title>
    <g id="页面-1" stroke="none" stroke-width="1" fill="none" fill-rule="evenodd">
        <g id="002" transform="translate(-45.000000, -952.000000)" fill="#E6007A">
            <g id="编组-4备份-4" transform="translate(20.000000, 785.000000)">
                <path d="M32,178 L28.7324957,179.717829 C28.34142,179.923429 27.8577183,179.773072 27.6521177,179.381996 C27.5702464,179.226268 27.5419947,179.047894 27.5717361,178.874487 L28.1957739,175.236068 L28.1957739,175.236068 L25.5523074,172.659325 C25.2359206,172.350924 25.2294467,171.844433 25.5378477,171.528047 C25.6606546,171.40206 25.8215685,171.32007 25.9956781,171.29477 L29.648859,170.763932 L29.648859,170.763932 L31.2826111,167.453589 C31.478149,167.057386 31.9578496,166.894714 32.3540526,167.090252 C32.5118227,167.168116 32.6395247,167.295819 32.7173889,167.453589 L34.351141,170.763932 L34.351141,170.763932 L38.0043219,171.29477 C38.4415578,171.358304 38.7445029,171.764259 38.6809688,172.201495 C38.6556692,172.375604 38.5736795,172.536518 38.4476926,172.659325 L35.8042261,175.236068 L35.8042261,175.236068 L36.4282639,178.874487 C36.5029527,179.309957 36.2104824,179.723521 35.7750132,179.79821 C35.6016071,179.827952 35.4232327,179.7997 35.2675043,179.717829 L32,178 L32,178 Z" id="星形"></path>
            </g>
        </g>
    </g>
</svg>