<?xml version="1.0" encoding="UTF-8"?>
<svg width="16px" height="16px" viewBox="0 0 16 16" version="1.1" xmlns="http://www.w3.org/2000/svg" xmlns:xlink="http://www.w3.org/1999/xlink">
    <title>显示收藏</title>
    <g id="页面-1" stroke="none" stroke-width="1" fill="none" fill-rule="evenodd">
        <g id="002" transform="translate(-1122.000000, -821.000000)">
            <g id="编组-4备份-4" transform="translate(20.000000, 785.000000)">
                <g id="编组-8备份" transform="translate(1078.000000, 20.000000)">
                    <g id="显示收藏" transform="translate(24.000000, 16.000000)">
                        <rect id="矩形" fill="#E6007A" x="0" y="0" width="16" height="16" rx="4"></rect>
                        <path d="M10.7617257,4.81912818 C11.0825324,4.36957113 11.7070355,4.26519831 12.1565926,4.58600496 C12.5715683,4.88213417 12.6924226,5.43703438 12.456237,5.87424019 L12.3897158,5.98087182 L8.11811723,11.9668053 C7.80718673,12.4025226 7.21487531,12.5109921 6.77333883,12.2335824 L6.67431898,12.1626882 L4.06476057,10.046823 C3.63577078,9.69899234 3.56997834,9.06925489 3.91780905,8.6402651 C4.23888356,8.24427453 4.80016261,8.15775389 5.22202547,8.42036443 L5.324367,8.49331359 L7.108,9.94 L10.7617257,4.81912818 Z" id="路径-2" fill="#FFFFFF" fill-rule="nonzero"></path>
                    </g>
                </g>
            </g>
        </g>
    </g>
</svg>