<?xml version="1.0" encoding="UTF-8"?>
<svg width="16px" height="16px" viewBox="0 0 16 16" version="1.1" xmlns="http://www.w3.org/2000/svg" xmlns:xlink="http://www.w3.org/1999/xlink">
    <title>未勾选</title>
    <g id="页面-1" stroke="none" stroke-width="1" fill="none" fill-rule="evenodd">
        <g id="002" transform="translate(-1122.000000, -1181.000000)">
            <g id="编组-12" transform="translate(20.000000, 1145.000000)">
                <g id="编组-8备份" transform="translate(1078.000000, 20.000000)">
                    <g id="未勾选" transform="translate(24.000000, 16.000000)">
                        <path d="M12,0 C14.209139,0 16,1.790861 16,4 L16,12 C16,14.209139 14.209139,16 12,16 L4,16 C1.790861,16 0,14.209139 0,12 L0,4 C0,1.790861 1.790861,0 4,0 L12,0 Z M12,2 L4,2 C2.9456382,2 2.08183488,2.81587779 2.00548574,3.85073766 L2,4 L2,12 C2,13.0543618 2.81587779,13.9181651 3.85073766,13.9945143 L4,14 L12,14 C13.0543618,14 13.9181651,13.1841222 13.9945143,12.1492623 L14,12 L14,4 C14,2.9456382 13.1841222,2.08183488 12.1492623,2.00548574 L12,2 Z" id="矩形" fill="#B4BDBF" fill-rule="nonzero"></path>
                        <rect id="矩形" fill="#FFFFFF" x="2" y="2" width="12" height="12" rx="2"></rect>
                    </g>
                </g>
            </g>
        </g>
    </g>
</svg>