<?xml version="1.0" encoding="UTF-8"?>
<svg width="12px" height="12px" viewBox="0 0 12 12" version="1.1" xmlns="http://www.w3.org/2000/svg" xmlns:xlink="http://www.w3.org/1999/xlink">
    <title>说明</title>
    <g id="页面-1" stroke="none" stroke-width="1" fill="none" fill-rule="evenodd">
        <g id="003" transform="translate(-451.000000, -187.000000)" fill="#6D7577" fill-rule="nonzero">
            <g id="编组-15" transform="translate(299.000000, 179.000000)">
                <g id="说明" transform="translate(152.000000, 8.000000)">
                    <path d="M6,0 C2.688,0 0,2.688 0,6 C0,9.312 2.688,12 6,12 C9.312,12 12,9.312 12,6 C12,2.688 9.312,0 6,0 Z M5.55,2.25 C5.778,2.1 6,1.95 6.3,1.95 C6.6,1.95 6.828,2.022 7.05,2.25 C7.278,2.4 7.35,2.622 7.35,2.922 C7.35,3.15 7.278,3.372 7.05,3.6 C6.822,3.75 6.6,3.9 6.3,3.9 C6,3.9 5.772,3.75 5.55,3.6 C5.328,3.45 5.25,3.222 5.25,2.922 C5.25,2.7 5.328,2.472 5.55,2.25 Z M7.65,9.6 C7.278,9.75 7.05,9.828 6.828,9.9 C6.606,9.972 6.378,9.972 6.078,9.972 C5.628,9.972 5.328,9.9 5.106,9.672 C4.884,9.444 4.734,9.222 4.734,8.922 L4.734,8.55 C4.734,8.4 4.806,8.25 4.806,8.1 L5.256,6.6 C5.328,6.45 5.328,6.3 5.328,6.228 C5.328,6.078 5.4,6 5.4,5.856 C5.4,5.628 5.328,5.556 5.25,5.484 L4.878,5.484 C4.806,5.484 4.65,5.484 4.506,5.556 C4.356,5.556 4.278,5.628 4.206,5.628 L4.356,5.178 C4.656,5.106 4.884,4.95 5.184,4.878 C5.4,4.8 5.7,4.728 5.928,4.728 C6.378,4.728 6.678,4.8 6.9,5.028 C7.122,5.256 7.272,5.478 7.272,5.778 L7.272,6.15 C7.272,6.3 7.194,6.45 7.194,6.6 L6.744,8.1 C6.744,8.25 6.672,8.328 6.672,8.472 C6.672,8.616 6.6,8.772 6.6,8.844 C6.6,9.072 6.672,9.144 6.75,9.216 C6.828,9.288 6.978,9.288 7.2,9.288 C7.278,9.288 7.428,9.288 7.578,9.216 C7.728,9.216 7.806,9.144 7.878,9.144 L7.65,9.6 L7.65,9.6 Z" id="形状"></path>
                </g>
            </g>
        </g>
    </g>
</svg>