<svg xmlns="http://www.w3.org/2000/svg" width="24" height="24" viewBox="0 0 24 24">
  <g fill="none" fill-rule="evenodd">
    <circle cx="12" cy="12" r="12" fill="#E44431"/>
    <polygon fill="#FFF" fill-rule="nonzero" points="13.225 17 13.225 15.185 16.105 15.185 16.105 14.315 13.225 14.315 13.225 13.325 16.105 13.325 16.105 12.425 14.335 12.425 13.435 12.485 16.705 7.1 14.065 7.1 12.67 10.04 12.01 11.585 11.98 11.585 11.335 10.055 9.925 7.1 7.285 7.1 10.555 12.485 9.655 12.425 7.9 12.425 7.9 13.325 10.765 13.325 10.765 14.315 7.9 14.315 7.9 15.185 10.765 15.185 10.765 17"/>
  </g>
</svg>
