<svg xmlns="http://www.w3.org/2000/svg" width="76" height="20" viewBox="0 0 76 20">
  <g fill="none" fill-rule="evenodd">
    <rect width="76" height="20"/>
    <path fill="#111" fill-rule="nonzero" d="M32.844,15.14 C33.6466667,15.14 34.3023333,14.9696667 34.811,14.629 C35.0935926,14.4397407 35.3279342,14.2051111 35.5140247,13.9251111 L35.561,13.848 L35.658,15 L37.296,15 L37.296,10.016 L33.138,10.016 L33.138,11.626 L35.252,11.626 L35.252,11.766 C35.252,12.0273333 35.2053333,12.2536667 35.112,12.445 C35.0186667,12.6363333 34.888,12.795 34.72,12.921 C34.552,13.047 34.356,13.1426667 34.132,13.208 C33.908,13.2733333 33.6606667,13.306 33.39,13.306 C32.886,13.306 32.4636667,13.201 32.123,12.991 C31.7823333,12.781 31.5256667,12.4566667 31.353,12.018 C31.1803333,11.5793333 31.094,11.0333333 31.094,10.38 C31.094,9.75466667 31.178,9.22966667 31.346,8.805 C31.514,8.38033333 31.7613333,8.05833333 32.088,7.839 C32.4146667,7.61966667 32.8066667,7.51 33.264,7.51 C33.7213333,7.51 34.104,7.61733333 34.412,7.832 C34.72,8.04666667 34.9346667,8.392 35.056,8.868 L35.056,8.868 L37.282,7.986 C36.9273333,7.16466667 36.428,6.565 35.784,6.187 C35.14,5.809 34.2953333,5.62 33.25,5.62 C32.3073333,5.62 31.4883333,5.81133333 30.793,6.194 C30.0976667,6.57666667 29.5633333,7.12266667 29.19,7.832 C28.8166667,8.54133333 28.63,9.39533333 28.63,10.394 C28.63,11.4113333 28.8073333,12.2746667 29.162,12.984 C29.5166667,13.6933333 30.0136667,14.23 30.653,14.594 C31.2923333,14.958 32.0226667,15.14 32.844,15.14 Z M40.1632007,7.188 C40.6392007,7.188 40.9892007,7.097 41.2132007,6.915 C41.4372007,6.733 41.5492007,6.446 41.5492007,6.054 C41.5492007,5.65266667 41.4372007,5.361 41.2132007,5.179 C40.9892007,4.997 40.6392007,4.906 40.1632007,4.906 C39.6778674,4.906 39.325534,4.997 39.1062007,5.179 C38.8868674,5.361 38.7772007,5.65266667 38.7772007,6.054 C38.7772007,6.446 38.8868674,6.733 39.1062007,6.915 C39.325534,7.097 39.6778674,7.188 40.1632007,7.188 Z M41.3532007,15 L41.3532007,8 L38.9732007,8 L38.9732007,15 L41.3532007,15 Z M46.1999863,15.14 C46.5733197,15.14 46.9373197,15.0933333 47.2919863,15 C47.646653,14.9066667 47.940653,14.776 48.1739863,14.608 L48.1739863,14.608 L47.9219863,13.138 C47.7913197,13.2406667 47.6443197,13.3176667 47.4809863,13.369 C47.317653,13.4203333 47.1239863,13.446 46.8999863,13.446 C46.610653,13.446 46.3843197,13.3736667 46.2209863,13.229 C46.057653,13.0843333 45.9759863,12.844 45.9759863,12.508 L45.9759863,12.508 L45.975,9.694 L48.0619863,9.694 L48.0619863,8 L45.975,8 L45.9759863,5.774 L43.5959863,6.432 L43.595,8 L42.3919863,8 L42.3919863,9.694 L43.595,9.694 L43.5959863,12.9 C43.6039863,13.364 43.6857006,13.7491429 43.8411292,14.0554286 L43.9249863,14.202 C44.1349863,14.5286667 44.433653,14.7666667 44.8209863,14.916 C45.2083197,15.0653333 45.6679863,15.14 46.1999863,15.14 Z M51.7439761,15 L51.743,11.276 L55.271,11.276 L55.2719761,15 L57.6799761,15 L57.6799761,5.76 L55.2719761,5.76 L55.271,9.414 L51.743,9.414 L51.7439761,5.76 L49.3359761,5.76 L49.3359761,15 L51.7439761,15 Z M61.8771716,15.14 C62.446505,15.14 62.9318383,15.021 63.3331716,14.783 C63.734505,14.545 64.0471716,14.1786667 64.2711716,13.684 L64.2711716,13.684 L64.3411716,15 L66.4691716,15 L66.4691716,8 L64.0891716,8 L64.0891716,11.752 C64.0891716,12.0226667 64.0588383,12.2583333 63.9981716,12.459 C63.937505,12.6596667 63.8511716,12.823 63.7391716,12.949 C63.6271716,13.075 63.496505,13.1683333 63.3471716,13.229 C63.1978383,13.2896667 63.0391716,13.32 62.8711716,13.32 C62.544505,13.32 62.292505,13.2313333 62.1151716,13.054 C61.9378383,12.8766667 61.8491716,12.564 61.8491716,12.116 L61.8491716,12.116 L61.8491716,8 L59.4691716,8 L59.4691716,12.676 C59.4691716,13.264 59.5718383,13.74 59.7771716,14.104 C59.982505,14.468 60.2648383,14.7316667 60.6241716,14.895 C60.983505,15.0583333 61.4011716,15.14 61.8771716,15.14 Z M72.6683706,15.14 C73.2470373,15.14 73.7510373,14.9976667 74.1803706,14.713 C74.6097039,14.4283333 74.9457039,14.0153333 75.1883706,13.474 C75.4310373,12.9326667 75.5523706,12.284 75.5523706,11.528 C75.5523706,10.7533333 75.4333706,10.093 75.1953706,9.547 C74.9573706,9.001 74.6260373,8.58333333 74.2013706,8.294 C73.7767039,8.00466667 73.2937039,7.86 72.7523706,7.86 C72.0710373,7.86 71.5297039,8.049 71.1283706,8.427 C70.9277039,8.616 70.7608706,8.83008333 70.6278706,9.06925 L70.554,9.214 L70.5543706,5.032 L68.1743706,5.032 L68.1743706,15 L70.2603706,15 L70.337,13.455 L70.398815,13.6093333 C70.4273336,13.6746667 70.4580558,13.7386389 70.4909817,13.80125 L70.5963706,13.985 C70.8203706,14.3443333 71.1073706,14.6266667 71.4573706,14.832 C71.8073706,15.0373333 72.2110373,15.14 72.6683706,15.14 Z M71.8423706,13.39 C71.5810373,13.39 71.3523706,13.3176667 71.1563706,13.173 C70.9603706,13.0283333 70.8110373,12.816 70.7083706,12.536 C70.6057039,12.256 70.5543706,11.9153333 70.5543706,11.514 C70.5543706,11.1126667 70.6057039,10.772 70.7083706,10.492 C70.8110373,10.212 70.9580373,9.995 71.1493706,9.841 C71.3407039,9.687 71.5717039,9.61 71.8423706,9.61 C72.2530373,9.61 72.5750373,9.76166667 72.8083706,10.065 C73.0417039,10.3683333 73.1583706,10.8466667 73.1583706,11.5 C73.1583706,12.1533333 73.0417039,12.6316667 72.8083706,12.935 C72.5750373,13.2383333 72.2530373,13.39 71.8423706,13.39 Z"/>
    <rect width="20" height="20"/>
    <path fill="#000" fill-rule="nonzero" d="M19.9164931,9.9609375 C19.9355218,12.0672384 19.2663604,14.1221631 18.0107153,15.8133819 C16.8013215,17.5028985 15.0851704,18.7632358 13.1111597,19.4116042 C12.9353329,19.4606376 12.7467369,19.4265856 12.5991597,19.3191597 C12.4925193,19.2178091 12.4353899,19.0749855 12.4427153,18.9280486 L12.4427153,16.1973819 C12.500196,15.5138668 12.2529674,14.8398436 11.7671597,14.3556042 C12.2129796,14.3118987 12.6550331,14.2358464 13.0898264,14.1280486 C13.5165907,14.0135722 13.9257091,13.8413118 14.3058264,13.6160486 C14.7041194,13.3988089 15.0585798,13.1094535 15.3511597,12.7627153 C15.6725036,12.3567324 15.9138165,11.8934115 16.0622708,11.3973819 C16.2509575,10.7629976 16.3420732,10.1036076 16.3324931,9.44182639 C16.3546916,8.45160393 15.9839779,7.49286163 15.3013819,6.77515972 C15.6221894,5.91537159 15.5863501,4.9630698 15.2018264,4.12982639 C14.8471172,4.06515095 14.4810301,4.11495872 14.1564931,4.27204861 C13.7404179,4.42165672 13.3402313,4.61222176 12.9618264,4.8409375 L12.4711597,5.14671528 C10.8431102,4.69158902 9.12143151,4.69158902 7.49338194,5.14671528 C7.35115972,5.04715972 7.17338194,4.94049306 6.94582639,4.79827083 C6.591602,4.59179493 6.22049237,4.41575575 5.83649306,4.27204861 C5.49218381,4.09721548 5.10163148,4.03502561 4.72004861,4.09427083 C4.33663287,4.93568431 4.30337685,5.89499239 4.62760417,6.7609375 C3.95453533,7.48983046 3.58785146,8.44982918 3.60360417,9.44182639 C3.59346473,10.0989737 3.68460742,10.7537619 3.87382639,11.3831597 C4.02812905,11.8767953 4.26890769,12.3390903 4.5849375,12.7484931 C4.87103546,13.1054845 5.22667079,13.4006376 5.63027083,13.6160486 C6.01537712,13.8312523 6.42321556,14.0029738 6.84627083,14.1280486 C7.28336503,14.236336 7.72781851,14.3123922 8.17604861,14.3556042 C7.80384941,14.7061121 7.57566266,15.1827688 7.53604861,15.6924931 C7.34897418,15.7815535 7.15027822,15.8437956 6.94582639,15.8773819 C6.71139038,15.9214714 6.47325628,15.9429035 6.23471528,15.9413819 C5.90802249,15.9434697 5.58917345,15.8413383 5.32449306,15.6498264 C5.02977889,15.4362226 4.78676872,15.159191 4.61338194,14.8391597 C4.45645692,14.5711034 4.24288959,14.3405477 3.98760417,14.1636042 C3.79736052,14.0175274 3.57972749,13.911129 3.34760417,13.8507153 L3.09160417,13.8507153 C2.96338673,13.843292 2.83502919,13.8626667 2.71471528,13.9076042 C2.64360417,13.9502708 2.62227083,14.0000486 2.65071528,14.0569375 C2.68437925,14.1204452 2.72491876,14.1800621 2.77160417,14.2347153 C2.82311123,14.2945856 2.88026388,14.3493569 2.94227083,14.3982708 L3.03471528,14.4551597 C3.25790196,14.5752077 3.45208252,14.7426885 3.60360417,14.9458264 C3.76231492,15.1483645 3.89824488,15.3677602 4.0089375,15.6000486 L4.1369375,15.8987153 C4.23783114,16.2194869 4.43680039,16.500531 4.70582639,16.7022708 C4.96171118,16.8877417 5.25560709,17.0140441 5.56627083,17.0720486 C5.86094388,17.1337214 6.16121321,17.1647016 6.46227083,17.1644931 C6.70031071,17.1688537 6.93827099,17.1521965 7.17338194,17.1147153 L7.47204861,17.0649375 L7.47204861,18.9280486 C7.47478787,19.0770434 7.41247736,19.2198383 7.30138194,19.3191597 C7.15079556,19.4258613 6.96043478,19.4597612 6.78227083,19.4116042 C4.81437715,18.7549262 3.10772032,17.4867681 1.91115972,15.7920486 C0.649048789,14.1123154 -0.0211116574,12.0618244 0.00538194434,9.9609375 C-0.00500291087,8.21161205 0.456862424,6.4919007 1.34227083,4.98315972 C2.21184678,3.46835594 3.46835594,2.21184678 4.98315972,1.34227083 C6.4919007,0.456862424 8.21161205,-0.00500291087 9.9609375,0.0052106061 C11.710263,-0.00500291087 13.4299743,0.456862424 14.9387153,1.34227083 C16.4535191,2.21184678 17.7100282,3.46835594 18.5796042,4.98315972 C19.4656686,6.49162595 19.9275833,8.21152118 19.9164931,9.9609375 Z"/>
  </g>
</svg>
