<svg xmlns="http://www.w3.org/2000/svg" width="16" height="16" viewBox="0 0 16 16">
  <path fill="#FF4500" d="M9.77657142,10.4194286 C9.85714284,10.5 9.85714284,10.6245714 9.77657142,10.696 C9.26742856,11.2051429 8.28571428,11.2497143 8,11.2497143 C7.71428572,11.2497143 6.732,11.2051429 6.22342858,10.696 C6.14285716,10.6245714 6.14285716,10.4994286 6.22342858,10.4194286 C6.29846568,10.3479547 6.41639148,10.3479547 6.49142858,10.4194286 C6.81257144,10.7497143 7.50914286,10.8571429 8.00057142,10.8571429 C8.49199998,10.8571429 9.17942856,10.7502857 9.50971428,10.4194286 C9.58475138,10.3479547 9.70267718,10.3479547 9.77771428,10.4194286 L9.77657142,10.4194286 Z M7.036,8.80342858 C7.036,9.24114286 6.67885714,9.59828572 6.24114286,9.59828572 C6.02912755,9.59965357 5.82527717,9.51662334 5.67455475,9.36750891 C5.52383233,9.21839448 5.43862048,9.01544636 5.43770689,8.80342858 C5.43679789,8.59006646 5.52115029,8.38517839 5.67202148,8.2343072 C5.82289267,8.083436 6.02778074,7.99908361 6.24114286,7.99999261 C6.67885714,7.99999261 7.036,8.35714286 7.036,8.80342858 Z M10.5622931,8.80342858 C10.5622931,9.24114286 10.2051429,9.59828572 9.75885714,9.59828572 C9.32026081,9.59734284 8.96494288,9.24202491 8.964,8.80342858 C8.964,8.35714286 9.32114286,7.99999261 9.75885714,7.99999261 C9.97221926,7.99908361 10.1771073,8.083436 10.3279785,8.2343072 C10.4788497,8.38517839 10.5632021,8.59006646 10.5622931,8.80342858 Z M12.8034286,7.732 C12.8022188,7.44905108 12.6886561,7.17817191 12.4877237,6.97895413 C12.2867913,6.77973636 12.0149489,6.66849926 11.732,6.66971428 C11.4285714,6.66971428 11.1605714,6.79485714 10.964,6.99085714 C10.2405714,6.49085714 9.26742858,6.16971428 8.18742858,6.13371428 L8.74971428,3.60685714 L10.5354286,4.00857142 C10.5354286,4.4462857 10.8925714,4.80342856 11.3302857,4.80342858 C11.7765714,4.80342858 12.1337143,4.43714286 12.1337143,4 C12.1337143,3.56285714 11.7765714,3.19657142 11.3302857,3.19657142 C11.0275815,3.20044274 10.7522033,3.37249905 10.616,3.64285714 L8.64285714,3.20514286 C8.54457142,3.17828572 8.44628572,3.24971428 8.41942858,3.348 L7.80342858,6.13371428 C6.732,6.1782857 5.76742858,6.5 5.04457142,7 C4.84171913,6.78841844 4.56111329,6.6690732 4.268,6.66971428 C3.98505111,6.66849926 3.71320868,6.77973636 3.51227628,6.97895413 C3.31134388,7.17817191 3.19778124,7.44905108 3.19657142,7.732 C3.19657142,8.16057142 3.44685714,8.51771428 3.80342858,8.696 C3.76729814,8.86020171 3.74928569,9.0278708 3.74971428,9.196 C3.74971428,10.8925714 5.66057142,12.2674286 8.00857142,12.2674286 C10.3657143,12.2674286 12.2765714,10.8925714 12.2765714,9.196 C12.2765714,9.02628572 12.2588571,8.848 12.2142857,8.68685714 C12.5748464,8.50465802 12.8025356,8.13540846 12.8034286,7.73142858 L12.8034286,7.732 Z M16,8 C16,12.4194286 12.4194286,16 8,16 C3.58057142,16 0,12.4194286 0,8 C0,3.58057142 3.58057142,0 8,0 C12.4194286,0 16,3.58057142 16,8 Z"/>
</svg>
