<svg xmlns="http://www.w3.org/2000/svg" width="14" height="14" viewBox="0 0 14 14">
  <g fill="none" fill-rule="evenodd">
    <rect width="14" height="14"/>
    <path fill="#000" fill-rule="nonzero" d="M13.0519815,12.0895595 L9.25682827,8.29440624 C10.0281454,7.2364049 10.3694361,5.85076442 9.92575815,4.37638836 C9.46160272,2.85423158 8.17152366,1.65971393 6.61523781,1.34572644 C3.44123377,0.704099813 0.704081903,3.4480775 1.34570853,6.61525572 C1.65969602,8.17836739 2.85421367,9.46844645 4.37637045,9.92577606 C5.85074651,10.369454 7.23638699,10.0281633 8.29438833,9.25684618 L12.0895415,13.0519994 C12.3557483,13.3182062 12.7857747,13.3182062 13.0519815,13.0519994 L13.0519815,13.0519994 C13.3181883,12.7857926 13.3181883,12.3557662 13.0519815,12.0895595 Z M2.61531014,5.68694486 C2.61531014,3.98731689 3.98729898,2.61532805 5.68692695,2.61532805 C7.38655492,2.61532805 8.75854376,3.98731689 8.75854376,5.68694486 C8.75854376,7.38657283 7.38655492,8.75856167 5.68692695,8.75856167 C3.98729898,8.75856167 2.61531014,7.38657283 2.61531014,5.68694486 Z"/>
  </g>
</svg>
