<svg xmlns="http://www.w3.org/2000/svg" width="16" height="16" viewBox="0 0 16 16">
  <g fill="none">
    <path fill="#36AAE8" d="M16,8 C16,12.4 12.4,16 8,16 C3.6,16 0,12.4 0,8 C0,3.6 3.6,0 8,0 C12.4,0 16,3.6 16,8 Z"/>
    <path fill="#FFF" d="M10.5713333,11.372 L11.9686667,4.73433333 C12.1086667,4.17533333 11.759,3.896 11.34,4.03566667 L3.095,7.17966667 C2.536,7.38966667 2.536,7.73866667 3.025,7.87866667 L5.12133333,8.57733333 L10.0823333,5.433 C10.2916667,5.293 10.5013333,5.363 10.3616667,5.503 L6.379,9.13633333 L6.239,11.3023333 C6.449,11.3023333 6.58866667,11.2323333 6.65833333,11.0923333 L7.70666667,10.1143333 L9.87266667,11.7213333 C10.222,11.9313333 10.5013333,11.7913333 10.5713333,11.372 L10.5713333,11.372 Z"/>
  </g>
</svg>
