<svg xmlns="http://www.w3.org/2000/svg" width="24" height="24" viewBox="0 0 24 24">
  <g fill="none" fill-rule="evenodd">
    <circle cx="12" cy="12" r="12" fill="#27A17A"/>
    <path fill="#FFF" fill-rule="nonzero" d="M12.7,18.32 L12.7,16.953 L12.862398,16.9338776 C13.1663776,16.8897959 13.4552041,16.8236735 13.7288776,16.7355102 L13.9975,16.64 C14.6125,16.4 15.095,16.045 15.445,15.575 C15.795,15.105 15.97,14.53 15.97,13.85 C15.97,13.14 15.745,12.5825 15.295,12.1775 C14.845,11.7725 14.145,11.465 13.195,11.255 L13.195,11.255 L12.7,11.146 L12.7,9.004 L12.8132653,9.02520408 C12.9753061,9.06193878 13.1314286,9.10785714 13.2816327,9.16295918 L13.5025,9.2525 C14.0075,9.4775 14.465,9.81 14.875,10.25 L14.875,10.25 L16.045,8.735 C15.545,8.185 14.9525,7.775 14.2675,7.505 C13.839375,7.33625 13.3712109,7.22023438 12.8630078,7.15695313 L12.7,7.141 L12.7,5.78 L11.125,5.78 L11.125,7.141 L10.9789844,7.15589844 C10.5908594,7.20558594 10.2339844,7.28839844 9.90835937,7.40433594 L9.67,7.4975 C9.05,7.7625 8.575,8.13 8.245,8.6 C7.915,9.07 7.75,9.61 7.75,10.22 C7.75,10.69 7.8675,11.0975 8.1025,11.4425 C8.3375,11.7875 8.6625,12.07 9.0775,12.29 C9.4925,12.51 9.97,12.685 10.51,12.815 L10.51,12.815 L11.125,12.961 L11.125,15.049 L10.9984,15.0248 L10.9984,15.0248 L10.7275,14.96 C10.2725,14.84 9.8525,14.665 9.4675,14.435 C9.0825,14.205 8.77,13.925 8.53,13.595 L8.53,13.595 L7.315,15.275 C7.635,15.615 8.03,15.915 8.5,16.175 C8.97,16.435 9.4925,16.6375 10.0675,16.7825 C10.2975,16.8405 10.5335,16.8869 10.7755,16.9217 L11.125,16.964 L11.125,18.32 L12.7,18.32 Z M11.125,10.782 L11.006875,10.746875 C10.848125,10.698125 10.715,10.65 10.6075,10.6025 C10.3925,10.5075 10.2475,10.4 10.1725,10.28 C10.0975,10.16 10.06,10.025 10.06,9.875 C10.06,9.695 10.12,9.5325 10.24,9.3875 C10.36,9.2425 10.545,9.1275 10.795,9.0425 C10.845,9.0255 10.898,9.0102 10.954,8.9966 L11.125,8.962 L11.125,10.782 Z M12.7,15.088 L12.7,13.336 L12.7156122,13.3390816 C13.0033673,13.4145918 13.2247959,13.5003061 13.379898,13.5962245 L13.465,13.655 C13.645,13.795 13.735,13.97 13.735,14.18 C13.735,14.5 13.585,14.74 13.285,14.9 C13.1564286,14.9685714 13.0067347,15.022449 12.8359184,15.0616327 L12.7,15.088 Z"/>
  </g>
</svg>
