<svg xmlns="http://www.w3.org/2000/svg" width="120" height="48" viewBox="0 0 120 48">
  <g fill="none">
    <path fill="#E1E1E4" d="M13.6446018,42.0674157 C15.8025422,43.4515461 16,46.1447873 16,46.1447873 C12.6673586,49.2627694 10.1147292,47.5849428 9.66915348,47.2423681 L9.62452676,47.2069442 C9.60779651,47.193153 9.59951293,47.1855755 9.6,47.1857085 C11.5675295,44.7774188 15.3099286,45.7193531 15.3099286,45.7193531 C13.7130361,44.4516276 13.6465004,42.3598554 13.644562,42.095226 Z M10.794466,39.8314607 C12.5899891,41.8946145 12.2389232,44.5470685 12.2389232,44.5470685 C8.00614053,46.5920328 5.87522203,43.3568609 5.86666667,43.3545495 C8.24098922,41.7087497 11.6527543,43.889834 11.6527543,43.889834 C10.2878365,42.0236495 10.794466,39.8314607 10.794466,39.8314607 Z M9.4716069,37.2134831 C9.4716069,37.2134831 9.48670993,37.263894 9.5065561,37.356151 L9.53198517,37.4863974 C9.65069389,38.1579607 9.78687465,39.9498587 8.30921692,41.5134579 C8.30921692,41.5134579 3.9840555,41.9250087 2.13333333,38.3828217 C2.13333333,38.3828217 5.6337729,37.9751103 8.14469207,41.2709726 C8.15394886,41.2729777 7.76566475,38.7013715 9.4716069,37.2134831 Z M7.91037246,33.9775281 C7.91037246,33.9775281 8.50199812,36.608261 6.64520626,38.2921348 C6.64520626,38.2921348 2.44468899,38.2394272 1.6,34.478345 C1.59582563,34.4991555 4.22805004,34.1324098 6.62903226,37.9289123 C6.62903226,37.9289123 6.62650461,37.8801093 6.62549761,37.7926583 L6.62563364,37.6337651 C6.63478804,36.8924032 6.77155572,34.9425013 7.91037246,33.9775281 Z M-1.0658141e-14,30.2022472 C-0.0112163397,30.2105243 3.48752013,30.845802 4.71371531,34.034726 C4.71371531,34.034726 4.79522965,31.5721754 6.33521266,30.3377424 C6.33521266,30.3377424 6.88470942,32.7313014 4.78309396,34.5168539 C4.78309396,34.5168539 0.303909987,33.3120844 -1.0658141e-14,30.2022472 Z M-1.0658141e-14,26.4269663 C-1.0658141e-14,26.4269663 3.05334836,27.2619923 4.01191792,30.4112215 C4.01187459,30.4112674 4.44085992,27.9648777 5.86666667,27.1478709 L5.86644425,27.179413 C5.86186349,27.4787926 5.77120399,29.8284403 4.06128634,30.741573 C4.06128634,30.741573 0.445917813,29.9953132 -1.0658141e-14,26.4269663 Z M-1.0658141e-14,22.1123596 C-1.0658141e-14,22.1123596 2.89029833,22.8840129 3.77367014,26.1257192 C3.77599885,26.1156913 4.07235014,24.2785791 5.86629307,23.243295 L5.86645689,23.3007468 C5.86128909,23.6490126 5.74538507,25.4935513 3.90184217,26.4269663 C3.90184217,26.4269663 0.238506157,25.4017554 -1.0658141e-14,22.1123596 Z M0.537062025,18.3370787 C0.537062025,18.3370787 3.38465122,19.6420859 3.69338012,22.4333825 C3.70483967,22.4261243 3.97058386,20.7819165 5.86666667,19.8940598 C5.86666667,19.8940598 5.7632135,21.5033082 3.68962067,22.6516854 C3.68962067,22.6516854 0.407654969,20.9055199 0.537062025,18.3370787 Z M1.17161679,14.6404494 C1.17161679,14.6404494 3.41638325,15.2560307 3.86338816,18.7364308 C3.87363452,18.7383319 4.7514925,17.187001 6.4,16.8500948 C6.4,16.8500948 6.05328847,18.5376429 3.8031717,18.9550562 C3.8031717,18.9550562 0.436602488,16.7254081 1.17161679,14.6404494 Z M3.33120371,11.857739 C3.33120371,11.857739 5.25370398,13.5327554 4.96243534,16.4426027 C4.9624777,16.4426027 5.51919032,15.3846857 7.23687118,14.7937238 L7.23397727,14.8011374 L7.21018612,14.8571965 C7.07737963,15.1555915 6.43180795,16.4170285 4.89495244,16.7191011 C4.89495244,16.7191011 2.64159971,14.0548748 3.33120371,11.857739 Z M4.79275442,9.03081874 C4.79275442,9.03081874 6.49481341,10.6424098 6.0773001,13.5530245 C6.07618464,13.5527595 6.09310102,13.525878 6.12595269,13.4797416 L6.21228191,13.3639769 C6.53128355,12.9527507 7.37363898,12.0250297 8.28649679,12.1709384 C8.28649679,12.1709384 7.79553125,13.683938 5.99906395,13.7957562 C5.99906395,13.7957562 4.01644716,12.0642664 4.79275442,9.03081874 Z M6.4137408,6.47191011 C7.84320112,7.79851593 7.36413188,10.8720954 7.36413188,10.8720954 C8.5064724,9.64123708 9.6,9.78912427 9.6,9.78912427 C8.75366973,11.2377053 7.23064786,11.2060152 7.22209606,11.2039386 C5.34963643,8.61049592 6.4137408,6.47191011 6.4137408,6.47191011 Z M7.80891661,4.18794736 C7.80891661,4.18794736 9.05437687,5.90861676 8.48818598,8.80010637 C8.49701399,8.80228108 9.39671763,7.71192408 10.7065026,7.94921182 C10.7065026,7.94921182 9.71408265,9.40545939 8.36379524,9.13505719 C8.36379524,9.13505719 6.79249687,6.50823651 7.80891661,4.18794736 Z M9.87489449,1.94802275 C9.87489449,1.94802275 10.852675,3.45285475 10.0444457,6.37498762 C10.0467081,6.36396596 11.1329092,5.42356333 12.2322413,5.76849789 C12.2322413,5.76849789 11.5511531,7.13103636 9.82835884,6.74428851 C9.82835884,6.74428851 8.69806211,3.94201034 9.87489449,1.94802275 Z M11.8719783,0 C11.8719783,0 12.7472386,1.63936583 11.7699016,4.27844386 L11.7969882,4.25882335 C11.9658111,4.13988375 12.8980817,3.5322683 13.8666667,3.88947198 C13.8666667,3.88947198 12.9651442,5.08253331 11.6163207,4.57187799 C11.6163207,4.57187799 10.5416982,1.68058601 11.8719783,0 Z M14.5895931,0.539325843 C14.5895931,0.539325843 14.6675097,1.36499315 14.0187511,2.08007186 L13.9037583,2.19806714 C13.8987843,2.19692762 14.1091812,2.04868599 14.488622,1.99647766 C14.6501773,1.83168567 15.0672826,1.55041512 16,1.63274405 C16,1.63274405 15.8222575,1.92343995 15.3859246,2.07202796 C15.4108127,2.07725682 15.4385809,2.08558883 15.4666667,2.09451734 C15.4666667,2.09451734 14.6782591,3.05486469 13.3333333,2.54987712 C13.3333333,2.54987712 13.4973346,0.840981427 14.5895931,0.539325843 Z"/>
    <path fill="#E1E1E4" d="M13.6446018,42.0674157 C15.8025422,43.4515461 16,46.1447873 16,46.1447873 C12.6673586,49.2627694 10.1147292,47.5849428 9.66915348,47.2423681 L9.62452676,47.2069442 C9.60779651,47.193153 9.59951293,47.1855755 9.6,47.1857085 C11.5675295,44.7774188 15.3099286,45.7193531 15.3099286,45.7193531 C13.7130361,44.4516276 13.6465004,42.3598554 13.644562,42.095226 Z M10.794466,39.8314607 C12.5899891,41.8946145 12.2389232,44.5470685 12.2389232,44.5470685 C8.00614053,46.5920328 5.87522203,43.3568609 5.86666667,43.3545495 C8.24098922,41.7087497 11.6527543,43.889834 11.6527543,43.889834 C10.2878365,42.0236495 10.794466,39.8314607 10.794466,39.8314607 Z M9.4716069,37.2134831 C9.4716069,37.2134831 9.48670993,37.263894 9.5065561,37.356151 L9.53198517,37.4863974 C9.65069389,38.1579607 9.78687465,39.9498587 8.30921692,41.5134579 C8.30921692,41.5134579 3.9840555,41.9250087 2.13333333,38.3828217 C2.13333333,38.3828217 5.6337729,37.9751103 8.14469207,41.2709726 C8.15394886,41.2729777 7.76566475,38.7013715 9.4716069,37.2134831 Z M7.91037246,33.9775281 C7.91037246,33.9775281 8.50199812,36.608261 6.64520626,38.2921348 C6.64520626,38.2921348 2.44468899,38.2394272 1.6,34.478345 C1.59582563,34.4991555 4.22805004,34.1324098 6.62903226,37.9289123 C6.62903226,37.9289123 6.62650461,37.8801093 6.62549761,37.7926583 L6.62563364,37.6337651 C6.63478804,36.8924032 6.77155572,34.9425013 7.91037246,33.9775281 Z M-1.0658141e-14,30.2022472 C-0.0112163397,30.2105243 3.48752013,30.845802 4.71371531,34.034726 C4.71371531,34.034726 4.79522965,31.5721754 6.33521266,30.3377424 C6.33521266,30.3377424 6.88470942,32.7313014 4.78309396,34.5168539 C4.78309396,34.5168539 0.303909987,33.3120844 -1.0658141e-14,30.2022472 Z M-1.0658141e-14,26.4269663 C-1.0658141e-14,26.4269663 3.05334836,27.2619923 4.01191792,30.4112215 C4.01187459,30.4112674 4.44085992,27.9648777 5.86666667,27.1478709 L5.86644425,27.179413 C5.86186349,27.4787926 5.77120399,29.8284403 4.06128634,30.741573 C4.06128634,30.741573 0.445917813,29.9953132 -1.0658141e-14,26.4269663 Z M-1.0658141e-14,22.1123596 C-1.0658141e-14,22.1123596 2.89029833,22.8840129 3.77367014,26.1257192 C3.77599885,26.1156913 4.07235014,24.2785791 5.86629307,23.243295 L5.86645689,23.3007468 C5.86128909,23.6490126 5.74538507,25.4935513 3.90184217,26.4269663 C3.90184217,26.4269663 0.238506157,25.4017554 -1.0658141e-14,22.1123596 Z M0.537062025,18.3370787 C0.537062025,18.3370787 3.38465122,19.6420859 3.69338012,22.4333825 C3.70483967,22.4261243 3.97058386,20.7819165 5.86666667,19.8940598 C5.86666667,19.8940598 5.7632135,21.5033082 3.68962067,22.6516854 C3.68962067,22.6516854 0.407654969,20.9055199 0.537062025,18.3370787 Z M1.17161679,14.6404494 C1.17161679,14.6404494 3.41638325,15.2560307 3.86338816,18.7364308 C3.87363452,18.7383319 4.7514925,17.187001 6.4,16.8500948 C6.4,16.8500948 6.05328847,18.5376429 3.8031717,18.9550562 C3.8031717,18.9550562 0.436602488,16.7254081 1.17161679,14.6404494 Z M3.33120371,11.857739 C3.33120371,11.857739 5.25370398,13.5327554 4.96243534,16.4426027 C4.9624777,16.4426027 5.51919032,15.3846857 7.23687118,14.7937238 L7.23397727,14.8011374 L7.21018612,14.8571965 C7.07737963,15.1555915 6.43180795,16.4170285 4.89495244,16.7191011 C4.89495244,16.7191011 2.64159971,14.0548748 3.33120371,11.857739 Z M4.79275442,9.03081874 C4.79275442,9.03081874 6.49481341,10.6424098 6.0773001,13.5530245 C6.07618464,13.5527595 6.09310102,13.525878 6.12595269,13.4797416 L6.21228191,13.3639769 C6.53128355,12.9527507 7.37363898,12.0250297 8.28649679,12.1709384 C8.28649679,12.1709384 7.79553125,13.683938 5.99906395,13.7957562 C5.99906395,13.7957562 4.01644716,12.0642664 4.79275442,9.03081874 Z M6.4137408,6.47191011 C7.84320112,7.79851593 7.36413188,10.8720954 7.36413188,10.8720954 C8.5064724,9.64123708 9.6,9.78912427 9.6,9.78912427 C8.75366973,11.2377053 7.23064786,11.2060152 7.22209606,11.2039386 C5.34963643,8.61049592 6.4137408,6.47191011 6.4137408,6.47191011 Z M7.80891661,4.18794736 C7.80891661,4.18794736 9.05437687,5.90861676 8.48818598,8.80010637 C8.49701399,8.80228108 9.39671763,7.71192408 10.7065026,7.94921182 C10.7065026,7.94921182 9.71408265,9.40545939 8.36379524,9.13505719 C8.36379524,9.13505719 6.79249687,6.50823651 7.80891661,4.18794736 Z M9.87489449,1.94802275 C9.87489449,1.94802275 10.852675,3.45285475 10.0444457,6.37498762 C10.0467081,6.36396596 11.1329092,5.42356333 12.2322413,5.76849789 C12.2322413,5.76849789 11.5511531,7.13103636 9.82835884,6.74428851 C9.82835884,6.74428851 8.69806211,3.94201034 9.87489449,1.94802275 Z M11.8719783,0 C11.8719783,0 12.7472386,1.63936583 11.7699016,4.27844386 L11.7969882,4.25882335 C11.9658111,4.13988375 12.8980817,3.5322683 13.8666667,3.88947198 C13.8666667,3.88947198 12.9651442,5.08253331 11.6163207,4.57187799 C11.6163207,4.57187799 10.5416982,1.68058601 11.8719783,0 Z M14.5895931,0.539325843 C14.5895931,0.539325843 14.6675097,1.36499315 14.0187511,2.08007186 L13.9037583,2.19806714 C13.8987843,2.19692762 14.1091812,2.04868599 14.488622,1.99647766 C14.6501773,1.83168567 15.0672826,1.55041512 16,1.63274405 C16,1.63274405 15.8222575,1.92343995 15.3859246,2.07202796 C15.4108127,2.07725682 15.4385809,2.08558883 15.4666667,2.09451734 C15.4666667,2.09451734 14.6782591,3.05486469 13.3333333,2.54987712 C13.3333333,2.54987712 13.4973346,0.840981427 14.5895931,0.539325843 Z" transform="matrix(-1 0 0 1 120 0)"/>
    <path fill="#C0C0C6" d="M30.4,31.536 L30.4,30.768 L41.584,30.768 L41.584,31.536 L42.464,31.536 L42.464,17.808 L29.52,17.808 L29.52,31.536 L30.4,31.536 Z M41.584,29.952 L30.4,29.952 L30.4,18.64 L41.584,18.64 L41.584,29.952 Z M40.416,28.064 L40.416,27.264 L36.432,27.264 L36.432,24.48 L39.456,24.48 L39.456,23.68 L36.432,23.68 L36.432,21.12 L39.952,21.12 L39.952,20.32 L32.032,20.32 L32.032,21.12 L35.568,21.12 L35.568,23.68 L32.544,23.68 L32.544,24.48 L35.568,24.48 L35.568,27.264 L31.6,27.264 L31.6,28.064 L40.416,28.064 Z M38.752,27.072 L39.44,26.768 C39.12,26.112 38.752,25.504 38.336,24.928 L37.632,25.152 C38.032,25.696 38.4,26.336 38.752,27.072 Z M45.472,31.584 C46.512,29.456 47.056,26.64 47.104,23.12 L47.104,19.328 L59.072,19.328 L59.072,18.464 L53.248,18.464 C52.976,17.856 52.688,17.312 52.384,16.832 L51.44,16.992 C51.76,17.44 52.048,17.92 52.32,18.464 L46.24,18.464 L46.24,23.12 C46.192,26.448 45.696,29.056 44.752,30.928 L45.472,31.584 Z M54.336,31.584 L54.336,28.992 L59.216,28.992 L59.216,28.192 L54.336,28.192 L54.336,26.08 L58.016,26.08 L58.016,25.296 L54.336,25.296 L54.336,23.248 L53.472,23.248 L53.472,25.296 L50.08,25.296 C50.656,24.448 51.168,23.472 51.648,22.352 L58.384,22.352 L58.384,21.568 L51.968,21.568 C52.128,21.12 52.304,20.624 52.464,20.112 L51.632,19.936 C51.456,20.496 51.264,21.04 51.072,21.568 L48.16,21.568 L48.16,22.352 L50.752,22.352 C50.24,23.536 49.648,24.528 48.976,25.36 L49.152,26.08 L53.472,26.08 L53.472,28.192 L47.568,28.192 L47.568,28.992 L53.472,28.992 L53.472,31.584 L54.336,31.584 Z M74.72,31.568 L75.2,30.8 C73.904,30.48 72.688,30.096 71.536,29.648 C70.48,29.232 69.536,28.752 68.688,28.224 C70.48,26.912 71.824,25.344 72.736,23.488 L72.736,22.72 L68.4,22.72 L68.4,20.016 L74.816,20.016 L74.816,19.152 L68.4,19.152 L68.4,16.96 L67.504,16.96 L67.504,19.152 L61.184,19.152 L61.184,20.016 L67.504,20.016 L67.504,22.72 L62.416,22.72 L62.416,23.536 L63.744,23.536 C64,24.464 64.416,25.312 65.024,26.08 C65.664,26.896 66.416,27.616 67.248,28.24 C65.504,29.328 63.36,30.176 60.832,30.816 L61.328,31.568 C63.92,30.864 66.128,29.92 67.952,28.736 C68.8,29.28 69.76,29.792 70.816,30.256 C72.032,30.768 73.344,31.216 74.72,31.568 Z M67.968,27.76 C67.232,27.248 66.56,26.656 65.984,26 C65.328,25.264 64.864,24.448 64.592,23.536 L71.76,23.536 C70.896,25.168 69.632,26.576 67.968,27.76 Z M91.056,22.512 L91.056,21.68 L87.056,21.68 L87.056,19.568 L90.432,19.568 L90.432,18.752 L87.056,18.752 L87.056,16.976 L86.192,16.976 L86.192,18.752 L82.96,18.752 L82.96,19.568 L86.192,19.568 L86.192,21.68 L82.384,21.68 L82.384,22.512 L91.056,22.512 Z M78.704,31.408 C79.52,31.408 79.936,30.976 79.936,30.112 L79.936,25.408 C80.544,25.152 81.152,24.864 81.728,24.56 L81.728,23.664 C81.136,23.984 80.544,24.272 79.936,24.544 L79.936,20.96 L81.712,20.96 L81.712,20.144 L79.936,20.144 L79.936,17.168 L79.088,17.168 L79.088,20.144 L77.008,20.144 L77.008,20.96 L79.088,20.96 L79.088,24.88 C78.368,25.136 77.632,25.36 76.88,25.552 L77.104,26.432 C77.776,26.224 78.448,26 79.088,25.76 L79.088,29.888 C79.088,30.384 78.848,30.64 78.4,30.64 C77.984,30.64 77.552,30.624 77.104,30.592 L77.296,31.408 L78.704,31.408 Z M87.76,31.44 C88.624,31.44 89.056,31.008 89.056,30.176 L89.056,25.632 L91.072,25.632 L91.072,24.816 L89.056,24.816 L89.056,23.488 L88.176,23.488 L88.176,24.816 L82.144,24.816 L82.144,25.632 L88.176,25.632 L88.176,29.952 C88.176,30.432 87.936,30.672 87.456,30.672 C86.816,30.672 86.144,30.64 85.44,30.608 L85.616,31.44 L87.76,31.44 Z M84.944,29.696 L85.632,29.2 C85.152,28.448 84.464,27.568 83.568,26.544 L82.88,26.992 C83.744,27.968 84.432,28.864 84.944,29.696 Z"/>
  </g>
</svg>
