<svg xmlns="http://www.w3.org/2000/svg" width="16" height="16" viewBox="0 0 16 16">
  <path fill="#6D7577" d="M7,0 C10.8659932,0 14,3.13400675 14,7 C14,8.35319693 13.6160278,9.61671236 12.9510928,10.687537 C12.9510928,10.687537 12.9510928,10.687537 12.9510928,10.687537 C12.7604851,10.9944954 12.8063819,11.3922974 13.0618772,11.6477908 L14.999983,13.5858034 C15.3905073,13.976309 15.3905225,14.6094587 15.000017,14.999983 C15.0000113,14.9999887 15.0000057,14.9999943 15,15 C14.6094816,15.3905184 13.9763262,15.3905184 13.5858078,15 C13.5858042,14.9999964 13.5858007,14.9999929 13.5857971,14.9999893 L10.6403202,12.0544235 C10.1989535,11.6130123 10.1903045,10.9000962 10.6208485,10.4481225 C10.6208485,10.4481225 10.6208485,10.4481225 10.6208485,10.4481225 L10.8388173,10.2038584 L10.8094987,10.2386287 C10.9352532,10.090852 11.0525614,9.93566596 11.1606769,9.77381695 C11.6908939,8.98005735 12,8.02612647 12,7 C12,4.23857625 9.76142375,2 7,2 C4.23857625,2 2,4.23857625 2,7 C2,9.4867279 3.81535813,11.5494562 6.19312289,11.9352334 C6.19312289,11.9352334 6.19312289,11.9352334 6.19312289,11.9352334 C6.65766695,12.0106028 6.99898395,12.4117585 6.99899724,12.8823769 L6.99899741,12.9651554 C6.99899852,13.4913086 6.57246796,13.917841 6.04631475,13.9178421 C6.02929652,13.9178421 6.01228134,13.9173861 5.99528595,13.9165041 C5.9134719,13.9121159 5.85368033,13.9067044 5.81591123,13.9002696 C2.51382161,13.3376833 0,10.4624089 0,7 C0,3.13400675 3.13400675,0 7,0 Z" opacity=".32"/>
</svg>
