<svg xmlns="http://www.w3.org/2000/svg" width="15" height="10" viewBox="0 0 15 10">
  <path fill="#E6007A" fill-rule="evenodd" d="M10.6128994,0.209704612 L10.7071068,0.292893219 L14.7071068,4.29289322 C15.0675907,4.65337718 15.0953203,5.22060824 14.7902954,5.61289944 L14.7071068,5.70710678 L10.7071068,9.70710678 C10.3165825,10.0976311 9.68341751,10.0976311 9.29289322,9.70710678 C8.93240926,9.34662282 8.90467972,8.77939176 9.20970461,8.38710056 L9.29289322,8.29289322 L11.585,6 L1,6 C0.44771525,6 6.76353751e-17,5.55228475 0,5 C-6.76353751e-17,4.44771525 0.44771525,4 1,4 L11.585,4 L9.29289322,1.70710678 C8.93240926,1.34662282 8.90467972,0.779391764 9.20970461,0.387100557 L9.29289322,0.292893219 C9.65337718,-0.0675907428 10.2206082,-0.0953202783 10.6128994,0.209704612 Z"/>
</svg>
