<svg xmlns="http://www.w3.org/2000/svg" width="14" height="13" viewBox="0 0 14 13">
  <path fill="#B4BDBF" d="M32.3540526,13.0902523 C32.5118227,13.1681165 32.6395247,13.2958185 32.7173889,13.4535886 L34.351141,16.763932 L38.0043219,17.2947703 C38.4415578,17.3583044 38.7445029,17.7642586 38.6809688,18.2014945 C38.6556692,18.3756042 38.5736795,18.5365181 38.4476926,18.659325 L35.8042261,21.236068 L36.4282639,24.8744875 C36.5029527,25.3099566 36.2104824,25.7235214 35.7750132,25.7982102 C35.6016071,25.8279517 35.4232327,25.7996999 35.2675043,25.7178287 L32,24 L28.7324957,25.7178287 C28.34142,25.9234293 27.8577183,25.7730721 27.6521177,25.3819964 C27.5702464,25.226268 27.5419947,25.0478936 27.5717361,24.8744875 L28.1957739,21.236068 L25.5523074,18.659325 C25.2359206,18.350924 25.2294467,17.8444334 25.5378477,17.5280465 C25.6606546,17.4020596 25.8215685,17.3200699 25.9956781,17.2947703 L29.648859,16.763932 L31.2826111,13.4535886 C31.478149,13.0573857 31.9578496,12.8947145 32.3540526,13.0902523 Z M32,14.26 L30.5455951,17.2064977 C30.4181408,17.4647483 30.1866354,17.653653 29.9125501,17.7285504 L29.7926573,17.753539 L26.54,18.226 L28.8937856,20.5199816 C29.100011,20.7210016 29.2081309,20.9995512 29.1946656,21.2833663 L29.1813823,21.405113 L28.626,24.643 L31.5346589,23.1148686 C31.7895674,22.9808552 32.0878946,22.9641036 32.3536579,23.0646136 L32.4653411,23.1148686 L35.373,24.643 L34.8186177,21.405113 C34.7699345,21.1212682 34.846191,20.8323656 35.023907,20.6106691 L35.1062144,20.5199816 L37.459,18.226 L34.2073427,17.753539 C33.9223463,17.7121266 33.6711481,17.5503267 33.5152195,17.3128007 L33.4544049,17.2064977 L32,14.26 Z" transform="translate(-25 -13)"/>
</svg>
