<svg xmlns="http://www.w3.org/2000/svg" width="48" height="48" viewBox="0 0 48 48">
  <g fill="none" fill-rule="evenodd">
    <circle cx="24" cy="24" r="24" fill="#F4F4F5"/>
    <path fill="#E1E1E4" fill-rule="nonzero" stroke="#E1E1E4" d="M22.6957954,12 C28.60292,12 33.3915907,16.7886707 33.3915907,22.6957954 C33.3915907,24.7634407 32.8048925,26.6940554 31.7888912,28.3302441 C31.7888912,28.3302441 31.7888912,28.3302441 31.7888912,28.3302441 C31.4976414,28.7992785 31.567772,29.4071225 31.9581856,29.797503 L34.9195355,32.7587105 C35.5162452,33.3553915 35.5162685,34.3228258 34.9195875,34.9195355 C34.9195788,34.9195442 34.9195702,34.9195528 34.9195615,34.9195615 C34.3228608,35.5162622 33.3554178,35.5162622 32.7587171,34.9195615 C32.7587117,34.9195561 32.7587063,34.9195506 32.7587008,34.9195452 L28.2580982,30.4188068 C27.5837028,29.7443434 27.5704873,28.6550284 28.228346,27.9644258 C28.228346,27.9644258 28.228346,27.9644258 28.228346,27.9644258 L28.5613959,27.5911974 L28.5165981,27.6443254 C28.7087472,27.4185269 28.8879907,27.1814071 29.053188,26.9341066 C29.8633441,25.7212651 30.3356492,24.2636866 30.3356492,22.6957954 C30.3356492,18.4764206 26.9151701,15.0559415 22.6957954,15.0559415 C18.4764206,15.0559415 15.0559415,18.4764206 15.0559415,22.6957954 C15.0559415,26.4954429 17.8297557,29.6472314 21.4629107,30.2366878 C21.4629107,30.2366878 21.4629107,30.2366878 21.4629107,30.2366878 C22.1727352,30.3518523 22.6942685,30.9648193 22.6942632,31.6839255 L22.6942634,31.8103784 C22.6942651,32.6143446 22.0425232,33.2660893 21.238557,33.266091 C21.21255,33.266091 21.1865476,33.2653941 21.1605774,33.2640091 C21.0355906,33.2573045 20.9442456,33.2490367 20.8865423,33.2392056 C15.8410459,32.3795902 12,27.986255 12,22.6957954 C12,16.7886707 16.7886707,12 22.6957954,12 Z"/>
  </g>
</svg>
