<svg xmlns="http://www.w3.org/2000/svg" width="14" height="14" viewBox="0 0 14 14">
  <g fill="none" fill-rule="evenodd">
    <rect width="14" height="14"/>
    <path fill="#000" fill-rule="nonzero" d="M3.5,1.16666667 C2.85833333,1.16666667 2.33916667,1.69166667 2.33916667,2.33333333 L2.33333333,11.6666667 C2.33333333,12.3083333 2.8525,12.8333333 3.49416667,12.8333333 L10.5,12.8333333 C11.1416667,12.8333333 11.6666667,12.3083333 11.6666667,11.6666667 L11.6666667,5.15083333 C11.6666667,4.84166667 11.5441667,4.54416667 11.3225,4.32833333 L8.505,1.51083333 C8.28916667,1.28916667 7.99166667,1.16666667 7.6825,1.16666667 L3.5,1.16666667 Z M7.58333333,4.66666667 L7.58333333,2.04166667 L10.7916667,5.25 L8.16666667,5.25 C7.84583333,5.25 7.58333333,4.9875 7.58333333,4.66666667 Z"/>
  </g>
</svg>
