<svg xmlns="http://www.w3.org/2000/svg" width="14" height="14" viewBox="0 0 14 14">
  <g fill="none" fill-rule="evenodd">
    <rect width="14" height="14"/>
    <rect width="14" height="14"/>
    <path fill="#000" fill-rule="nonzero" d="M8.90909091,4.87878788 C8.90909091,3.97515152 8.59090909,3.14151515 8.06272727,2.48606061 C8.33,2.3969697 8.61,2.33333333 8.90909091,2.33333333 C10.3154545,2.33333333 11.4545455,3.47242424 11.4545455,4.87878788 C11.4545455,6.28515152 10.3154545,7.42424242 8.90909091,7.42424242 C8.63545455,7.42424242 8.37454545,7.3669697 8.12636364,7.29060606 C8.10727273,7.28424242 8.08818182,7.27787879 8.06272727,7.27151515 C8.59090909,6.61606061 8.90909091,5.78242424 8.90909091,4.87878788 Z M9.96545455,8.14333333 C10.8372727,8.73515152 11.4545455,9.5369697 11.4545455,10.6060606 L11.4545455,12.5151515 L14,12.5151515 L14,10.6060606 C14,9.21878788 11.7218182,8.39787879 9.96545455,8.14333333 Z M5.09090909,2.33333333 C6.49727273,2.33333333 7.63636364,3.47242424 7.63636364,4.87878788 C7.63636364,6.28515152 6.49727273,7.42424242 5.09090909,7.42424242 C3.68454545,7.42424242 2.54545455,6.28515152 2.54545455,4.87878788 C2.54545455,3.47242424 3.68454545,2.33333333 5.09090909,2.33333333 Z M5.09090909,8.06060606 C6.79,8.06060606 10.1818182,8.91333333 10.1818182,10.6060606 L10.1818182,12.5151515 L0,12.5151515 L0,10.6060606 C0,8.91333333 3.39181818,8.06060606 5.09090909,8.06060606 Z"/>
  </g>
</svg>
