<svg xmlns="http://www.w3.org/2000/svg" width="14" height="14" viewBox="0 0 14 14">
  <g fill="none" fill-rule="evenodd">
    <rect width="14" height="14"/>
    <path fill="#111" fill-rule="nonzero" d="M8.09900445,1.61276493 C8.59507347,1.16542199 9.24076653,1.01022137 10.0973391,1.00616384 C11.2099798,1.07209874 12.2131638,1.62290876 12.7333334,2.84929792 C13.2605322,4.09597474 13.024548,5.25338584 12.1147534,6.24342372 C11.4720729,6.94334805 10.779183,7.59965391 10.1013559,8.26914676 C9.8081329,8.5602747 9.33817279,8.57041853 9.08310896,8.30160702 C8.82402838,8.02873797 8.85214566,7.65645937 9.16344403,7.34402937 C9.8262083,6.67555092 10.4990145,6.01518753 11.157762,5.3396084 C12.1478916,4.32319654 11.7080571,2.70626991 10.3403527,2.34312075 C9.77097794,2.19197767 9.22369532,2.29544474 8.79189437,2.7001836 C8.09599188,3.34938878 7.44126113,4.04221242 6.74837121,4.69344636 C6.60175972,4.83038808 6.35673778,4.95109966 6.16895457,4.93892708 C5.65782274,4.90849559 5.40175472,4.28769313 5.75322062,3.91845769 C6.5070826,3.12093705 7.28988006,2.35184738 8.10000864,1.61276493 L8.09900445,1.61276493 Z M2.81195314,12.7547488 C1.69931252,12.2668305 1.01445612,11.169268 1.01043936,9.95403706 C1.00176547,9.12638175 1.32654412,8.33072446 1.91019206,7.74978262 C2.56793538,7.07623225 3.23772897,6.4128257 3.90451,5.74941916 C4.22283768,5.43293164 4.61246274,5.40858644 4.880581,5.68145549 C5.16074953,5.96446837 5.13263226,6.32051684 4.80225432,6.6532345 C4.16760732,7.29331022 3.52091007,7.92729965 2.89027983,8.57447606 C2.11102972,9.37380994 2.07889569,10.4531135 2.79689032,11.1763687 C3.4837551,11.8702067 4.61949205,11.8722355 5.33748667,11.1723111 C5.99020905,10.5332498 6.62586023,9.87694394 7.27557006,9.23686822 C7.6661993,8.85343141 8.26067876,8.99037313 8.36411015,9.50669412 C8.40126512,9.69232623 8.32695518,9.97229596 8.1974149,10.1072089 C7.49046635,10.8558236 6.7835178,11.6105246 6.01230119,12.2891469 C5.0683642,13.1209411 3.96375709,13.2588972 2.81094895,12.7547488 L2.81195314,12.7547488 Z M9.24076653,4.40028965 C9.49482617,4.51085741 9.62336227,4.71271965 9.64344603,5.07688318 C9.60227431,5.15397629 9.55407328,5.32337827 9.44662513,5.43293164 C8.1485592,6.75467958 6.8447756,8.07068517 5.53531176,9.38091062 C5.41316261,9.5104333 5.24358317,9.58339927 5.06649435,9.58263752 C4.88940553,9.58186376 4.72045235,9.50743012 4.59940829,9.37685309 C4.33530677,9.10905595 4.34233608,8.74286366 4.63656325,8.44564942 C5.92304409,7.15275183 7.21141906,5.86177887 8.50168395,4.57273478 C8.71055511,4.36275748 8.95557705,4.27552054 9.24076653,4.40028965 L9.24076653,4.40028965 Z"/>
  </g>
</svg>
